<svg xmlns="http://www.w3.org/2000/svg" width="48.233" height="58.305" viewBox="0 0 48.233 58.305">
    <defs>
        <style>
            .cls-1{fill:#1a1a1a}
        </style>
    </defs>
    <g id="Group_441" data-name="Group 441" transform="translate(2562.515 -3882.651)">
        <g id="Group_424" data-name="Group 424">
            <path id="Path_187" d="M-2527.405 3893.128h-1.666v-5.955a4.528 4.528 0 0 1 4.525-4.522 4.527 4.527 0 0 1 4.522 4.522v3.556h-4.526v-1.666h2.86v-1.89a2.86 2.86 0 0 0-2.856-2.856 2.86 2.86 0 0 0-2.859 2.856z" class="cls-1" data-name="Path 187"/>
        </g>
        <g id="Group_425" data-name="Group 425">
            <path id="Path_188" d="M-2534.37 3933.152h-28.145v-45.979a4.527 4.527 0 0 1 4.523-4.522h33.478v1.666h-33.478a2.859 2.859 0 0 0-2.857 2.856v44.313h26.479z" class="cls-1" data-name="Path 188"/>
        </g>
        <g id="Group_426" data-name="Group 426">
            <path id="Path_189" d="M-2528.238 3923.206a13.971 13.971 0 0 1-13.955-13.956 13.971 13.971 0 0 1 13.955-13.956 13.972 13.972 0 0 1 13.956 13.956 13.972 13.972 0 0 1-13.956 13.956zm0-26.246a12.3 12.3 0 0 0-12.289 12.29 12.3 12.3 0 0 0 12.289 12.29 12.3 12.3 0 0 0 12.29-12.29 12.3 12.3 0 0 0-12.29-12.29z" class="cls-1" data-name="Path 189"/>
        </g>
        <g id="Group_427" data-name="Group 427">
            <path id="Path_190" d="M-2528.236 3919.247a10.008 10.008 0 0 1-10-10 10.009 10.009 0 0 1 10-10 10.009 10.009 0 0 1 10 10 10.008 10.008 0 0 1-10 10zm0-18.329a8.341 8.341 0 0 0-8.332 8.332 8.341 8.341 0 0 0 8.332 8.331 8.341 8.341 0 0 0 8.331-8.331 8.341 8.341 0 0 0-8.331-8.332z" class="cls-1" data-name="Path 190"/>
        </g>
        <g id="Group_428" data-name="Group 428">
            <path id="Rectangle_200" d="M0 0h1.666v5.416H0z" class="cls-1" data-name="Rectangle 200" transform="translate(-2529.071 3922.373)"/>
        </g>
        <g id="Group_429" data-name="Group 429">
            <path id="Path_191" d="M-2528.238 3940.956a4.311 4.311 0 0 1-2.955-1.165l-.263-.246v-12.589h6.438v12.589l-.264.246a4.308 4.308 0 0 1-2.956 1.165zm-1.552-2.163a2.67 2.67 0 0 0 3.106 0v-10.171h-3.106z" class="cls-1" data-name="Path 191"/>
        </g>
        <g id="Group_430" data-name="Group 430">
            <path id="Rectangle_201" d="M0 0h1.666v21.557H0z" class="cls-1" data-name="Rectangle 201" transform="translate(-2557.575 3903.747)"/>
        </g>
        <g id="Group_431" data-name="Group 431">
            <path id="Rectangle_202" d="M0 0h1.666v18.646H0z" class="cls-1" data-name="Rectangle 202" transform="translate(-2550.165 3906.659)"/>
        </g>
        <g id="Group_432" data-name="Group 432">
            <path id="Rectangle_203" d="M0 0h1.666v18.646H0z" class="cls-1" data-name="Rectangle 203" transform="translate(-2553.87 3906.659)"/>
        </g>
        <g id="Group_433" data-name="Group 433">
            <path id="Rectangle_204" d="M0 0h1.666v20.776H0z" class="cls-1" data-name="Rectangle 204" transform="translate(-2546.459 3904.528)"/>
        </g>
        <g id="Group_434" data-name="Group 434">
            <path id="Rectangle_205" d="M0 0h1.666v5.314H0z" class="cls-1" data-name="Rectangle 205" transform="translate(-2542.754 3919.991)"/>
        </g>
        <g id="Group_435" data-name="Group 435">
            <path id="Rectangle_206" d="M0 0h1.666v1.666H0z" class="cls-1" data-name="Rectangle 206" transform="translate(-2557.575 3926.97)"/>
        </g>
        <g id="Group_436" data-name="Group 436">
            <path id="Rectangle_207" d="M0 0h1.666v1.666H0z" class="cls-1" data-name="Rectangle 207" transform="translate(-2553.87 3926.97)"/>
        </g>
        <g id="Group_437" data-name="Group 437">
            <path id="Rectangle_208" d="M0 0h1.666v1.666H0z" class="cls-1" data-name="Rectangle 208" transform="translate(-2550.165 3926.97)"/>
        </g>
        <g id="Group_438" data-name="Group 438">
            <path id="Rectangle_209" d="M0 0h1.666v1.666H0z" class="cls-1" data-name="Rectangle 209" transform="translate(-2546.459 3926.97)"/>
        </g>
        <g id="Group_439" data-name="Group 439">
            <path id="Rectangle_210" d="M0 0h1.666v1.666H0z" class="cls-1" data-name="Rectangle 210" transform="translate(-2542.754 3926.97)"/>
        </g>
        <g id="Group_440" data-name="Group 440">
            <path id="Path_192" d="M-2550.717 3903.026h-2.869l-2-7.428h-2.381v-1.666h3.658l2 7.428h.85l2.874-3.189h6.664v1.666h-5.922z" class="cls-1" data-name="Path 192"/>
        </g>
    </g>
</svg>
