<svg xmlns="http://www.w3.org/2000/svg" width="56.858" height="51.917" viewBox="0 0 56.858 51.917">
    <defs>
        <style>
            .cls-1{fill:#1a1a1a}
        </style>
    </defs>
    <g id="Group_423" data-name="Group 423" transform="translate(1844.342 -3885.845)">
        <g id="Group_402" data-name="Group 402">
            <path id="Path_177" d="M-1787.484 3919.471h-56.858v-33.536h12.108v1.672h-10.436v30.193h53.513v-30.191h-11.9v-1.672h13.573z" class="cls-1" data-name="Path 177"/>
        </g>
        <g id="Group_403" data-name="Group 403">
            <path id="Path_178" d="M-1815.913 3914.033a11.342 11.342 0 0 1-11.329-11.329 11.343 11.343 0 0 1 11.329-11.331 11.343 11.343 0 0 1 11.33 11.331 11.342 11.342 0 0 1-11.33 11.329zm0-20.987a9.667 9.667 0 0 0-9.656 9.658 9.667 9.667 0 0 0 9.656 9.656 9.668 9.668 0 0 0 9.657-9.656 9.668 9.668 0 0 0-9.657-9.658z" class="cls-1" data-name="Path 178"/>
        </g>
        <g id="Group_404" data-name="Group 404">
            <path id="Path_179" d="M-1843.505 3895.071v-1.671a6.633 6.633 0 0 0 6.626-6.627h1.673a8.309 8.309 0 0 1-8.299 8.298z" class="cls-1" data-name="Path 179"/>
        </g>
        <g id="Group_405" data-name="Group 405">
            <path id="Path_180" d="M-1788.32 3895.071a8.309 8.309 0 0 1-8.3-8.3h1.673a6.633 6.633 0 0 0 6.626 6.627z" class="cls-1" data-name="Path 180"/>
        </g>
        <g id="Group_406" data-name="Group 406">
            <path id="Path_181" d="M-1794.946 3919.311h-1.673a8.309 8.309 0 0 1 8.3-8.3v1.673a6.633 6.633 0 0 0-6.627 6.627z" class="cls-1" data-name="Path 181"/>
        </g>
        <g id="Group_407" data-name="Group 407">
            <path id="Path_182" d="M-1835.206 3919.311h-1.673a6.633 6.633 0 0 0-6.626-6.627v-1.673a8.309 8.309 0 0 1 8.299 8.3z" class="cls-1" data-name="Path 182"/>
        </g>
        <g id="Group_408" data-name="Group 408">
            <path id="Rectangle_194" d="M0 0h2.508v1.672H0z" class="cls-1" data-name="Rectangle 194" transform="translate(-1798.729 3902.038)"/>
        </g>
        <g id="Group_409" data-name="Group 409">
            <path id="Rectangle_195" d="M0 0h2.508v1.672H0z" class="cls-1" data-name="Rectangle 195" transform="translate(-1835.563 3902.038)"/>
        </g>
        <g id="Group_412" data-name="Group 412">
            <g id="Group_410" data-name="Group 410">
                <path id="Path_183" d="M-1813.877 3937.762h-4.07a.837.837 0 0 1-.83-.729l-.527-4.087a12.281 12.281 0 0 1-2.541-1.06l-3.269 2.519a.836.836 0 0 1-1.1-.07l-2.878-2.877a.839.839 0 0 1-.071-1.1l2.522-3.268a12.18 12.18 0 0 1-1.059-2.541l-4.088-.527a.836.836 0 0 1-.729-.83v-2.046h1.672v1.311l3.917.5a.839.839 0 0 1 .707.637 10.522 10.522 0 0 0 1.3 3.116.837.837 0 0 1-.049.95l-2.417 3.133 1.837 1.839 3.135-2.419a.836.836 0 0 1 .95-.048 10.515 10.515 0 0 0 3.115 1.3.834.834 0 0 1 .636.7l.506 3.918h2.6l.5-3.918a.837.837 0 0 1 .637-.7 10.517 10.517 0 0 0 3.115-1.3.833.833 0 0 1 .95.049l3.135 2.418 1.837-1.839-2.417-3.133a.837.837 0 0 1-.049-.95 10.519 10.519 0 0 0 1.3-3.116.836.836 0 0 1 .707-.637l3.917-.5v-1.311h1.672v2.046a.837.837 0 0 1-.729.83l-4.088.527a12.173 12.173 0 0 1-1.059 2.541l2.522 3.268a.838.838 0 0 1-.072 1.1l-2.877 2.877a.835.835 0 0 1-1.1.07l-3.27-2.519a12.192 12.192 0 0 1-2.541 1.058l-.527 4.087a.837.837 0 0 1-.832.731z" class="cls-1" data-name="Path 183"/>
            </g>
            <g id="Group_411" data-name="Group 411">
                <path id="Path_184" d="M-1815.913 3927.63a6.493 6.493 0 0 1-6.486-6.487h1.672a4.82 4.82 0 0 0 4.814 4.815 4.82 4.82 0 0 0 4.814-4.815h1.673a6.494 6.494 0 0 1-6.487 6.487z" class="cls-1" data-name="Path 184"/>
            </g>
        </g>
        <g id="Group_417" data-name="Group 417">
            <g id="Group_414" data-name="Group 414">
                <g id="Group_413" data-name="Group 413">
                    <path id="Path_185" d="M-1802.729 3886.772l-1.853.926v-1.853l1.853.927z" class="cls-1" data-name="Path 185"/>
                </g>
            </g>
            <g id="Group_415" data-name="Group 415">
                <path id="Rectangle_196" d="M0 0h19.291v1.672H0z" class="cls-1" data-name="Rectangle 196" transform="translate(-1825.545 3885.937)"/>
            </g>
            <g id="Group_416" data-name="Group 416">
                <path id="Rectangle_197" d="M0 0h3.345v1.672H0z" class="cls-1" data-name="Rectangle 197" transform="translate(-1830.562 3885.937)"/>
            </g>
        </g>
        <g id="Group_422" data-name="Group 422">
            <g id="Group_418" data-name="Group 418">
                <path id="Path_186" d="M-1815.913 3908.55a3.616 3.616 0 0 1-3.831-3.341h1.672a1.964 1.964 0 0 0 2.159 1.669 1.965 1.965 0 0 0 2.16-1.669c0-1.029-.828-1.669-2.16-1.669-2.646 0-3.831-1.679-3.831-3.343a3.616 3.616 0 0 1 3.831-3.341 3.616 3.616 0 0 1 3.832 3.341h-1.672a1.965 1.965 0 0 0-2.16-1.669 1.963 1.963 0 0 0-2.159 1.669c0 1.061.787 1.671 2.159 1.671 2.256 0 3.832 1.373 3.832 3.341a3.616 3.616 0 0 1-3.832 3.341z" class="cls-1" data-name="Path 186"/>
            </g>
            <g id="Group_421" data-name="Group 421">
                <g id="Group_419" data-name="Group 419">
                    <path id="Rectangle_198" d="M0 0h1.672v2.961H0z" class="cls-1" data-name="Rectangle 198" transform="translate(-1816.749 3894.731)"/>
                </g>
                <g id="Group_420" data-name="Group 420">
                    <path id="Rectangle_199" d="M0 0h1.672v2.962H0z" class="cls-1" data-name="Rectangle 199" transform="translate(-1816.749 3907.714)"/>
                </g>
            </g>
        </g>
    </g>
</svg>
