<?xml version="1.0" encoding="iso-8859-1"?>
<!-- Generator: Adobe Illustrator 16.0.3, SVG Export Plug-In . SVG Version: 6.00 Build 0)  -->
<!DOCTYPE svg PUBLIC "-//W3C//DTD SVG 1.1//EN" "http://www.w3.org/Graphics/SVG/1.1/DTD/svg11.dtd">
<svg version="1.1" id="Layer_1" xmlns="http://www.w3.org/2000/svg" xmlns:xlink="http://www.w3.org/1999/xlink" x="0px" y="0px"
	 width="25px" height="25px" viewBox="0 0 25 25" style="enable-background:new 0 0 25 25;" xml:space="preserve">
<path style="fill:#7EC247;" d="M25,22c0,1.657-1.343,3-3,3H3c-1.657,0-3-1.343-3-3V3c0-1.657,1.343-3,3-3h19c1.657,0,3,1.343,3,3V22
	z"/>
<g>
	<path style="fill:#F2F2F2;" d="M12.541,14.166c0,0.774-0.223,1.356-0.668,1.748c-0.445,0.391-1.066,0.586-1.864,0.586h-4.11v-1.393
		h4.378c0.248,0,0.453-0.096,0.615-0.286c0.163-0.188,0.244-0.419,0.244-0.69c0-0.255-0.081-0.478-0.244-0.667
		s-0.368-0.284-0.615-0.284H8.024c-0.465,0-0.857-0.07-1.179-0.209c-0.321-0.14-0.581-0.321-0.778-0.546
		c-0.197-0.224-0.34-0.474-0.429-0.748c-0.089-0.275-0.134-0.548-0.134-0.819c0-0.325,0.047-0.629,0.139-0.911
		c0.093-0.283,0.242-0.532,0.448-0.75C6.295,8.98,6.557,8.81,6.874,8.685C7.192,8.562,7.575,8.5,8.024,8.5h3.994v1.405H7.803
		c-0.124,0-0.24,0.024-0.349,0.076c-0.108,0.05-0.203,0.118-0.284,0.203s-0.147,0.183-0.197,0.296
		c-0.05,0.112-0.075,0.23-0.075,0.354c0,0.263,0.089,0.486,0.267,0.667c0.178,0.182,0.395,0.273,0.65,0.273h2.218
		c0.774,0,1.385,0.195,1.834,0.586c0.449,0.391,0.674,0.974,0.674,1.747V14.166z"/>
	<path style="fill:#F2F2F2;" d="M17.104,16.5c-0.587,0-1.102-0.081-1.544-0.243c-0.44-0.163-0.811-0.396-1.109-0.698
		c-0.297-0.302-0.52-0.665-0.667-1.091s-0.222-0.9-0.222-1.428V8.5h1.406v4.552c0,0.649,0.184,1.154,0.553,1.515
		c0.366,0.36,0.879,0.541,1.538,0.541h2.438V16.5H17.104z"/>
</g>
</svg>
