<?xml version="1.0" encoding="utf-8"?>
<!-- Generator: Adobe Illustrator 24.2.3, SVG Export Plug-In . SVG Version: 6.00 Build 0)  -->
<svg version="1.1" id="Layer_1" xmlns="http://www.w3.org/2000/svg" xmlns:xlink="http://www.w3.org/1999/xlink" x="0px" y="0px"
	 viewBox="0 0 227.3 112.7" style="enable-background:new 0 0 227.3 112.7;" width="227.3" height="112.7" xml:space="preserve">
<style type="text/css">
	.st0{fill:#000;}
	.st1{fill:#D79C4B;}
</style>
<g>
	<g id="Group_17" transform="translate(-426.857 -38.618)">
		<g id="Group_15">
			<path id="Path_9" class="st0" d="M450.6,87.1h-12.4v14.2h-11.4v-38h27.5v9.1h-16.1v6.2h12.4L450.6,87.1L450.6,87.1z"/>
			<path id="Path_10" class="st0" d="M468.1,72.4v28.9H457V72.4H468.1z"/>
			<path id="Path_11" class="st0" d="M498.5,101.3h-11.1V83.5c0-1.5-0.2-2.4-0.7-2.8c-0.5-0.4-1.1-0.6-1.7-0.6c-2,0-3,1.4-3,4.2v17
				h-11.1V73h10.3v4c1.5-3.1,4.2-4.6,8.2-4.6c1.8-0.1,3.6,0.3,5.2,1.2c1.3,0.7,2.4,1.7,3,3.1c0.6,1.2,0.9,3.4,0.9,6.5L498.5,101.3
				L498.5,101.3z"/>
			<path id="Path_12" class="st0" d="M530.4,110.3h-11v-12c-1.2,2.4-3.4,3.6-6.7,3.6c-3.3,0.2-6.5-1.4-8.5-4.1
				c-2.1-3.1-3.2-6.8-3-10.6c-0.1-3.8,1-7.4,3.1-10.5c2.1-2.9,5.2-4.3,9.4-4.3c4.1,0,6.9,1.5,8.6,4.4c0.7-1.2,1.3-2.5,1.8-3.8h6.4
				c-0.2,1.3-0.3,2.6-0.3,3.8L530.4,110.3L530.4,110.3z M519.4,83.4c0.1-1.2-0.3-2.3-0.9-3.3c-0.5-0.7-1.3-1.1-2.2-1.2
				c-1.2,0-2.3,0.7-2.7,1.8c-0.6,1.2-0.9,3.3-0.9,6.6s0.3,5.3,0.9,6.4c0.5,0.9,1.4,1.5,2.5,1.6c0.9,0,1.7-0.3,2.3-0.9
				c0.8-0.9,1.2-2,1.1-3.2V83.4z"/>
			<path id="Path_13" class="st0" d="M565.5,89.9l9.5,0.8c-0.3,3.1-1.8,6-4.2,8.1c-2.6,2.2-5.9,3.3-9.3,3.1
				c-7.7,0.4-14.2-5.6-14.6-13.3c0-0.4,0-0.9,0-1.3c-0.1-4,1.3-7.8,4-10.7c2.7-2.8,6.5-4.4,10.5-4.2c3.4-0.1,6.7,1,9.3,3.2
				c2.4,2.1,3.8,4.9,4.1,8.1l-9.7,0.8c-0.4-3-1.6-4.5-3.4-4.5c-1.1,0-2.2,0.6-2.6,1.6c-0.6,1.1-0.8,3-0.8,5.7
				c-0.1,1.8,0.2,3.5,0.8,5.2c0.5,1.1,1.6,1.8,2.9,1.7C564,94.1,565.2,92.7,565.5,89.9L565.5,89.9z"/>
			<path id="Path_14" class="st0" d="M592.6,101.9c-4.7,0-8.4-1.5-11.2-4.4c-2.7-2.8-4.2-6.5-4.1-10.3c-0.1-4,1.5-7.8,4.3-10.6
				c3-2.9,7.1-4.4,11.3-4.2c4.7,0,8.4,1.4,11.2,4.2c5.7,5.9,5.7,15.2-0.1,21.1C601.2,100.5,597.4,101.9,592.6,101.9z M592.8,95.2
				c1.6,0.1,3-1.1,3.2-2.7c0.4-1.8,0.6-3.7,0.6-5.6c0.1-1.9-0.2-3.9-0.8-5.7c-0.5-1.1-1.7-1.8-2.9-1.8c-1.2,0-2.3,0.7-2.8,1.8
				c-0.7,1.9-1,3.9-0.9,6c0,3.2,0.3,5.4,0.9,6.4C590.6,94.6,591.7,95.2,592.8,95.2z"/>
			<path id="Path_15" class="st0" d="M654.1,101.3h-10.8V83.6c0.1-0.9-0.1-1.7-0.5-2.5c-0.5-0.5-1.1-0.8-1.8-0.7
				c-2.1,0-3.1,1.5-3.1,4.6v16.4h-10.7V83.6c0-2.3-0.9-3.4-2.6-3.4c-1.8,0-2.7,1.1-2.7,3.4v17.7h-10.7V73h10v3.8
				c1.6-2.8,4.6-4.5,7.8-4.4c3.3-0.2,6.4,1.5,8,4.4c1.8-2.9,4.7-4.4,8.5-4.4c1.7,0,3.3,0.4,4.8,1.1c1.3,0.6,2.3,1.7,3,2.9
				c0.7,1.8,1,3.7,0.9,5.6L654.1,101.3L654.1,101.3z"/>
			<circle id="Ellipse_1" class="st1" cx="538.9" cy="96.2" r="5.1"/>
			<circle id="Ellipse_2" class="st1" cx="462.4" cy="64.7" r="5.1"/>
			<g id="Group_14">
				<path id="Path_16" class="st1" d="M463,56c2.8-2,5.7-3.7,8.7-5.2c3-1.5,6.2-2.8,9.4-4c3.2-1.2,6.4-2.2,9.7-3.1
					c1.6-0.4,3.3-0.9,4.9-1.2s3.3-0.7,5-1s3.3-0.6,5-0.9s3.4-0.5,5.1-0.7c3.4-0.4,6.8-0.7,10.2-0.8l2.6-0.1c0.9,0,1.7-0.1,2.6-0.1
					c1.7,0,3.4,0,5.1,0c3.4,0,6.8,0.2,10.2,0.4c0.9,0,1.7,0.1,2.6,0.2l1.3,0.1l1.3,0.1c1.7,0.2,3.4,0.4,5.1,0.6
					c3.4,0.4,6.7,1,10.1,1.7c1.7,0.3,3.3,0.7,5,1.1c0.8,0.2,1.7,0.4,2.5,0.6c0.8,0.2,1.6,0.4,2.4,0.7c3.3,1,6.5,2,9.7,3.2
					c3.2,1.2,6.3,2.6,9.4,4s6.1,3.1,9,4.8c2.9,1.7,5.7,3.6,8.5,5.7c2.7,2,5.3,4.2,7.7,6.6c-1.2-1.1-2.6-2.2-3.9-3.2s-2.7-2-4.1-2.9
					c-2.8-1.9-5.7-3.6-8.6-5.2c-2.9-1.6-6-3.1-9-4.5c-3.1-1.4-6.2-2.6-9.3-3.8s-6.4-2.1-9.6-3c-3.2-0.9-6.5-1.7-9.8-2.3
					s-6.6-1.2-9.9-1.6s-6.7-0.7-10-0.9c-13.4-1-26.9-0.4-40.2,1.7c-6.6,1.1-13.2,2.6-19.6,4.7c-1.6,0.5-3.2,1.1-4.8,1.7
					c-1.6,0.6-3.1,1.2-4.7,1.9c-1.6,0.7-3.1,1.4-4.6,2.2C465.9,54.2,464.4,55.1,463,56L463,56z"/>
			</g>
		</g>
	</g>
	<g>
		<path class="st0" d="M13.1,103.7c-0.6,0-1.2-0.1-1.7-0.2c-0.5-0.1-0.9-0.4-1.3-0.7c-0.4-0.3-0.7-0.8-0.9-1.3
			c-0.2-0.6-0.4-1.3-0.6-2.2H8.5c-0.1,0.2-0.3,0.4-0.4,0.6c-0.2,0.2-0.3,0.4-0.5,0.5c-0.2,0.2-0.4,0.3-0.6,0.4
			C6.8,101,6.6,101,6.5,101c-1.7,0-2.9-0.2-3.8-0.5c-0.9-0.3-1.3-0.8-1.3-1.5c0-0.2,0-0.4,0.1-0.6c0.1-0.2,0.2-0.5,0.3-0.7
			C1.8,97.5,2,97.2,2.1,97c0.1-0.3,0.3-0.5,0.5-0.7C2.7,96.1,2.8,96,3,95.8c0.2-0.2,0.4-0.4,0.7-0.6s0.6-0.4,1-0.7
			C5,94.3,5.5,94,6.1,93.8l1.9-1c0-0.2,0-0.5-0.1-0.7c0-0.3,0-0.5,0-0.6c0-0.2,0-0.5,0.1-0.7c0.1-0.2,0.2-0.4,0.3-0.7
			c0.1-0.2,0.2-0.4,0.3-0.5c0.1-0.1,0.2-0.2,0.3-0.2C9,89.4,9,89.5,9,89.6c0.1,1.5,0.3,2.9,0.4,4.3s0.3,2.8,0.5,4.3
			c0.1,0.7,0.2,1.3,0.4,1.8c0.2,0.5,0.4,0.8,0.7,1.1c0.3,0.3,0.6,0.5,1,0.6s0.8,0.2,1.3,0.2L13.1,103.7z M8.4,98.3
			c-0.1-0.7-0.1-1.5-0.2-2.3c-0.1-0.8-0.1-1.6-0.2-2.3H8c-0.2,0.2-0.3,0.4-0.5,0.6S7,94.6,6.8,94.8c-1.2,0.7-2.1,1.4-2.7,1.9
			c-0.6,0.6-1,1-1.1,1.2c0.1,0.2,0.3,0.3,0.6,0.5c0.3,0.1,0.5,0.2,0.8,0.3c0.3,0.1,0.6,0.2,0.9,0.2C5.6,99,5.9,99,6.1,99
			c0.3,0,0.7,0,1.1-0.1S8.1,98.6,8.4,98.3z M3.8,85.7c0.1-0.2,0.3-0.3,0.4-0.5c0.1-0.1,0.3-0.2,0.4-0.2c0.1,0,0.2,0,0.4,0.1
			c0.1,0.1,0.3,0.2,0.5,0.3c0.4,0.3,0.6,0.6,0.6,0.9c0,0.1,0,0.2-0.1,0.4C6.1,87,6,87.1,5.8,87.3c-0.1,0.2-0.3,0.4-0.4,0.5
			C5.3,87.9,5.1,88,4.9,88c-0.1,0-0.2,0-0.3-0.1c-0.1-0.1-0.3-0.2-0.5-0.3c-0.2-0.1-0.3-0.3-0.5-0.5c-0.1-0.2-0.2-0.3-0.2-0.5
			c0-0.1,0-0.2,0.1-0.4S3.7,85.9,3.8,85.7z M6.9,85.5c0.1-0.2,0.3-0.3,0.4-0.5s0.3-0.2,0.4-0.2c0.1,0,0.2,0,0.4,0.1
			c0.1,0.1,0.3,0.2,0.5,0.3c0.4,0.3,0.6,0.6,0.6,1c0,0.1,0,0.2-0.1,0.4c-0.1,0.1-0.1,0.3-0.3,0.5c-0.2,0.2-0.3,0.4-0.4,0.5
			S8.1,87.7,8,87.7c-0.1,0-0.2,0-0.3-0.1s-0.3-0.2-0.5-0.3c-0.2-0.2-0.3-0.3-0.5-0.5c-0.1-0.2-0.2-0.3-0.2-0.5c0-0.1,0-0.2,0.1-0.4
			C6.6,85.9,6.7,85.7,6.9,85.5z"/>
		<path class="st0" d="M21.8,103.7c-0.4,0-0.8,0-1.2-0.1c-0.4-0.1-0.7-0.3-1-0.5c-0.3-0.2-0.6-0.5-0.9-0.8c-0.2-0.3-0.4-0.7-0.6-1.2
			h-0.1c-0.1,0.1-0.1,0.2-0.2,0.4s-0.2,0.3-0.3,0.4c-0.1,0.1-0.2,0.2-0.3,0.3c-0.1,0.1-0.2,0.2-0.2,0.3c-0.2,0.2-0.5,0.4-0.8,0.5
			c-0.3,0.2-0.7,0.3-1,0.4c-0.4,0.1-0.7,0.2-1.1,0.3c-0.4,0.1-0.7,0.1-1.1,0.1c-0.1,0-0.3,0-0.4-0.1c-0.2,0-0.3-0.1-0.4-0.1
			c-0.1-0.1-0.3-0.1-0.3-0.2c-0.1-0.1-0.1-0.2-0.1-0.3v-0.5c0-0.1,0-0.2,0.1-0.3s0.2-0.1,0.4-0.2c0.2,0,0.3-0.1,0.5-0.1
			c0.2,0,0.4,0,0.5,0c0.3,0,0.6,0,0.9-0.1c0.3-0.1,0.6-0.1,0.9-0.2c0.3-0.1,0.6-0.2,0.8-0.3s0.4-0.3,0.6-0.4
			c0.2-0.2,0.3-0.4,0.5-0.6c0.1-0.3,0.3-0.6,0.4-0.9s0.2-0.7,0.3-1.1c0.1-0.4,0.2-0.8,0.3-1.1c0-0.1,0-0.2,0.1-0.2s0.1-0.1,0.1-0.1
			c0.1,0,0.2-0.1,0.3-0.1c0.1,0,0.3,0,0.5,0c0.1,0,0.2,0,0.2,0.1s0.1,0.1,0.1,0.2c0,0.1,0,0.2-0.1,0.4s-0.1,0.4-0.1,0.6
			C19,98,19,98.2,18.9,98.4c-0.1,0.2-0.1,0.4-0.1,0.6c0.1,0.9,0.4,1.6,1,2.1c0.6,0.5,1.3,0.7,2.3,0.7L21.8,103.7z M12.1,107.3
			c0.1-0.2,0.3-0.3,0.4-0.5c0.1-0.1,0.3-0.2,0.4-0.2c0.1,0,0.2,0,0.4,0.1c0.1,0.1,0.3,0.2,0.5,0.3c0.4,0.3,0.6,0.6,0.6,0.9
			c0,0.1,0,0.2-0.1,0.4c-0.1,0.1-0.2,0.3-0.3,0.5c-0.1,0.2-0.3,0.4-0.4,0.5c-0.1,0.1-0.3,0.2-0.5,0.2c-0.1,0-0.2,0-0.3-0.1
			c-0.1-0.1-0.3-0.2-0.5-0.3c-0.2-0.1-0.3-0.3-0.5-0.5c-0.1-0.2-0.2-0.3-0.2-0.5c0-0.1,0-0.2,0.1-0.4
			C11.9,107.7,12,107.5,12.1,107.3z M15.1,107.1c0.1-0.2,0.3-0.3,0.4-0.5s0.3-0.2,0.4-0.2c0.1,0,0.2,0,0.4,0.1
			c0.1,0.1,0.3,0.2,0.5,0.3c0.4,0.3,0.6,0.6,0.6,1c0,0.1,0,0.2-0.1,0.4c-0.1,0.1-0.1,0.3-0.3,0.5c-0.2,0.2-0.3,0.4-0.4,0.5
			c-0.1,0.1-0.3,0.2-0.5,0.2c-0.1,0-0.2,0-0.3-0.1c-0.1-0.1-0.3-0.2-0.5-0.3c-0.2-0.2-0.3-0.3-0.5-0.5s-0.2-0.3-0.2-0.5
			c0-0.1,0-0.2,0.1-0.4C14.9,107.5,15,107.3,15.1,107.1z"/>
		<path class="st0" d="M35.6,103.7c-0.4,0-0.7,0-1-0.1c-0.3-0.1-0.6-0.1-0.8-0.3s-0.5-0.3-0.7-0.5c-0.2-0.2-0.4-0.4-0.7-0.7
			c-0.1,0.3-0.2,0.5-0.3,0.7c-0.1,0.2-0.3,0.4-0.4,0.6c-0.1,0.2-0.3,0.3-0.4,0.4c-0.2,0.1-0.3,0.2-0.5,0.2c-0.5,0-0.9-0.1-1.4-0.2
			c-0.4-0.1-0.9-0.3-1.3-0.6c-0.4-0.3-0.9-0.5-1.3-0.9s-0.8-0.7-1.2-1c-0.2,0.5-0.5,0.9-0.8,1.2c-0.3,0.3-0.6,0.5-0.9,0.7
			c-0.3,0.2-0.7,0.3-1,0.4c-0.4,0.1-0.7,0.1-1.1,0.1c-0.1,0-0.3,0-0.4-0.1c-0.2,0-0.3-0.1-0.4-0.1c-0.1-0.1-0.3-0.1-0.3-0.2
			c-0.1-0.1-0.1-0.2-0.1-0.3v-0.5c0-0.1,0-0.2,0.1-0.3s0.2-0.1,0.4-0.2c0.2,0,0.3-0.1,0.5-0.1c0.2,0,0.4,0,0.5,0
			c0.7,0,1.2-0.1,1.8-0.3c0.5-0.2,0.9-0.6,1.2-1.2c0.2-0.4,0.3-0.7,0.5-1c0.2-0.3,0.3-0.7,0.5-1c0.4-0.9,0.8-1.6,1.3-2
			s1.1-0.7,1.7-0.7c0.4,0,0.8,0.1,1.1,0.4c0.3,0.2,0.6,0.6,0.9,1s0.6,0.9,0.9,1.4c0.3,0.5,0.6,1.1,1,1.7c0.2,0.4,0.4,0.7,0.6,0.9
			s0.4,0.5,0.6,0.6c0.2,0.1,0.5,0.2,0.8,0.3s0.6,0.1,1,0.1L35.6,103.7z M30.5,101.9c0.2,0,0.3-0.1,0.5-0.3c0.1-0.2,0.2-0.4,0.2-0.7
			c-0.1-0.3-0.2-0.7-0.3-1.1s-0.3-0.8-0.5-1.1c-0.2-0.4-0.5-0.7-0.7-0.9s-0.6-0.5-0.9-0.5c-0.3,0-0.5,0.1-0.7,0.2
			c-0.2,0.1-0.4,0.3-0.6,0.6c-0.2,0.2-0.3,0.5-0.5,0.8c-0.1,0.3-0.2,0.6-0.3,0.9c0.3,0.3,0.6,0.6,0.9,0.9s0.7,0.5,1,0.7
			c0.4,0.2,0.7,0.4,1,0.5C29.9,101.8,30.2,101.9,30.5,101.9z"/>
		<path class="st0" d="M40,88.2c0.1,0.8,0.1,1.7,0.2,2.7s0.2,1.8,0.2,2.7c0.1,0.9,0.1,1.8,0.2,2.6s0.1,1.6,0.1,2.2
			c0,0.5,0,0.9-0.1,1.3c-0.1,0.4-0.2,0.8-0.3,1.2s-0.3,0.7-0.4,1s-0.3,0.5-0.4,0.6c-0.4,0.4-0.9,0.7-1.6,0.9
			c-0.7,0.2-1.4,0.3-2.2,0.3c-0.1,0-0.3,0-0.4-0.1c-0.2,0-0.3-0.1-0.4-0.1c-0.1-0.1-0.3-0.1-0.3-0.2c-0.1-0.1-0.1-0.2-0.1-0.3v-0.5
			c0-0.1,0-0.2,0.1-0.3s0.2-0.1,0.4-0.2c0.2,0,0.3-0.1,0.5-0.1c0.2,0,0.4,0,0.5,0c0.9,0,1.6-0.1,2.3-0.3s1.1-0.6,1.4-1
			c0-0.3,0-0.6,0-0.9c0-0.3,0-0.6,0-0.9c-0.1-0.9-0.2-1.8-0.3-2.7c-0.1-0.9-0.2-1.8-0.3-2.7c-0.1-0.9-0.2-1.7-0.2-2.5
			s-0.1-1.6-0.2-2.3c0-0.1,0-0.2,0-0.4c0-0.2,0-0.3,0-0.4c-0.2-0.2-0.3-0.4-0.4-0.6C38,86.7,38,86.5,38,86.3c0-0.3,0.1-0.7,0.3-1.1
			c0.2-0.4,0.4-0.9,0.7-1.3c0-0.1,0.1-0.1,0.2-0.1c0,0,0.1,0,0.1,0s0,0,0,0.1c0,0.2,0,0.3,0.1,0.5c0,0.1,0.1,0.3,0.2,0.4
			c0.1,0.1,0.2,0.3,0.4,0.5s0.4,0.4,0.6,0.6c0.1,0.1,0.2,0.2,0.2,0.3c0,0.1,0.1,0.2,0.1,0.3c0,0.1,0,0.3-0.1,0.5
			c-0.1,0.2-0.1,0.4-0.2,0.5c-0.1,0.2-0.2,0.3-0.3,0.5S40.1,88.1,40,88.2z"/>
		<path class="st0" d="M49.8,103.7c-0.8,0-1.4-0.1-1.9-0.3c-0.5-0.2-1-0.5-1.3-0.9s-0.6-1-0.8-1.6s-0.3-1.4-0.4-2.4
			c-0.1-1.9-0.2-3.8-0.3-5.7c-0.1-1.9-0.2-3.8-0.4-5.7c0-0.3,0-0.7,0.1-1c0.1-0.3,0.2-0.6,0.3-0.9c0.1-0.3,0.2-0.5,0.3-0.7
			c0.1-0.2,0.2-0.3,0.3-0.3c0.1,0,0.2,0.1,0.2,0.2c0.1,0.4,0.2,0.9,0.2,1.5c0.1,0.6,0.1,1.2,0.1,1.8l0.5,10.3c0,0.6,0.1,1.2,0.3,1.7
			c0.2,0.5,0.4,0.9,0.7,1.2c0.3,0.3,0.6,0.5,1,0.7s0.8,0.2,1.2,0.2L49.8,103.7z"/>
		<path class="st0" d="M63.6,103.7c-1.5,0-2.7-0.2-3.7-0.6c-1-0.4-1.9-1-2.7-1.8c-0.6,0.4-1.1,0.7-1.7,1c-0.6,0.3-1.1,0.5-1.7,0.7
			c-0.6,0.2-1.2,0.4-1.9,0.5c-0.6,0.1-1.3,0.2-2,0.2c-0.1,0-0.3,0-0.4-0.1c-0.2,0-0.3-0.1-0.4-0.1c-0.1-0.1-0.3-0.1-0.3-0.2
			c-0.1-0.1-0.1-0.2-0.1-0.3v-0.5c0-0.1,0-0.2,0.1-0.3s0.2-0.1,0.4-0.2c0.2,0,0.3-0.1,0.5-0.1c0.2,0,0.4,0,0.5,0
			c0.8,0,1.5-0.1,2.1-0.2c0.6-0.1,1.2-0.3,1.7-0.5c0.5-0.2,0.9-0.4,1.3-0.6s0.7-0.4,0.9-0.6c-0.2-0.1-0.4-0.3-0.6-0.4
			s-0.4-0.3-0.6-0.4c-0.2-0.1-0.4-0.2-0.6-0.3s-0.4-0.1-0.6-0.1c-0.1,0-0.2,0-0.3,0.1c-0.1,0.1-0.2,0.1-0.4,0.1
			c-0.2,0-0.3-0.1-0.3-0.4c0-0.1,0-0.2,0-0.4c0-0.2,0.1-0.4,0.1-0.6c0.1-0.2,0.1-0.4,0.2-0.6c0.1-0.2,0.2-0.3,0.4-0.4
			c0.3-0.2,0.7-0.5,1.2-0.7c0.5-0.2,1-0.3,1.6-0.3c0.4,0,0.9,0.1,1.4,0.2c0.5,0.1,0.9,0.3,1.3,0.5c0.4,0.2,0.7,0.4,1,0.7
			c0.3,0.3,0.4,0.6,0.4,0.9c0,0.2,0,0.4-0.1,0.6c-0.1,0.2-0.2,0.5-0.3,0.7c-0.1,0.2-0.3,0.5-0.5,0.7c-0.2,0.2-0.5,0.4-0.8,0.6
			c0.2,0.2,0.5,0.5,0.9,0.6c0.4,0.2,0.8,0.3,1.2,0.4s1,0.2,1.5,0.3c0.5,0.1,1.1,0.1,1.6,0.1L63.6,103.7z"/>
		<path class="st0" d="M68,88.2c0.1,0.8,0.1,1.7,0.2,2.7s0.2,1.8,0.2,2.7c0.1,0.9,0.1,1.8,0.2,2.6s0.1,1.6,0.1,2.2
			c0,0.5,0,0.9-0.1,1.3c-0.1,0.4-0.2,0.8-0.3,1.2s-0.3,0.7-0.4,1s-0.3,0.5-0.4,0.6c-0.4,0.4-0.9,0.7-1.6,0.9
			c-0.7,0.2-1.4,0.3-2.2,0.3c-0.1,0-0.3,0-0.4-0.1c-0.2,0-0.3-0.1-0.4-0.1c-0.1-0.1-0.3-0.1-0.3-0.2c-0.1-0.1-0.1-0.2-0.1-0.3v-0.5
			c0-0.1,0-0.2,0.1-0.3s0.2-0.1,0.4-0.2c0.2,0,0.3-0.1,0.5-0.1c0.2,0,0.4,0,0.5,0c0.9,0,1.6-0.1,2.3-0.3s1.1-0.6,1.4-1
			c0-0.3,0-0.6,0-0.9c0-0.3,0-0.6,0-0.9c-0.1-0.9-0.2-1.8-0.3-2.7c-0.1-0.9-0.2-1.8-0.3-2.7c-0.1-0.9-0.2-1.7-0.2-2.5
			s-0.1-1.6-0.2-2.3c0-0.1,0-0.2,0-0.4c0-0.2,0-0.3,0-0.4c-0.2-0.2-0.3-0.4-0.4-0.6C66,86.7,66,86.5,66,86.3c0-0.3,0.1-0.7,0.3-1.1
			c0.2-0.4,0.4-0.9,0.7-1.3c0-0.1,0.1-0.1,0.2-0.1c0,0,0.1,0,0.1,0s0,0,0,0.1c0,0.2,0,0.3,0.1,0.5c0,0.1,0.1,0.3,0.2,0.4
			c0.1,0.1,0.2,0.3,0.4,0.5s0.4,0.4,0.6,0.6c0.1,0.1,0.2,0.2,0.2,0.3c0,0.1,0.1,0.2,0.1,0.3c0,0.1,0,0.3-0.1,0.5
			c-0.1,0.2-0.1,0.4-0.2,0.5c-0.1,0.2-0.2,0.3-0.3,0.5S68.1,88.1,68,88.2z"/>
		<path class="st0" d="M74.3,103.4c0,0.1,0,0.1-0.1,0.1c0,0-0.1,0-0.2,0c-0.1,0-0.2,0-0.2,0c0,0-0.1-0.1-0.1-0.1c0-0.2,0-0.4,0-0.7
			c0-0.3,0-0.6,0-1c0-0.8-0.1-1.6-0.1-2.5c-0.1-0.9-0.1-1.7-0.2-2.6s-0.2-1.8-0.2-2.6c-0.1-0.9-0.2-1.7-0.2-2.5s-0.1-1.5-0.2-2.2
			s-0.1-1.3-0.1-1.8c0-0.3,0-0.5,0.1-0.8c0.1-0.3,0.2-0.6,0.3-0.8c0.1-0.2,0.2-0.4,0.3-0.6c0.1-0.1,0.2-0.2,0.3-0.2
			c0.1,0,0.1,0,0.1,0.1c0,0.7,0.1,1.5,0.2,2.3c0.1,0.8,0.1,1.7,0.2,2.6c0.1,0.9,0.1,1.8,0.2,2.7s0.1,1.7,0.2,2.5s0.1,1.5,0.1,2.2
			c0,0.7,0.1,1.2,0.1,1.6c0,1.2-0.1,2.1-0.2,2.8C74.5,102.6,74.4,103.1,74.3,103.4z"/>
		<path class="st0" d="M100,99.1c-0.2,0.3-0.4,0.6-0.8,0.9c-0.4,0.2-0.8,0.4-1.4,0.4c-0.6,0-1.1-0.1-1.5-0.2s-0.9-0.3-1.2-0.6
			s-0.6-0.6-0.8-0.9c-0.2-0.4-0.3-0.8-0.3-1.2c0-0.8,0.1-1.5,0.4-2.2c0.2-0.7,0.6-1.2,0.9-1.7s0.8-0.9,1.2-1.1s0.8-0.4,1.2-0.4
			c0.6,0,1.1,0.2,1.6,0.6s0.9,1,1.3,1.6c0.3,0.7,0.6,1.4,0.8,2.3c0.2,0.8,0.3,1.7,0.3,2.5c0,1-0.1,1.9-0.3,2.8s-0.4,1.5-0.7,2.1
			c-0.3,0.5-0.8,1.1-1.3,1.6c-0.6,0.6-1.2,1.1-2,1.5s-1.7,0.8-2.7,1.1c-1,0.3-2.1,0.5-3.3,0.5c-1.3,0-2.3-0.2-3.1-0.5
			s-1.5-0.8-2-1.4c-0.5-0.6-0.9-1.3-1.1-2c-0.2-0.7-0.3-1.5-0.3-2.2c0-0.6,0-1.2,0.1-1.7c0.1-0.5,0.2-1.1,0.3-1.6s0.3-0.9,0.5-1.4
			c0.2-0.4,0.3-0.8,0.5-1.2c0.1-0.2,0.2-0.4,0.3-0.5c0.1-0.1,0.2-0.1,0.5-0.1c0.2,0,0.3,0,0.4,0.1c0.1,0,0.1,0.1,0.1,0.2
			c0,0.1-0.1,0.3-0.2,0.6c-0.1,0.3-0.3,0.7-0.4,1.1c-0.1,0.5-0.3,1-0.4,1.5c-0.1,0.6-0.2,1.1-0.2,1.6c0,1,0.1,1.8,0.4,2.4
			s0.7,1.2,1.1,1.7c0.5,0.4,1.1,0.7,1.7,0.9c0.7,0.2,1.4,0.3,2.2,0.3c0.9,0,1.8-0.1,2.6-0.4c0.9-0.3,1.7-0.6,2.5-1
			c0.8-0.4,1.5-0.9,2.1-1.4c0.6-0.5,1.1-1.1,1.5-1.7c0-0.2,0-0.5,0-0.8c0-0.3,0-0.6,0-0.8c0-0.2-0.1-0.5-0.1-0.7
			c0-0.3-0.1-0.5-0.2-0.7H100z M94.2,87.4c0.1-0.2,0.3-0.3,0.4-0.5s0.3-0.2,0.4-0.2c0.1,0,0.2,0,0.4,0.1s0.3,0.2,0.5,0.3
			c0.4,0.3,0.6,0.6,0.6,0.9c0,0.1,0,0.2-0.1,0.4c-0.1,0.1-0.2,0.3-0.3,0.5c-0.1,0.2-0.3,0.4-0.4,0.5c-0.1,0.1-0.3,0.2-0.5,0.2
			c-0.1,0-0.2,0-0.3-0.1c-0.1-0.1-0.3-0.2-0.5-0.3c-0.2-0.1-0.4-0.3-0.5-0.5c-0.1-0.2-0.2-0.3-0.2-0.5c0-0.1,0-0.2,0.1-0.4
			C94,87.8,94.1,87.6,94.2,87.4z M95.3,96.5c0.1,0.5,0.3,0.9,0.8,1.2s1.1,0.5,2,0.5c0.3,0,0.6-0.1,0.8-0.2s0.5-0.3,0.8-0.5
			c-0.1-0.6-0.2-1.1-0.3-1.5c-0.2-0.4-0.4-0.8-0.6-1c-0.2-0.3-0.5-0.5-0.8-0.6c-0.3-0.1-0.6-0.2-0.8-0.2c-0.2,0-0.5,0.1-0.7,0.2
			c-0.2,0.1-0.4,0.3-0.6,0.5c-0.2,0.2-0.3,0.5-0.4,0.7C95.3,96,95.3,96.3,95.3,96.5z M97.2,87.2c0.1-0.2,0.3-0.3,0.4-0.5
			s0.3-0.2,0.4-0.2c0.1,0,0.2,0,0.4,0.1c0.1,0.1,0.3,0.2,0.5,0.3c0.4,0.3,0.6,0.6,0.6,1c0,0.1,0,0.2-0.1,0.4
			c-0.1,0.1-0.1,0.3-0.3,0.5c-0.2,0.2-0.3,0.4-0.4,0.5s-0.3,0.2-0.5,0.2c-0.1,0-0.2,0-0.3-0.1c-0.1-0.1-0.3-0.2-0.5-0.3
			c-0.2-0.2-0.3-0.3-0.5-0.5c-0.1-0.2-0.2-0.3-0.2-0.5c0-0.1,0-0.2,0.1-0.4S97.1,87.4,97.2,87.2z"/>
		<path class="st0" d="M106.9,103.4c0,0.1,0,0.1-0.1,0.1c0,0-0.1,0-0.2,0c-0.1,0-0.2,0-0.2,0c0,0-0.1-0.1-0.1-0.1c0-0.2,0-0.4,0-0.7
			c0-0.3,0-0.6,0-1c0-0.8-0.1-1.6-0.1-2.5c-0.1-0.9-0.1-1.7-0.2-2.6s-0.2-1.8-0.2-2.6c-0.1-0.9-0.2-1.7-0.2-2.5s-0.1-1.5-0.2-2.2
			s-0.1-1.3-0.1-1.8c0-0.3,0-0.5,0.1-0.8c0.1-0.3,0.2-0.6,0.3-0.8c0.1-0.2,0.2-0.4,0.3-0.6c0.1-0.1,0.2-0.2,0.3-0.2
			c0.1,0,0.1,0,0.1,0.1c0,0.7,0.1,1.5,0.2,2.3c0.1,0.8,0.1,1.7,0.2,2.6c0.1,0.9,0.1,1.8,0.2,2.7s0.1,1.7,0.2,2.5s0.1,1.5,0.1,2.2
			c0,0.7,0.1,1.2,0.1,1.6c0,1.2-0.1,2.1-0.2,2.8C107.1,102.6,107,103.1,106.9,103.4z"/>
		<path class="st0" d="M119.8,103.7c-0.2,1.1-0.5,2.2-0.9,3.3c-0.4,1-1,1.9-1.6,2.7c-0.6,0.8-1.4,1.4-2.2,1.9
			c-0.8,0.5-1.7,0.7-2.7,0.7c-0.5,0-1.1-0.1-1.9-0.2c-0.7-0.1-1.5-0.4-2.4-0.9c-0.2-0.1-0.4-0.2-0.5-0.3c-0.1-0.1-0.1-0.3-0.1-0.5
			c0-0.4,0.1-0.5,0.3-0.5c0.1,0,0.2,0,0.4,0.1c0.2,0.1,0.4,0.2,0.6,0.3s0.5,0.2,0.9,0.3c0.3,0.1,0.7,0.1,1,0.1
			c0.6,0,1.2-0.1,1.9-0.3c0.6-0.2,1.2-0.5,1.8-0.8c0.6-0.3,1.1-0.7,1.6-1.2c0.5-0.5,0.9-0.9,1.3-1.5c0.4-0.5,0.7-1.1,1-1.6
			c0.3-0.6,0.4-1.1,0.5-1.7c-0.3,0-0.7,0-1.2,0c-0.5,0-1-0.1-1.4-0.1c-0.5-0.1-0.9-0.2-1.3-0.3s-0.7-0.4-1-0.6
			c-0.3-0.2-0.5-0.5-0.7-0.9s-0.2-0.7-0.2-1.1c0-0.7,0.1-1.4,0.3-2c0.2-0.6,0.5-1.2,0.8-1.6c0.3-0.5,0.7-0.8,1.1-1.1
			s0.9-0.4,1.3-0.4c0.6,0,1,0.2,1.5,0.5s0.8,0.8,1.1,1.4c0.3,0.6,0.5,1.2,0.7,2c0.2,0.8,0.3,1.6,0.3,2.4h2.4l-0.2,1.9H119.8z
			 M118.4,101.8c-0.2-1.4-0.5-2.4-0.9-3.2s-1-1.1-1.6-1.1c-0.3,0-0.5,0.1-0.7,0.2c-0.2,0.1-0.4,0.3-0.6,0.5
			c-0.2,0.2-0.3,0.4-0.4,0.7c-0.1,0.3-0.2,0.5-0.2,0.8c0,0.3,0.1,0.7,0.3,0.9c0.2,0.3,0.4,0.5,0.8,0.6c0.4,0.2,0.8,0.3,1.4,0.4
			C117,101.7,117.7,101.8,118.4,101.8z"/>
		<path class="st0" d="M138.3,97.6c0-0.1,0-0.2,0.1-0.4s0.1-0.4,0.3-0.7c0.1-0.2,0.2-0.4,0.3-0.5c0.1-0.1,0.2-0.2,0.2-0.2
			c0.1,0,0.1,0.1,0.2,0.2c0.1,0.2,0.1,0.3,0.2,0.6s0.1,0.4,0.2,0.7c0.1,0.2,0.1,0.5,0.1,0.8c0,0.3,0.1,0.5,0.1,0.8
			c0,0.4,0,0.8-0.1,1.3c-0.1,0.5-0.2,1-0.4,1.4c-0.2,0.4-0.5,0.8-0.7,1.1c-0.3,0.3-0.6,0.5-1,0.5c-0.3,0-0.6-0.1-1-0.2
			c-0.4-0.2-0.7-0.3-1.1-0.6c-0.3-0.2-0.6-0.4-0.9-0.7s-0.4-0.4-0.5-0.6c-0.2,0.4-0.5,0.8-0.9,1.1c-0.4,0.3-0.8,0.5-1.3,0.7
			c-0.5,0.2-0.9,0.3-1.4,0.4c-0.5,0.1-1,0.1-1.4,0.1c-0.7,0-1.2-0.1-1.4-0.4s-0.4-0.6-0.4-1h-0.1c-0.2,0.2-0.5,0.5-0.8,0.6
			s-0.8,0.4-1.2,0.5c-0.5,0.1-1,0.3-1.5,0.3s-1.1,0.1-1.6,0.1c-0.1,0-0.3,0-0.4-0.1c-0.2,0-0.3-0.1-0.4-0.2
			c-0.1-0.1-0.3-0.1-0.3-0.2c-0.1-0.1-0.1-0.2-0.1-0.3v-0.5c0-0.1,0-0.2,0.1-0.3s0.2-0.1,0.4-0.2c0.2,0,0.3-0.1,0.5-0.1
			c0.2,0,0.4,0,0.5,0c0.7,0,1.3-0.1,1.9-0.2c0.6-0.1,1.1-0.3,1.6-0.5c0.5-0.2,0.8-0.5,1.2-0.7c0.3-0.3,0.6-0.6,0.8-0.9
			c0.2-0.3,0.4-0.6,0.5-0.9c0.2-0.3,0.3-0.6,0.4-0.9c0-0.1,0.1-0.1,0.1-0.2c0.1,0,0.2,0,0.4,0c0.2,0,0.3,0,0.4,0.1s0.1,0.1,0.1,0.2
			c0,0.2-0.1,0.4-0.2,0.7c-0.1,0.3-0.2,0.6-0.4,0.9c-0.1,0.3-0.3,0.6-0.4,0.9c-0.1,0.3-0.2,0.5-0.2,0.6c0,0.4,0.4,0.7,1.2,0.7
			c1.4,0,2.5-0.4,3.3-1.3c0.1-0.2,0.3-0.4,0.4-0.6c0.1-0.3,0.3-0.5,0.4-0.8c0.1-0.3,0.2-0.6,0.3-0.9c0.1-0.3,0.2-0.6,0.3-0.8
			c0-0.1,0.1-0.1,0.1-0.2c0.1,0,0.2-0.1,0.4-0.1c0.2,0,0.3,0,0.4,0.1c0.1,0,0.1,0.1,0.1,0.2c0,0.1,0,0.3-0.1,0.4
			c0,0.2-0.1,0.4-0.1,0.6c-0.1,0.2-0.1,0.4-0.2,0.6s-0.1,0.4-0.2,0.5c0.1,0.3,0.2,0.5,0.4,0.8s0.5,0.5,0.8,0.7
			c0.3,0.2,0.6,0.4,0.9,0.5c0.3,0.1,0.6,0.2,0.9,0.2c0.3,0,0.5-0.1,0.6-0.4c0.1-0.3,0.2-0.6,0.2-1c0-0.3,0-0.6-0.1-0.8
			s-0.1-0.5-0.2-0.7s-0.1-0.4-0.2-0.5C138.3,97.7,138.3,97.6,138.3,97.6z"/>
		<path class="st0" d="M145.8,83.8c0.1,0,0.1,0,0.1,0.1c0,0.1,0,0.1,0,0.2s-0.1,0.2-0.2,0.4c-0.2,0.4-0.3,0.6-0.5,0.6
			c-0.9,0.2-1.6,0.4-2.1,0.6c-0.5,0.2-1,0.4-1.3,0.5c-0.3,0.2-0.5,0.3-0.7,0.4c-0.1,0.1-0.2,0.2-0.2,0.2c-0.1,0-0.1,0-0.2-0.1
			c0-0.1,0-0.3,0-0.5c0-0.1,0.1-0.3,0.3-0.5c0.2-0.2,0.5-0.5,0.9-0.7c-0.4-0.2-0.7-0.4-1-0.6c-0.3-0.3-0.4-0.6-0.4-0.9
			c0-0.3,0.1-0.7,0.3-1s0.4-0.7,0.7-0.9c0.3-0.3,0.6-0.5,0.9-0.7c0.3-0.2,0.7-0.3,1-0.3c0.4,0,0.7,0.1,1,0.2
			c0.2,0.2,0.4,0.3,0.4,0.5c0,0.2,0,0.3-0.1,0.4c-0.1,0.1-0.1,0.3-0.2,0.5c0,0-0.1,0.1-0.1,0.1c-0.1,0-0.1,0-0.2-0.1
			c-0.1-0.1-0.1-0.1-0.2-0.2c-0.1-0.1-0.2-0.1-0.4-0.2s-0.4-0.1-0.6-0.1c-0.1,0-0.3,0-0.4,0.1s-0.3,0.1-0.4,0.2s-0.2,0.2-0.3,0.3
			s-0.1,0.3-0.1,0.4c0,0.2,0.1,0.3,0.2,0.5c0.1,0.1,0.3,0.3,0.5,0.4c0.2,0.1,0.4,0.2,0.6,0.3c0.2,0.1,0.4,0.1,0.6,0.1
			c0.2,0,0.4,0,0.6-0.1c0.2,0,0.4-0.1,0.6-0.1c0.2,0,0.4-0.1,0.5-0.1C145.6,83.8,145.7,83.8,145.8,83.8z M153.2,83.3
			c0.1-0.1,0.1-0.1,0.2-0.1c0,0,0.1,0,0.1,0s0,0,0,0.1c0,0.2,0,0.3,0.1,0.5c0,0.1,0.1,0.3,0.2,0.4c0.1,0.1,0.2,0.3,0.4,0.5
			c0.2,0.2,0.4,0.4,0.6,0.6c0.1,0.1,0.2,0.2,0.2,0.3c0,0.1,0,0.2,0,0.3c0,0.1,0,0.3-0.1,0.5c-0.1,0.2-0.1,0.4-0.2,0.5
			c-0.1,0.2-0.2,0.3-0.3,0.5s-0.2,0.2-0.3,0.3c0.1,1.4,0.2,2.7,0.4,4s0.2,2.5,0.2,3.5c0,0.4,0,1-0.1,1.6c-0.1,0.6-0.2,1.3-0.5,2
			c-0.2,0.7-0.6,1.4-1.1,2.2c-0.5,0.7-1.1,1.4-1.9,2.1c-0.7,0.6-1.5,1-2.3,1.4c-0.8,0.3-1.7,0.6-2.7,0.8c-0.3,0.1-0.6,0.1-1,0.2
			c-0.4,0.1-0.8,0.2-1.1,0.2c-0.4,0.1-0.7,0.1-1.1,0.2c-0.3,0-0.6,0.1-0.8,0.1c-0.1,0-0.2-0.1-0.2-0.2c0-0.1-0.1-0.2-0.1-0.4
			c0-0.2,0.1-0.3,0.2-0.3c0.8-0.2,1.6-0.4,2.4-0.7c0.8-0.3,1.6-0.6,2.3-0.9s1.5-0.7,2.2-1.1c0.7-0.4,1.3-0.9,2-1.4
			c-0.1-0.3-0.2-0.7-0.3-1c-0.1-0.3-0.2-0.7-0.4-1.1c-0.2-0.4-0.4-0.8-0.7-1.3c-0.3-0.5-0.7-1-1.1-1.6c-0.5-0.6-0.9-1.1-1.4-1.6
			s-1.1-1.1-1.8-1.6l-0.2,0.5c-0.1,0.2-0.1,0.2-0.2,0.2c-0.1,0-0.2,0-0.3-0.1c-0.5-0.3-1-0.6-1.3-0.9c-0.4-0.3-0.7-0.5-1-0.8
			c-0.3-0.3-0.5-0.5-0.6-0.8c-0.1-0.3-0.2-0.6-0.2-0.9c0-0.3,0-0.6,0.1-0.9c0.1-0.3,0.1-0.6,0.2-0.8c0.1-0.1,0.1-0.2,0.2-0.3
			c0.1-0.1,0.2-0.1,0.3-0.1c0.1,0,0.4,0.1,0.7,0.3c0.3,0.2,0.6,0.4,1,0.7c0.4,0.3,0.8,0.6,1.2,1c0.4,0.4,0.9,0.8,1.3,1.2
			c0.4,0.4,0.8,0.9,1.2,1.3s0.7,0.9,1,1.3c0.5,0.7,1,1.4,1.3,2.1c0.4,0.6,0.6,1.2,0.9,1.8c0.2,0.5,0.4,1.1,0.5,1.5
			c0.1,0.5,0.2,0.9,0.2,1.3c0.4-0.4,0.8-0.8,1-1.2c0.3-0.3,0.5-0.7,0.6-1c0.1-0.3,0.2-0.7,0.3-1s0.1-0.7,0.1-1.1
			c0-0.2,0-0.5-0.1-0.9c0-0.4-0.1-0.8-0.1-1.3c-0.1-0.5-0.1-1-0.2-1.6c-0.1-0.6-0.1-1.1-0.2-1.7c-0.1-0.6-0.1-1.1-0.2-1.6
			c-0.1-0.5-0.1-0.9-0.1-1.3c0-0.1,0-0.2,0-0.3c0-0.1,0-0.2,0-0.3c-0.1-0.2-0.3-0.3-0.3-0.6c-0.1-0.2-0.1-0.4-0.1-0.6
			C152.2,85.2,152.5,84.4,153.2,83.3z"/>
		<path class="st0" d="M160.5,103.4c0,0.1,0,0.1-0.1,0.1c0,0-0.1,0-0.2,0c-0.1,0-0.2,0-0.2,0c0,0-0.1-0.1-0.1-0.1c0-0.2,0-0.4,0-0.7
			c0-0.3,0-0.6,0-1c0-0.8-0.1-1.6-0.1-2.5c-0.1-0.9-0.1-1.7-0.2-2.6s-0.2-1.8-0.2-2.6c-0.1-0.9-0.2-1.7-0.2-2.5s-0.1-1.5-0.2-2.2
			s-0.1-1.3-0.1-1.8c0-0.3,0-0.5,0.1-0.8c0.1-0.3,0.2-0.6,0.3-0.8c0.1-0.2,0.2-0.4,0.3-0.6c0.1-0.1,0.2-0.2,0.3-0.2
			c0.1,0,0.1,0,0.1,0.1c0,0.7,0.1,1.5,0.2,2.3c0.1,0.8,0.1,1.7,0.2,2.6c0.1,0.9,0.1,1.8,0.2,2.7s0.1,1.7,0.2,2.5s0.1,1.5,0.1,2.2
			c0,0.7,0.1,1.2,0.1,1.6c0,1.2-0.1,2.1-0.2,2.8C160.7,102.6,160.6,103.1,160.5,103.4z"/>
		<path class="st0" d="M184.4,88.2c0.1,0.8,0.1,1.6,0.2,2.5s0.1,1.7,0.2,2.6c0.1,0.8,0.1,1.7,0.2,2.4c0.1,0.8,0.1,1.5,0.1,2.1
			s0.1,1.1,0.1,1.5c0,0.4,0,0.6,0,0.6c0,0.7-0.1,1.3-0.2,1.9c-0.1,0.6-0.3,1.3-0.5,2c-0.3,0.5-0.7,1-1.2,1.4s-1,0.9-1.7,1.2
			c-0.6,0.3-1.4,0.6-2.2,0.8s-1.7,0.3-2.7,0.3c-1.1,0-2-0.1-2.7-0.4c-0.7-0.3-1.3-0.7-1.8-1.2c-0.4-0.5-0.8-1.1-1-1.8
			s-0.3-1.4-0.3-2.2c0-0.4,0-0.9,0.1-1.3c0.1-0.4,0.1-0.9,0.3-1.3s0.2-0.8,0.4-1.2c0.1-0.4,0.3-0.8,0.5-1.1c0.1-0.2,0.2-0.4,0.3-0.5
			c0.1-0.1,0.2-0.1,0.5-0.1c0.2,0,0.3,0,0.4,0.1c0.1,0,0.1,0.1,0.1,0.2c0,0.1-0.1,0.2-0.2,0.5c-0.1,0.3-0.2,0.6-0.4,1
			s-0.3,0.9-0.4,1.4c-0.1,0.5-0.2,1-0.2,1.5c0,0.7,0.1,1.3,0.3,1.9c0.2,0.5,0.5,1,0.9,1.4c0.4,0.4,0.9,0.7,1.6,0.9
			c0.6,0.2,1.3,0.3,2.1,0.3c0.6,0,1.3-0.1,1.9-0.2s1.3-0.4,1.9-0.6c0.6-0.3,1.1-0.6,1.6-1c0.5-0.4,0.9-0.8,1.2-1.3
			c0-0.4,0-0.9-0.1-1.5c0-0.6-0.1-1.4-0.2-2.2c-0.1-0.8-0.1-1.7-0.2-2.6c-0.1-0.9-0.2-1.8-0.2-2.7c-0.1-0.9-0.2-1.8-0.2-2.6
			c-0.1-0.8-0.1-1.6-0.2-2.3c0-0.2,0-0.3,0-0.4c0-0.1,0-0.3,0-0.4c-0.2-0.2-0.3-0.4-0.4-0.6c-0.1-0.2-0.1-0.4-0.1-0.6
			c0-0.3,0.1-0.7,0.3-1.1c0.2-0.4,0.4-0.9,0.7-1.3c0.1-0.1,0.1-0.1,0.2-0.1c0.1,0,0.1,0,0.1,0.1c0,0.2,0,0.3,0.1,0.5
			s0.1,0.3,0.2,0.4c0.1,0.1,0.2,0.3,0.4,0.5c0.2,0.2,0.4,0.4,0.6,0.6c0.1,0.1,0.2,0.2,0.2,0.3c0,0.1,0,0.2,0,0.3
			c0,0.1,0,0.3-0.1,0.5s-0.1,0.4-0.2,0.5c-0.1,0.2-0.2,0.3-0.3,0.5C184.6,88.1,184.5,88.2,184.4,88.2z"/>
		<path class="st0" d="M195.7,100.5c-0.1,0.1-0.2,0.3-0.3,0.4c-0.1,0.1-0.3,0.3-0.5,0.4c-0.2,0.1-0.4,0.2-0.7,0.3
			c-0.3,0.1-0.5,0.1-0.9,0.1c-0.4,0-0.8-0.1-1.2-0.2c-0.4-0.2-0.7-0.4-1.1-0.7c-0.3-0.3-0.6-0.6-0.7-1c-0.2-0.4-0.3-0.8-0.3-1.3
			c0-0.7,0.1-1.4,0.3-2.1c0.2-0.6,0.5-1.2,0.8-1.7s0.7-0.8,1.2-1.1s0.8-0.4,1.3-0.4c0.6,0,1.1,0.2,1.6,0.6s0.8,0.9,1.1,1.6
			s0.5,1.3,0.7,2.1c0.2,0.8,0.2,1.5,0.2,2.3c0,0.8-0.1,1.6-0.2,2.4c-0.2,0.8-0.4,1.6-0.7,2.4s-0.7,1.5-1.1,2.2
			c-0.4,0.7-0.9,1.3-1.4,1.8c-0.5,0.5-1.1,0.9-1.8,1.2c-0.6,0.3-1.3,0.4-2,0.4c-0.6,0-1.3-0.1-2-0.2c-0.7-0.1-1.5-0.4-2.4-0.9
			c-0.2-0.1-0.4-0.3-0.5-0.3c-0.1-0.1-0.1-0.2-0.1-0.5c0-0.4,0.1-0.5,0.3-0.5c0.1,0,0.2,0,0.4,0.1c0.2,0.1,0.4,0.2,0.6,0.3
			s0.5,0.2,0.9,0.3c0.3,0.1,0.7,0.1,1.1,0.1c0.6,0,1.2-0.1,1.7-0.3s1.1-0.4,1.7-0.8c0.5-0.3,1-0.7,1.5-1.2c0.5-0.4,0.9-0.9,1.3-1.5
			c0.4-0.5,0.7-1.1,0.9-1.7c0.3-0.6,0.4-1.2,0.6-1.8c0-0.2,0-0.4,0-0.6c0-0.2,0-0.4-0.1-0.5H195.7z M195.5,98.9
			c-0.1-0.5-0.2-0.9-0.3-1.4c-0.2-0.4-0.3-0.8-0.6-1.1c-0.2-0.3-0.5-0.6-0.7-0.7c-0.3-0.2-0.5-0.3-0.8-0.3c-0.3,0-0.6,0.1-0.8,0.2
			c-0.2,0.2-0.4,0.4-0.5,0.6c-0.1,0.2-0.2,0.4-0.3,0.7c-0.1,0.2-0.1,0.4-0.1,0.5c0,0.2,0.1,0.5,0.2,0.7c0.1,0.2,0.3,0.5,0.5,0.7
			c0.2,0.2,0.5,0.4,0.8,0.5c0.3,0.1,0.7,0.2,1.1,0.2c0.1,0,0.3,0,0.4,0c0.2,0,0.3-0.1,0.5-0.1c0.2-0.1,0.3-0.1,0.5-0.2
			C195.3,99.1,195.4,99,195.5,98.9z"/>
		<path class="st0" d="M202.4,103.4c0,0.1,0,0.1-0.1,0.1c0,0-0.1,0-0.2,0c-0.1,0-0.2,0-0.2,0c0,0-0.1-0.1-0.1-0.1c0-0.2,0-0.4,0-0.7
			c0-0.3,0-0.6,0-1c0-0.8-0.1-1.6-0.1-2.5c-0.1-0.9-0.1-1.7-0.2-2.6s-0.2-1.8-0.2-2.6c-0.1-0.9-0.2-1.7-0.2-2.5s-0.1-1.5-0.2-2.2
			s-0.1-1.3-0.1-1.8c0-0.3,0-0.5,0.1-0.8c0.1-0.3,0.2-0.6,0.3-0.8c0.1-0.2,0.2-0.4,0.3-0.6c0.1-0.1,0.2-0.2,0.3-0.2
			c0.1,0,0.1,0,0.1,0.1c0,0.7,0.1,1.5,0.2,2.3c0.1,0.8,0.1,1.7,0.2,2.6c0.1,0.9,0.1,1.8,0.2,2.7s0.1,1.7,0.2,2.5s0.1,1.5,0.1,2.2
			c0,0.7,0.1,1.2,0.1,1.6c0,1.2-0.1,2.1-0.2,2.8C202.7,102.6,202.5,103.1,202.4,103.4z"/>
		<path class="st0" d="M219.8,103.7c-0.7,0-1.3-0.1-1.8-0.2c-0.5-0.1-0.9-0.4-1.3-0.7c-0.3-0.3-0.6-0.7-0.8-1.2
			c-0.2-0.5-0.4-1-0.5-1.7h-0.1c0,0.2-0.1,0.3-0.2,0.5c-0.1,0.2-0.1,0.4-0.2,0.6c-0.1,0.2-0.2,0.3-0.3,0.5s-0.2,0.3-0.3,0.4
			c-0.4,0.3-0.8,0.5-1.2,0.7s-0.9,0.3-1.3,0.5s-0.9,0.2-1.4,0.3c-0.4,0.1-0.9,0.1-1.3,0.1c-0.6,0-1.2,0-1.6-0.1s-0.8-0.2-1-0.4
			c-0.3-0.2-0.4-0.4-0.6-0.6c-0.1-0.3-0.2-0.6-0.2-0.9c0-0.1,0-0.3,0-0.4c0-0.1,0-0.3,0-0.4c0-0.3,0.1-0.6,0.1-0.9s0.1-0.6,0.1-0.8
			c0-0.1,0.1-0.1,0.1-0.1s0.1,0,0.2,0s0.2,0,0.2,0s0.1,0.1,0.1,0.1c0,0.2,0,0.4,0.1,0.7s0.1,0.4,0.1,0.7c0,0.2,0.1,0.3,0.2,0.4
			c0.1,0.1,0.3,0.3,0.5,0.4c0.2,0.1,0.5,0.2,0.8,0.3c0.3,0.1,0.8,0.1,1.3,0.1c0.7,0,1.4-0.1,2.2-0.3c0.7-0.2,1.4-0.5,2.1-0.8
			c0.2-0.1,0.3-0.3,0.5-0.4s0.2-0.4,0.2-0.6s0.1-0.5,0.1-0.9c0-0.3,0-0.7,0-1.2c-0.1-0.5-0.2-1-0.4-1.6s-0.3-1.2-0.4-1.7
			c-0.1-0.5-0.2-1-0.3-1.5c-0.1-0.4-0.1-0.7-0.1-0.8c0-0.2,0-0.4,0.1-0.6c0.1-0.2,0.2-0.4,0.4-0.7c0.1-0.2,0.2-0.4,0.3-0.5
			c0.1-0.1,0.2-0.2,0.3-0.2c0.1,0,0.1,0,0.1,0.1c0,0,0.1,0.1,0.1,0.1c0.3,1.3,0.5,2.6,0.8,4s0.5,2.6,0.8,4c0.1,0.7,0.3,1.3,0.4,1.8
			s0.4,0.9,0.7,1.3c0.3,0.3,0.6,0.6,1,0.8c0.4,0.2,0.9,0.3,1.5,0.3L219.8,103.7z"/>
		<path class="st0" d="M219.8,103.7c-0.1,0-0.3,0-0.4-0.1c-0.2,0-0.3-0.1-0.4-0.1c-0.1-0.1-0.3-0.1-0.3-0.2
			c-0.1-0.1-0.1-0.2-0.1-0.3v-0.5c0-0.1,0-0.2,0.1-0.3s0.2-0.1,0.4-0.2c0.2,0,0.3-0.1,0.5-0.1c0.2,0,0.4,0,0.5,0
			c0.9,0,1.8-0.1,2.6-0.3s1.5-0.5,2.1-0.8c-0.1-0.6-0.2-1.3-0.4-2c-0.2-0.7-0.6-1.5-1.1-2.3c-0.1-0.1-0.1-0.2-0.2-0.2
			s-0.1-0.2-0.1-0.3c0-0.2,0-0.3,0.1-0.6c0.1-0.2,0.2-0.4,0.3-0.6c0.1-0.2,0.2-0.4,0.3-0.5c0.1-0.1,0.2-0.2,0.3-0.2
			c0.1,0,0.1,0,0.2,0.1c0.1,0,0.2,0.2,0.3,0.4c0.2,0.3,0.3,0.6,0.5,0.9c0.2,0.4,0.3,0.8,0.5,1.2c0.2,0.4,0.3,0.9,0.4,1.4
			c0.1,0.5,0.1,1,0.1,1.5c0,0.4,0,0.9-0.1,1.3c-0.1,0.4-0.2,0.8-0.3,1.2c-0.1,0.2-0.1,0.3-0.2,0.4c-0.1,0.1-0.2,0.2-0.4,0.3
			c-0.6,0.3-1.4,0.6-2.2,0.8C221.9,103.6,220.9,103.7,219.8,103.7z M220.5,88.6c0.1-0.2,0.3-0.3,0.4-0.5s0.3-0.2,0.4-0.2
			c0.1,0,0.2,0,0.4,0.1c0.1,0.1,0.3,0.2,0.5,0.3c0.4,0.3,0.6,0.6,0.6,0.9c0,0.1,0,0.2-0.1,0.4c-0.1,0.1-0.2,0.3-0.3,0.5
			c-0.1,0.2-0.3,0.4-0.4,0.5s-0.3,0.2-0.5,0.2c-0.1,0-0.2,0-0.3-0.1c-0.1-0.1-0.3-0.2-0.5-0.3c-0.2-0.1-0.4-0.3-0.5-0.5
			c-0.1-0.2-0.2-0.3-0.2-0.5c0-0.1,0-0.2,0.1-0.4C220.2,89,220.3,88.8,220.5,88.6z M223.5,88.4c0.1-0.2,0.3-0.3,0.4-0.5
			c0.1-0.1,0.3-0.2,0.4-0.2c0.1,0,0.2,0,0.4,0.1c0.1,0.1,0.3,0.2,0.5,0.3c0.4,0.3,0.6,0.6,0.6,1c0,0.1,0,0.2-0.1,0.4
			c-0.1,0.1-0.1,0.3-0.3,0.5c-0.2,0.2-0.3,0.4-0.4,0.5s-0.3,0.2-0.5,0.2c-0.1,0-0.2,0-0.3-0.1c-0.1-0.1-0.3-0.2-0.5-0.3
			c-0.2-0.2-0.3-0.3-0.5-0.5c-0.1-0.2-0.2-0.3-0.2-0.5c0-0.1,0-0.2,0.1-0.4C223.3,88.7,223.4,88.6,223.5,88.4z"/>
	</g>
</g>
</svg>
