<svg xmlns="http://www.w3.org/2000/svg" width="178.787" height="74.611" viewBox="0 0 178.787 74.611">
    <defs>
        <clipPath id="prefix__clip-path">
            <path id="prefix__Rectangle_278" d="M0 0H178.659V56.059H0z" data-name="Rectangle 278" transform="translate(426.727 12.962)" style="fill:none"/>
        </clipPath>
        <style>
            .prefix__cls-2{clip-path:url(#prefix__clip-path)}.prefix__cls-3{fill:#070606}.prefix__cls-4{fill:#d9a33d}.prefix__cls-5{fill:#1a1a1a}
        </style>
    </defs>
    <g id="prefix__Group_570" data-name="Group 570" transform="translate(-426.6 -12.962)">
        <g id="prefix__Group_567" data-name="Group 567">
            <g id="prefix__Group_564" data-name="Group 564">
                <g id="prefix__Group_563" class="prefix__cls-2" data-name="Group 563">
                    <path id="prefix__Path_329" d="M445.411 50.8h-9.747v11.19h-8.937v-29.9h21.619v7.118h-12.682v4.863h9.747V50.8z" class="prefix__cls-3" data-name="Path 329"/>
                </g>
            </g>
            <path id="prefix__Path_330" d="M459.149 39.255V61.99h-8.74V39.255z" class="prefix__cls-3" data-name="Path 330"/>
            <path id="prefix__Path_331" d="M483.057 61.99h-8.74V47.972a3.107 3.107 0 0 0-.537-2.212 1.943 1.943 0 0 0-1.347-.482q-2.387 0-2.387 3.329V61.99h-8.74V39.714h8.1v3.155q1.8-3.615 6.418-3.614a8.358 8.358 0 0 1 4.107.93 5.571 5.571 0 0 1 2.4 2.41 12.827 12.827 0 0 1 .723 5.136V61.99z" class="prefix__cls-3" data-name="Path 331"/>
            <path id="prefix__Path_332" d="M499.507 47.884a3.994 3.994 0 0 0-.745-2.595 2.192 2.192 0 0 0-1.73-.909 2.333 2.333 0 0 0-2.146 1.38q-.745 1.38-.745 5.147 0 3.79.733 5.016a2.214 2.214 0 0 0 1.961 1.227 2.727 2.727 0 0 0 1.818-.745 3.226 3.226 0 0 0 .854-2.541v-5.98zm8.608 21.138h-8.608V59.6q-1.423 2.847-5.257 2.847a7.8 7.8 0 0 1-6.68-3.22 13.666 13.666 0 0 1-2.366-8.3 13.694 13.694 0 0 1 2.475-8.257q2.475-3.417 7.4-3.417 4.818 0 6.746 3.482a19 19 0 0 0 1.446-3.023h5.059a15.393 15.393 0 0 0-.219 3.023v26.287z" class="prefix__cls-3" data-name="Path 332"/>
            <path id="prefix__Path_333" d="M535.759 53.01l7.448.635A10.007 10.007 0 0 1 539.932 60a10.561 10.561 0 0 1-7.3 2.453 10.957 10.957 0 0 1-11.482-11.436 11.739 11.739 0 0 1 3.165-8.444 10.852 10.852 0 0 1 8.225-3.318 10.6 10.6 0 0 1 7.315 2.508A9.565 9.565 0 0 1 543.1 48.1l-7.644.635q-.483-3.526-2.672-3.527a2.148 2.148 0 0 0-2.048 1.282 10.809 10.809 0 0 0-.647 4.457 9.621 9.621 0 0 0 .644 4.053 2.294 2.294 0 0 0 2.245 1.314q2.343 0 2.781-3.307z" class="prefix__cls-3" data-name="Path 333"/>
            <path id="prefix__Path_334" d="M557.19 57.15a2.347 2.347 0 0 0 2.486-2.114 21.215 21.215 0 0 0 .449-4.414 11.625 11.625 0 0 0-.635-4.512 2.3 2.3 0 0 0-2.278-1.38A2.319 2.319 0 0 0 555 46.154a11.375 11.375 0 0 0-.7 4.688q0 3.833.723 5.07a2.353 2.353 0 0 0 2.168 1.238zm-.131 5.3a11.545 11.545 0 0 1-8.806-3.45 11.4 11.4 0 0 1-3.263-8.094 11.161 11.161 0 0 1 3.406-8.323 13.493 13.493 0 0 1 17.7-.044 11.079 11.079 0 0 1 3.34 8.236 11.233 11.233 0 0 1-3.384 8.334 12.241 12.241 0 0 1-8.991 3.34z" class="prefix__cls-3" data-name="Path 334"/>
            <path id="prefix__Path_335" d="M605.387 61.99h-8.476V48.06a3.487 3.487 0 0 0-.406-1.961 1.658 1.658 0 0 0-1.434-.558q-2.455 0-2.453 3.57V61.99h-8.39V48.06q0-2.673-2.058-2.673-2.125 0-2.126 2.673v13.93h-8.41V39.714h7.841v3a6.736 6.736 0 0 1 6.111-3.46 6.656 6.656 0 0 1 6.265 3.46 7.308 7.308 0 0 1 6.658-3.46 7.706 7.706 0 0 1 3.778.9 5.6 5.6 0 0 1 2.366 2.31 9.892 9.892 0 0 1 .734 4.37V61.99z" class="prefix__cls-3" data-name="Path 335"/>
            <path id="prefix__Path_336" d="M518.775 57.993a4 4 0 1 1-4-4 4 4 0 0 1 4 4z" class="prefix__cls-4" data-name="Path 336"/>
            <g id="prefix__Group_566" data-name="Group 566">
                <g id="prefix__Group_565" class="prefix__cls-2" data-name="Group 565">
                    <path id="prefix__Path_337" d="M458.661 33.213a4 4 0 1 1-4-4 4 4 0 0 1 4 4z" class="prefix__cls-4" data-name="Path 337"/>
                    <path id="prefix__Path_338" d="M455.162 26.365a46.379 46.379 0 0 1 6.874-4.059 76.067 76.067 0 0 1 7.364-3.136c2.506-.923 5.059-1.716 7.637-2.416 1.289-.349 2.585-.678 3.889-.967s2.612-.566 3.926-.81 2.631-.47 3.952-.669 2.647-.375 3.974-.53q3.986-.448 7.991-.652l2-.088c.668-.018 1.336-.046 2-.055 1.336-.021 2.672-.028 4.008-.011q4.008.045 8.009.3c.667.039 1.333.089 2 .141l1 .077 1 .094c1.332.126 2.661.284 3.989.454q3.98.53 7.916 1.334c1.31.275 2.616.571 3.913.9.651.157 1.3.336 1.943.5s1.291.352 1.932.545c2.57.747 5.113 1.589 7.609 2.551s4.958 2.011 7.367 3.171 4.761 2.434 7.053 3.8 4.514 2.856 6.65 4.453a52.1 52.1 0 0 1 6.052 5.209c-.981-.9-2.024-1.721-3.082-2.522s-2.138-1.57-3.238-2.309q-3.3-2.223-6.788-4.124-3.476-1.919-7.105-3.525-3.617-1.623-7.355-2.95c-2.491-.878-5.007-1.683-7.553-2.38s-5.119-1.292-7.705-1.817-5.194-.942-7.812-1.278-5.248-.559-7.888-.745a138.2 138.2 0 0 0-31.625 1.311 104.585 104.585 0 0 0-15.415 3.71q-1.889.612-3.749 1.313t-3.681 1.495q-1.822.794-3.6 1.7a36.128 36.128 0 0 0-3.458 1.973z" class="prefix__cls-4" data-name="Path 338"/>
                </g>
            </g>
        </g>
        <g id="prefix__Group_569" data-name="Group 569">
            <g id="prefix__Group_568" data-name="Group 568">
                <path id="prefix__Path_339" d="M433.093 80.34h-2.575v7.141h-1.337V80.34H426.6v-1.118h6.493z" class="prefix__cls-5" data-name="Path 339"/>
                <path id="prefix__Path_340" d="M440.526 87.481h-1.2a.551.551 0 0 1-.516-.275l-1.928-2.782a.628.628 0 0 0-.212-.207.734.734 0 0 0-.344-.063h-.746v3.327h-1.34v-8.259h2.432a5.183 5.183 0 0 1 1.4.166 2.681 2.681 0 0 1 .967.473 1.881 1.881 0 0 1 .559.737 2.6 2.6 0 0 1 .052 1.761 2.272 2.272 0 0 1-.373.677 2.389 2.389 0 0 1-.6.527 3.058 3.058 0 0 1-.809.35 1.343 1.343 0 0 1 .424.419zm-3.888-4.3a2.585 2.585 0 0 0 .8-.112 1.6 1.6 0 0 0 .574-.312 1.273 1.273 0 0 0 .344-.479 1.6 1.6 0 0 0 .115-.617 1.24 1.24 0 0 0-.447-1.032 2.154 2.154 0 0 0-1.354-.356h-1.09v2.908z" class="prefix__cls-5" data-name="Path 340"/>
                <path id="prefix__Path_341" d="M448.436 87.481H447.4a.44.44 0 0 1-.286-.089.582.582 0 0 1-.167-.221l-.688-1.824H442.7l-.688 1.824a.545.545 0 0 1-.161.212.422.422 0 0 1-.287.1h-1.038l3.275-8.259h1.36zm-2.541-3.1l-1.136-3.017a8.483 8.483 0 0 1-.281-.889c-.042.179-.088.345-.138.5s-.1.284-.137.4l-1.136 3.011z" class="prefix__cls-5" data-name="Path 341"/>
                <path id="prefix__Path_342" d="M456.649 83.351a4.555 4.555 0 0 1-.3 1.678 3.7 3.7 0 0 1-2.143 2.151 4.557 4.557 0 0 1-1.688.3H449.4v-8.258h3.121a4.557 4.557 0 0 1 1.688.3 3.706 3.706 0 0 1 2.143 2.151 4.555 4.555 0 0 1 .297 1.678zm-1.371 0a3.982 3.982 0 0 0-.192-1.279 2.665 2.665 0 0 0-.55-.958 2.4 2.4 0 0 0-.869-.6 2.994 2.994 0 0 0-1.147-.209h-1.773V86.4h1.773a3.032 3.032 0 0 0 1.147-.207 2.356 2.356 0 0 0 .869-.6 2.691 2.691 0 0 0 .55-.958 3.975 3.975 0 0 0 .192-1.284z" class="prefix__cls-5" data-name="Path 342"/>
                <path id="prefix__Path_343" d="M459.471 87.481h-1.347v-8.259h1.347z" class="prefix__cls-5" data-name="Path 343"/>
                <path id="prefix__Path_344" d="M468.27 79.222v8.259h-.683a.571.571 0 0 1-.263-.055.61.61 0 0 1-.207-.18l-4.537-5.828c.012.111.02.221.026.33s.009.21.009.3v5.432h-1.182v-8.258h.7a1.194 1.194 0 0 1 .146.008.453.453 0 0 1 .112.032.31.31 0 0 1 .1.069 1.014 1.014 0 0 1 .1.114l4.542 5.833c-.011-.118-.02-.235-.025-.349s-.009-.222-.009-.322v-5.385z" class="prefix__cls-5" data-name="Path 344"/>
                <path id="prefix__Path_345" d="M477 83.415v3.269a4.782 4.782 0 0 1-2.868.889 5 5 0 0 1-1.816-.313 4.02 4.02 0 0 1-1.385-.872 3.809 3.809 0 0 1-.883-1.333 4.537 4.537 0 0 1-.31-1.7 4.718 4.718 0 0 1 .3-1.712 3.776 3.776 0 0 1 .854-1.336 3.821 3.821 0 0 1 1.342-.866A4.817 4.817 0 0 1 474 79.13a5.255 5.255 0 0 1 .926.077 4.708 4.708 0 0 1 .8.215 3.737 3.737 0 0 1 1.244.769l-.384.614a.384.384 0 0 1-.235.177.406.406 0 0 1-.31-.068l-.353-.207a2.99 2.99 0 0 0-.427-.2 3.147 3.147 0 0 0-.556-.154 4.049 4.049 0 0 0-.746-.06 3.092 3.092 0 0 0-1.179.214 2.543 2.543 0 0 0-.9.614 2.737 2.737 0 0 0-.573.966 3.787 3.787 0 0 0-.2 1.268 3.852 3.852 0 0 0 .212 1.322 2.769 2.769 0 0 0 .6.987 2.567 2.567 0 0 0 .943.616 3.418 3.418 0 0 0 1.236.213 3.479 3.479 0 0 0 .909-.109 4.189 4.189 0 0 0 .784-.3v-1.649h-1.154a.282.282 0 0 1-.206-.071.247.247 0 0 1-.075-.187v-.762z" class="prefix__cls-5" data-name="Path 345"/>
                <path id="prefix__Path_346" d="M486.785 80.34h-2.576v7.141h-1.336V80.34h-2.581v-1.118h6.493z" class="prefix__cls-5" data-name="Path 346"/>
                <path id="prefix__Path_347" d="M494.769 79.222v8.259h-1.343V83.8h-4.147v3.677h-1.347v-8.255h1.347v3.613h4.147v-3.613z" class="prefix__cls-5" data-name="Path 347"/>
                <path id="prefix__Path_348" d="M501.892 86.4l-.006 1.084h-5.15v-8.262h5.15v1.084h-3.8v2.489h3.041v1.05h-3.041V86.4z" class="prefix__cls-5" data-name="Path 348"/>
                <path id="prefix__Path_349" d="M512.962 83.415v3.269a4.78 4.78 0 0 1-2.868.889 5 5 0 0 1-1.815-.313 4.02 4.02 0 0 1-1.385-.872 3.811 3.811 0 0 1-.884-1.333 4.556 4.556 0 0 1-.309-1.7 4.738 4.738 0 0 1 .3-1.712 3.744 3.744 0 0 1 2.2-2.2 4.807 4.807 0 0 1 1.766-.307 5.267 5.267 0 0 1 .927.077 4.722 4.722 0 0 1 .794.215 3.738 3.738 0 0 1 .677.333 3.832 3.832 0 0 1 .568.436l-.385.614a.382.382 0 0 1-.235.177.4.4 0 0 1-.309-.068l-.353-.207a3.055 3.055 0 0 0-.428-.2 3.121 3.121 0 0 0-.556-.154 4.037 4.037 0 0 0-.745-.06 3.085 3.085 0 0 0-1.179.214 2.535 2.535 0 0 0-.9.614 2.708 2.708 0 0 0-.573.966 3.76 3.76 0 0 0-.2 1.268 3.826 3.826 0 0 0 .213 1.322 2.753 2.753 0 0 0 .6.987 2.57 2.57 0 0 0 .944.616 3.414 3.414 0 0 0 1.236.213 3.484 3.484 0 0 0 .909-.109 4.18 4.18 0 0 0 .783-.3v-1.655H510.6a.282.282 0 0 1-.206-.071.247.247 0 0 1-.075-.187v-.762z" class="prefix__cls-5" data-name="Path 349"/>
                <path id="prefix__Path_350" d="M519.323 86.357v1.124h-4.772v-8.259h1.342v7.135z" class="prefix__cls-5" data-name="Path 350"/>
                <path id="prefix__Path_351" d="M527.9 83.351a4.663 4.663 0 0 1-.3 1.692 3.913 3.913 0 0 1-.84 1.334 3.828 3.828 0 0 1-1.3.874 4.658 4.658 0 0 1-3.373 0 3.84 3.84 0 0 1-1.305-.874 3.89 3.89 0 0 1-.843-1.334 4.952 4.952 0 0 1 0-3.384 3.927 3.927 0 0 1 .843-1.336 3.85 3.85 0 0 1 1.305-.878 4.672 4.672 0 0 1 3.373 0 3.837 3.837 0 0 1 1.3.878 3.951 3.951 0 0 1 .84 1.336 4.663 4.663 0 0 1 .3 1.692zm-1.37 0a3.982 3.982 0 0 0-.193-1.279 2.712 2.712 0 0 0-.55-.964 2.416 2.416 0 0 0-.869-.608 3.209 3.209 0 0 0-2.289 0 2.445 2.445 0 0 0-.872.608 2.738 2.738 0 0 0-.556.964 4.311 4.311 0 0 0 0 2.564 2.7 2.7 0 0 0 .556.961 2.406 2.406 0 0 0 .872.6 3.238 3.238 0 0 0 2.289 0 2.378 2.378 0 0 0 .869-.6 2.673 2.673 0 0 0 .55-.961 4 4 0 0 0 .196-1.285z" class="prefix__cls-5" data-name="Path 351"/>
                <path id="prefix__Path_352" d="M532.119 79.222a5.222 5.222 0 0 1 1.354.152 2.578 2.578 0 0 1 .923.433 1.673 1.673 0 0 1 .53.685 2.331 2.331 0 0 1 .17.909 1.816 1.816 0 0 1-.089.565 1.685 1.685 0 0 1-.276.511 2.029 2.029 0 0 1-.467.427 2.681 2.681 0 0 1-.665.315q1.755.374 1.755 1.864a2.326 2.326 0 0 1-.2.967 2.137 2.137 0 0 1-.573.757 2.7 2.7 0 0 1-.927.5 4.07 4.07 0 0 1-1.256.178h-3.028v-8.263zm-1.406 1.049v2.581h1.343a2.066 2.066 0 0 0 1.284-.332 1.143 1.143 0 0 0 .425-.958 1.162 1.162 0 0 0-.4-.987 2.063 2.063 0 0 0-1.247-.3zm1.664 6.149a2.4 2.4 0 0 0 .766-.106 1.413 1.413 0 0 0 .51-.29 1.073 1.073 0 0 0 .287-.433 1.59 1.59 0 0 0 .089-.536 1.14 1.14 0 0 0-.4-.921 1.94 1.94 0 0 0-1.259-.335h-1.658v2.621z" class="prefix__cls-5" data-name="Path 352"/>
                <path id="prefix__Path_353" d="M543.648 87.481h-1.039a.441.441 0 0 1-.286-.089.582.582 0 0 1-.167-.221l-.688-1.824h-3.556l-.688 1.824a.545.545 0 0 1-.161.212.422.422 0 0 1-.287.1h-1.038l3.275-8.259h1.36zm-2.541-3.1l-1.136-3.017a8.49 8.49 0 0 1-.281-.889c-.042.179-.088.345-.138.5s-.1.284-.137.4l-1.136 3.011z" class="prefix__cls-5" data-name="Path 353"/>
                <path id="prefix__Path_354" d="M549.383 86.357v1.124h-4.772v-8.259h1.342v7.135z" class="prefix__cls-5" data-name="Path 354"/>
                <path id="prefix__Path_355" d="M561.835 79.222v8.259h-1.181V81.82c0-.092 0-.193.009-.3s.014-.219.025-.33l-2.655 4.9a.506.506 0 0 1-.476.3h-.19a.5.5 0 0 1-.476-.3l-2.7-4.916c.012.112.02.222.026.333s.009.214.009.31v5.661h-1.182v-8.256h1a.94.94 0 0 1 .275.031.344.344 0 0 1 .178.192l2.65 4.8c.057.111.112.225.163.341s.1.236.141.359c.046-.123.1-.244.146-.364s.106-.236.164-.348l2.609-4.789a.348.348 0 0 1 .178-.192.942.942 0 0 1 .276-.031z" class="prefix__cls-5" data-name="Path 355"/>
                <path id="prefix__Path_356" d="M570.708 87.481h-1.038a.443.443 0 0 1-.287-.089.579.579 0 0 1-.166-.221l-.688-1.824h-3.556l-.689 1.824a.552.552 0 0 1-.16.212.424.424 0 0 1-.287.1H562.8l3.275-8.259h1.359zm-2.541-3.1l-1.135-3.017a8.465 8.465 0 0 1-.282-.889c-.042.179-.087.345-.137.5s-.095.284-.138.4l-1.135 3.011z" class="prefix__cls-5" data-name="Path 356"/>
                <path id="prefix__Path_357" d="M577.958 87.481h-1.2a.553.553 0 0 1-.516-.275l-1.927-2.782a.637.637 0 0 0-.212-.207.737.737 0 0 0-.344-.063h-.746v3.327h-1.342v-8.259h2.429a5.193 5.193 0 0 1 1.4.166 2.69 2.69 0 0 1 .967.473 1.882 1.882 0 0 1 .559.737 2.6 2.6 0 0 1 .051 1.761 2.23 2.23 0 0 1-.373.677 2.372 2.372 0 0 1-.6.527 3.044 3.044 0 0 1-.809.35 1.346 1.346 0 0 1 .425.419zm-3.889-4.3a2.587 2.587 0 0 0 .8-.112 1.6 1.6 0 0 0 .574-.312 1.284 1.284 0 0 0 .344-.479 1.613 1.613 0 0 0 .115-.617 1.243 1.243 0 0 0-.447-1.032 2.155 2.155 0 0 0-1.354-.356h-1.09v2.908z" class="prefix__cls-5" data-name="Path 357"/>
                <path id="prefix__Path_358" d="M580.3 82.755h.384a.88.88 0 0 0 .356-.061.667.667 0 0 0 .247-.192l2.5-2.982a.793.793 0 0 1 .273-.232.827.827 0 0 1 .353-.066h1.147l-2.96 3.487a2.218 2.218 0 0 1-.232.249 1.034 1.034 0 0 1-.244.164 1.045 1.045 0 0 1 .309.175 1.508 1.508 0 0 1 .27.3l3.063 3.889H584.6a1.192 1.192 0 0 1-.215-.017.588.588 0 0 1-.155-.052.432.432 0 0 1-.115-.086.8.8 0 0 1-.089-.115l-2.581-3.154a.9.9 0 0 0-.114-.126.5.5 0 0 0-.135-.086.65.65 0 0 0-.175-.049 1.533 1.533 0 0 0-.229-.015h-.492v3.7h-1.342v-8.264h1.342z" class="prefix__cls-5" data-name="Path 358"/>
                <path id="prefix__Path_359" d="M591.85 86.4l-.006 1.084h-5.151v-8.262h5.151v1.084h-3.8v2.489h3.04v1.05h-3.04V86.4z" class="prefix__cls-5" data-name="Path 359"/>
                <path id="prefix__Path_360" d="M598.985 80.34h-2.576v7.141h-1.336V80.34h-2.581v-1.118h6.493z" class="prefix__cls-5" data-name="Path 360"/>
                <path id="prefix__Path_361" d="M604.428 80.632a.514.514 0 0 1-.132.153.3.3 0 0 1-.172.048.446.446 0 0 1-.244-.091q-.135-.093-.333-.2a2.818 2.818 0 0 0-.467-.206 2.194 2.194 0 0 0-1.247-.009 1.244 1.244 0 0 0-.439.24 1 1 0 0 0-.267.365 1.141 1.141 0 0 0-.089.456.819.819 0 0 0 .166.525 1.422 1.422 0 0 0 .439.358 3.472 3.472 0 0 0 .622.261q.351.112.714.238t.714.287a2.438 2.438 0 0 1 .623.407 1.866 1.866 0 0 1 .439.6 2.03 2.03 0 0 1 .166.866 2.8 2.8 0 0 1-.189 1.032 2.436 2.436 0 0 1-.548.84 2.534 2.534 0 0 1-.883.565 3.242 3.242 0 0 1-1.2.207 3.786 3.786 0 0 1-.772-.078 3.945 3.945 0 0 1-.717-.218 3.552 3.552 0 0 1-.639-.341 3.244 3.244 0 0 1-.534-.447l.39-.643a.4.4 0 0 1 .132-.126.35.35 0 0 1 .178-.046.5.5 0 0 1 .293.123c.106.083.236.173.387.27a2.977 2.977 0 0 0 .548.27 2.144 2.144 0 0 0 .768.123 1.636 1.636 0 0 0 1.127-.356 1.244 1.244 0 0 0 .4-.98.928.928 0 0 0-.166-.571 1.357 1.357 0 0 0-.439-.37 3.15 3.15 0 0 0-.623-.252q-.35-.1-.711-.222a6.9 6.9 0 0 1-.711-.274 2.281 2.281 0 0 1-.622-.414 1.9 1.9 0 0 1-.439-.63 2.321 2.321 0 0 1-.166-.938 2.241 2.241 0 0 1 .174-.867 2.218 2.218 0 0 1 .511-.742 2.5 2.5 0 0 1 .829-.519 3.034 3.034 0 0 1 1.124-.195 3.656 3.656 0 0 1 1.3.224 2.968 2.968 0 0 1 1.024.636z" class="prefix__cls-5" data-name="Path 361"/>
            </g>
        </g>
    </g>
</svg>
