<svg xmlns="http://www.w3.org/2000/svg" width="200.442" height="86.26" viewBox="0 0 200.442 86.26">
    <defs>
        <style>
            .cls-1{fill:#fff}.cls-2{fill:#d2a460}
        </style>
    </defs>
    <g id="Group_31" data-name="Group 31" transform="translate(-426.857 -38.997)">
        <g id="Group_29" data-name="Group 29">
            <path id="Path_51" d="M447.839 81.422H436.9v12.561h-10.027V60.438h24.26v7.991h-14.218v5.452h10.942v7.541z" class="cls-1" data-name="Path 51"/>
            <path id="Path_52" d="M463.244 68.465v25.5h-9.808v-25.5z" class="cls-1" data-name="Path 52"/>
            <path id="Path_53" d="M490.059 93.965h-9.808V78.237a3.525 3.525 0 0 0-.594-2.484 2.162 2.162 0 0 0-1.512-.54c-1.781 0-2.681 1.242-2.681 3.743v15.009h-9.808V68.986h9.088v3.546c1.35-2.7 3.743-4.049 7.2-4.049a9.321 9.321 0 0 1 4.607 1.043 6.248 6.248 0 0 1 2.682 2.7 14.345 14.345 0 0 1 .81 5.759v15.98z" class="cls-1" data-name="Path 53"/>
            <path id="Path_54" d="M518.169 101.866h-9.664V91.284c-1.062 2.124-3.023 3.185-5.9 3.185a8.733 8.733 0 0 1-7.486-3.617 15.352 15.352 0 0 1-2.646-9.3 15.363 15.363 0 0 1 2.772-9.268q2.779-3.834 8.3-3.833c3.6 0 6.119 1.295 7.559 3.9a23.109 23.109 0 0 0 1.619-3.384h5.669a17.33 17.33 0 0 0-.252 3.384v29.514zm-9.646-23.719a4.5 4.5 0 0 0-.828-2.916 2.46 2.46 0 0 0-1.943-1.026 2.64 2.64 0 0 0-2.412 1.548c-.558 1.026-.828 2.951-.828 5.777s.27 4.715.828 5.633a2.458 2.458 0 0 0 2.2 1.368 3.015 3.015 0 0 0 2.033-.828 3.592 3.592 0 0 0 .954-2.844z" class="cls-1" data-name="Path 54"/>
            <path id="Path_55" d="M549.177 83.887l8.35.72a11.258 11.258 0 0 1-3.671 7.127 11.83 11.83 0 0 1-8.188 2.753 12.3 12.3 0 0 1-12.886-12.831 13.194 13.194 0 0 1 3.545-9.466 12.175 12.175 0 0 1 9.233-3.725 11.889 11.889 0 0 1 8.206 2.807 10.734 10.734 0 0 1 3.635 7.109l-8.566.719c-.36-2.645-1.368-3.959-3.005-3.959a2.434 2.434 0 0 0-2.3 1.44 12.1 12.1 0 0 0-.72 5 10.821 10.821 0 0 0 .72 4.553 2.56 2.56 0 0 0 2.52 1.476q2.641.003 3.127-3.723z" class="cls-1" data-name="Path 55"/>
            <path id="Path_56" d="M573.076 94.487a13 13 0 0 1-9.88-3.869 12.835 12.835 0 0 1-3.653-9.088 12.565 12.565 0 0 1 3.815-9.34 13.666 13.666 0 0 1 9.934-3.743 13.515 13.515 0 0 1 9.916 3.689 13.321 13.321 0 0 1-.054 18.572c-2.519 2.538-5.885 3.779-10.078 3.779zm.144-5.938a2.635 2.635 0 0 0 2.79-2.376 23.5 23.5 0 0 0 .5-4.949 12.78 12.78 0 0 0-.719-5.057 2.8 2.8 0 0 0-5.039.054 12.794 12.794 0 0 0-.792 5.255c0 2.861.27 4.769.81 5.687a2.693 2.693 0 0 0 2.45 1.386z" class="cls-1" data-name="Path 56"/>
            <path id="Path_57" d="M627.281 93.965h-9.5v-15.62a3.879 3.879 0 0 0-.45-2.2 1.877 1.877 0 0 0-1.6-.63c-1.836 0-2.754 1.332-2.754 4.013v14.455h-9.412v-15.62c0-2-.774-3.006-2.3-3.006-1.583 0-2.375 1.008-2.375 3.006v15.62h-9.43v-25h8.8v3.366a7.54 7.54 0 0 1 6.857-3.887 7.453 7.453 0 0 1 7.018 3.887 8.186 8.186 0 0 1 7.469-3.887 8.646 8.646 0 0 1 4.229 1.007 6.135 6.135 0 0 1 2.645 2.592 11.2 11.2 0 0 1 .828 4.895v17.009z" class="cls-1" data-name="Path 57"/>
            <circle id="Ellipse_9" cx="4.481" cy="4.481" r="4.481" class="cls-2" data-name="Ellipse 9" transform="translate(521.174 85.003)"/>
            <circle id="Ellipse_10" cx="4.481" cy="4.481" r="4.481" class="cls-2" data-name="Ellipse 10" transform="translate(453.742 57.217)"/>
            <g id="Group_28" data-name="Group 28">
                <path id="Path_58" d="M458.781 54.013a53.549 53.549 0 0 1 7.7-4.553 81.326 81.326 0 0 1 8.26-3.509c2.807-1.044 5.669-1.926 8.566-2.717 1.44-.4 2.9-.756 4.355-1.08s2.934-.63 4.409-.9 2.952-.522 4.427-.756 2.97-.414 4.464-.594c2.987-.342 5.974-.576 8.962-.738l2.249-.09c.756-.018 1.494-.054 2.25-.054 1.494-.018 3.005-.036 4.5-.018 3.005.036 5.993.144 8.98.342.756.036 1.494.108 2.25.162l1.116.09 1.115.108c1.494.144 2.988.324 4.481.5 2.97.4 5.939.9 8.873 1.494 1.475.306 2.933.648 4.391 1.008.738.18 1.457.378 2.177.558.72.2 1.44.4 2.16.611 2.879.846 5.741 1.782 8.53 2.862 2.808 1.08 5.561 2.249 8.26 3.563s5.345 2.736 7.919 4.265c2.573 1.548 5.057 3.2 7.468 5a57.023 57.023 0 0 1 6.785 5.849c-1.1-1.008-2.268-1.925-3.455-2.825s-2.394-1.764-3.636-2.592q-3.7-2.482-7.612-4.625c-2.592-1.44-5.255-2.753-7.972-3.959-2.7-1.206-5.453-2.322-8.243-3.311s-5.615-1.89-8.476-2.664c-2.861-.792-5.741-1.458-8.638-2.033s-5.831-1.062-8.765-1.44-5.884-.63-8.854-.828a154.919 154.919 0 0 0-35.471 1.476 116.872 116.872 0 0 0-17.294 4.157c-1.4.45-2.808.954-4.211 1.476-1.386.521-2.772 1.079-4.122 1.673-1.367.594-2.7 1.224-4.031 1.908a31.852 31.852 0 0 0-3.867 2.184z" class="cls-2" data-name="Path 58"/>
            </g>
        </g>
        <g id="Group_30" data-name="Group 30">
            <path id="Path_59" d="M429.908 116.164h-3.051v-1.1h7.427v1.1h-3.066v8.929h-1.31z" class="cls-1" data-name="Path 59"/>
            <path id="Path_60" d="M435.4 115.2a13.478 13.478 0 0 1 2.486-.209 4.1 4.1 0 0 1 2.9.819 2.5 2.5 0 0 1 .789 1.9 2.635 2.635 0 0 1-1.89 2.56v.044a2.5 2.5 0 0 1 1.473 2.024 16.045 16.045 0 0 0 .774 2.753h-1.339a12.989 12.989 0 0 1-.67-2.4c-.3-1.384-.833-1.9-2.009-1.949h-1.22v4.345h-1.3zm1.3 4.569h1.324c1.384 0 2.262-.76 2.262-1.9 0-1.295-.937-1.861-2.306-1.875a5.366 5.366 0 0 0-1.28.118z" class="cls-1" data-name="Path 60"/>
            <path id="Path_61" d="M445.1 121.938l-1.042 3.155h-1.338l3.408-10.03h1.562l3.423 10.03h-1.384l-1.071-3.155zm3.289-1.012l-.982-2.887c-.223-.654-.372-1.25-.521-1.83h-.03c-.149.6-.312 1.205-.506 1.815l-.982 2.9z" class="cls-1" data-name="Path 61"/>
            <path id="Path_62" d="M452.586 115.2a18.412 18.412 0 0 1 2.753-.209 5.748 5.748 0 0 1 4.063 1.25 4.622 4.622 0 0 1 1.414 3.6 5.3 5.3 0 0 1-1.444 3.9 6.179 6.179 0 0 1-4.434 1.443 20.772 20.772 0 0 1-2.352-.119zm1.3 8.869a8.1 8.1 0 0 0 1.309.075c2.768 0 4.272-1.548 4.272-4.257.014-2.366-1.325-3.869-4.063-3.869a7.38 7.38 0 0 0-1.518.134z" class="cls-1" data-name="Path 62"/>
            <path id="Path_63" d="M463.791 115.063v10.03H462.5v-10.03z" class="cls-1" data-name="Path 63"/>
            <path id="Path_64" d="M466.053 125.093v-10.03h1.413l3.215 5.075a28.309 28.309 0 0 1 1.8 3.259l.03-.015c-.12-1.34-.149-2.56-.149-4.123v-4.2h1.22v10.03h-1.31L469.088 120a32.039 32.039 0 0 1-1.874-3.349l-.045.015c.074 1.265.1 2.47.1 4.137v4.286z" class="cls-1" data-name="Path 64"/>
            <path id="Path_65" d="M483.478 124.647a9.352 9.352 0 0 1-3.08.55 4.71 4.71 0 0 1-5.149-5.059c.015-2.992 2.068-5.179 5.432-5.179a6.212 6.212 0 0 1 2.5.461l-.313 1.056a5.2 5.2 0 0 0-2.217-.431 3.751 3.751 0 0 0-4.033 4.033c0 2.545 1.533 4.048 3.869 4.048a4.216 4.216 0 0 0 1.726-.268v-2.991h-2.038v-1.042h3.3z" class="cls-1" data-name="Path 65"/>
            <path id="Path_66" d="M489.907 116.164h-3.051v-1.1h7.426v1.1h-3.066v8.929h-1.309z" class="cls-1" data-name="Path 66"/>
            <path id="Path_67" d="M496.692 115.063v4.2h4.852v-4.2h1.31v10.03h-1.31v-4.7h-4.852v4.7H495.4v-10.03z" class="cls-1" data-name="Path 67"/>
            <path id="Path_68" d="M510.293 120.39h-3.9v3.617h4.345v1.086H505.1v-10.03h5.417v1.086h-4.122v3.17h3.9z" class="cls-1" data-name="Path 68"/>
            <path id="Path_69" d="M523.209 124.647a9.352 9.352 0 0 1-3.08.55 4.71 4.71 0 0 1-5.149-5.059c.015-2.992 2.068-5.179 5.432-5.179a6.208 6.208 0 0 1 2.5.461l-.313 1.056a5.2 5.2 0 0 0-2.217-.431 3.751 3.751 0 0 0-4.033 4.033c0 2.545 1.533 4.048 3.869 4.048a4.212 4.212 0 0 0 1.726-.268v-2.991h-2.038v-1.042h3.3z" class="cls-1" data-name="Path 69"/>
            <path id="Path_70" d="M525.188 115.063h1.295v8.944h4.286v1.086h-5.581z" class="cls-1" data-name="Path 70"/>
            <path id="Path_71" d="M540.2 119.974c0 3.452-2.1 5.283-4.658 5.283-2.649 0-4.509-2.054-4.509-5.09 0-3.185 1.979-5.268 4.658-5.268 2.742.001 4.509 2.101 4.509 5.075zm-7.783.164c0 2.143 1.16 4.062 3.2 4.062 2.054 0 3.215-1.89 3.215-4.167 0-1.994-1.042-4.077-3.2-4.077-2.14 0-3.211 1.979-3.211 4.182z" class="cls-1" data-name="Path 71"/>
            <path id="Path_72" d="M541.885 115.2a12.453 12.453 0 0 1 2.366-.209 4.144 4.144 0 0 1 2.753.73 2.1 2.1 0 0 1 .834 1.771 2.382 2.382 0 0 1-1.7 2.2v.03a2.585 2.585 0 0 1 2.069 2.515 2.7 2.7 0 0 1-.849 2.009 5.035 5.035 0 0 1-3.467.937 15.047 15.047 0 0 1-2.009-.119zm1.295 4.107h1.175c1.369 0 2.173-.714 2.173-1.681 0-1.176-.893-1.637-2.2-1.637a5.523 5.523 0 0 0-1.145.089zm0 4.807a6.869 6.869 0 0 0 1.086.059c1.339 0 2.574-.49 2.574-1.949 0-1.369-1.175-1.935-2.589-1.935h-1.071z" class="cls-1" data-name="Path 72"/>
            <path id="Path_73" d="M551.572 121.938l-1.041 3.155h-1.34l3.408-10.03h1.563l3.422 10.03H556.2l-1.071-3.155zm3.289-1.012l-.982-2.887c-.223-.654-.372-1.25-.521-1.83h-.03c-.149.6-.312 1.205-.506 1.815l-.982 2.9z" class="cls-1" data-name="Path 73"/>
            <path id="Path_74" d="M559.057 115.063h1.295v8.944h4.286v1.086h-5.581z" class="cls-1" data-name="Path 74"/>
            <path id="Path_75" d="M577.688 120.688c-.075-1.4-.164-3.08-.149-4.33h-.044c-.343 1.175-.76 2.425-1.265 3.809l-1.771 4.867h-.983l-1.622-4.778c-.476-1.413-.878-2.708-1.16-3.9h-.03c-.03 1.25-.1 2.931-.194 4.434l-.268 4.3h-1.235l.7-10.03h1.652l1.711 4.851c.417 1.235.759 2.337 1.012 3.378h.045c.253-1.011.61-2.113 1.056-3.378l1.786-4.851h1.652l.625 10.03h-1.265z" class="cls-1" data-name="Path 75"/>
            <path id="Path_76" d="M582.672 121.938l-1.041 3.155h-1.34l3.408-10.03h1.563l3.422 10.03H587.3l-1.072-3.155zm3.289-1.012l-.982-2.887c-.223-.654-.372-1.25-.521-1.83h-.03c-.148.6-.312 1.205-.506 1.815l-.982 2.9z" class="cls-1" data-name="Path 76"/>
            <path id="Path_77" d="M590.157 115.2a13.486 13.486 0 0 1 2.486-.209 4.1 4.1 0 0 1 2.9.819 2.5 2.5 0 0 1 .789 1.9 2.635 2.635 0 0 1-1.89 2.56v.044a2.5 2.5 0 0 1 1.473 2.024 15.923 15.923 0 0 0 .775 2.753h-1.34a12.933 12.933 0 0 1-.669-2.4c-.3-1.384-.834-1.9-2.01-1.949h-1.22v4.345h-1.3zm1.3 4.569h1.325c1.384 0 2.261-.76 2.261-1.9 0-1.295-.937-1.861-2.306-1.875a5.378 5.378 0 0 0-1.28.118z" class="cls-1" data-name="Path 77"/>
            <path id="Path_78" d="M598.163 115.063h1.295v4.837h.044c.268-.388.536-.745.789-1.072l3.066-3.765h1.607l-3.631 4.256 3.914 5.774h-1.533l-3.3-4.926-.952 1.1v3.825h-1.295z" class="cls-1" data-name="Path 78"/>
            <path id="Path_79" d="M611.422 120.39h-3.9v3.617h4.345v1.086h-5.64v-10.03h5.417v1.086h-4.122v3.17h3.9z" class="cls-1" data-name="Path 79"/>
            <path id="Path_80" d="M615.692 116.164h-3.051v-1.1h7.426v1.1H617v8.929h-1.31z" class="cls-1" data-name="Path 80"/>
            <path id="Path_81" d="M620.915 123.516a4.593 4.593 0 0 0 2.322.654c1.324 0 2.1-.7 2.1-1.711 0-.938-.535-1.473-1.89-1.994-1.637-.581-2.649-1.429-2.649-2.842 0-1.563 1.295-2.724 3.244-2.724a4.562 4.562 0 0 1 2.218.491l-.357 1.057a3.99 3.99 0 0 0-1.903-.477c-1.369 0-1.89.819-1.89 1.5 0 .937.61 1.4 1.994 1.934 1.7.655 2.56 1.474 2.56 2.947 0 1.548-1.146 2.887-3.513 2.887a5.184 5.184 0 0 1-2.559-.64z" class="cls-1" data-name="Path 81"/>
        </g>
    </g>
</svg>
