<svg xmlns="http://www.w3.org/2000/svg" width="135.216" height="54.163" viewBox="0 0 135.216 54.163">
    <defs>
        <style>
            .prefix__cls-1{fill:#fff}
        </style>
    </defs>
    <g id="prefix__Group_674" data-name="Group 674" transform="translate(-32.556 -14.459)">
        <g id="prefix__Group_672" data-name="Group 672">
            <g id="prefix__Group_671" data-name="Group 671">
                <path id="prefix__Path_439" d="M37.479 63.137h-1.954v5.415h-1.012v-5.415h-1.957v-.848h4.923z" class="prefix__cls-1" data-name="Path 439"/>
                <path id="prefix__Path_440" d="M43.115 68.552h-.909a.418.418 0 0 1-.391-.209l-1.461-2.11a.5.5 0 0 0-.162-.156.554.554 0 0 0-.26-.048h-.566v2.523h-1.017v-6.263h1.843a3.95 3.95 0 0 1 1.064.126 2.02 2.02 0 0 1 .732.359 1.406 1.406 0 0 1 .424.559 1.962 1.962 0 0 1 .04 1.335 1.715 1.715 0 0 1-.283.513 1.8 1.8 0 0 1-.454.4 2.334 2.334 0 0 1-.613.266 1.02 1.02 0 0 1 .321.317zm-2.949-3.262a1.951 1.951 0 0 0 .609-.085 1.242 1.242 0 0 0 .435-.237.959.959 0 0 0 .261-.363 1.216 1.216 0 0 0 .087-.468.942.942 0 0 0-.339-.783 1.641 1.641 0 0 0-1.027-.269h-.826v2.205z" class="prefix__cls-1" data-name="Path 440"/>
                <path id="prefix__Path_441" d="M49.112 68.552h-.787a.331.331 0 0 1-.217-.068.435.435 0 0 1-.126-.167l-.522-1.383h-2.7l-.523 1.383a.4.4 0 0 1-.122.161.323.323 0 0 1-.217.074h-.787l2.489-6.263h1.03zM47.186 66.2l-.862-2.287a6.6 6.6 0 0 1-.213-.675c-.032.136-.066.262-.1.377s-.072.215-.1.3l-.86 2.283z" class="prefix__cls-1" data-name="Path 441"/>
                <path id="prefix__Path_442" d="M55.341 65.42a3.427 3.427 0 0 1-.227 1.272 2.8 2.8 0 0 1-1.624 1.631 3.433 3.433 0 0 1-1.281.229h-2.365v-6.263h2.365a3.453 3.453 0 0 1 1.281.228 2.8 2.8 0 0 1 1.624 1.631 3.431 3.431 0 0 1 .227 1.272zm-1.039 0a2.994 2.994 0 0 0-.147-.97 2 2 0 0 0-.417-.726 1.809 1.809 0 0 0-.659-.454 2.271 2.271 0 0 0-.87-.159h-1.344v4.619h1.344a2.29 2.29 0 0 0 .87-.157 1.785 1.785 0 0 0 .659-.454 2.025 2.025 0 0 0 .417-.726 2.991 2.991 0 0 0 .145-.973z" class="prefix__cls-1" data-name="Path 442"/>
                <path id="prefix__Path_443" d="M57.481 68.552h-1.022v-6.263h1.022z" class="prefix__cls-1" data-name="Path 443"/>
                <path id="prefix__Path_444" d="M64.152 62.289v6.263h-.517a.438.438 0 0 1-.2-.042.475.475 0 0 1-.157-.136l-3.44-4.419c.009.084.016.167.02.25s.006.158.006.228v4.119h-.895v-6.263h.53a.855.855 0 0 1 .11.006.34.34 0 0 1 .085.024.246.246 0 0 1 .075.053.872.872 0 0 1 .074.086l3.444 4.424c-.009-.09-.015-.179-.019-.266s-.007-.168-.007-.243v-4.084z" class="prefix__cls-1" data-name="Path 444"/>
                <path id="prefix__Path_445" d="M70.772 65.468v2.479a3.623 3.623 0 0 1-2.174.675 3.8 3.8 0 0 1-1.377-.238 3.059 3.059 0 0 1-1.051-.661 2.9 2.9 0 0 1-.669-1.011 3.438 3.438 0 0 1-.235-1.292 3.592 3.592 0 0 1 .226-1.3 2.873 2.873 0 0 1 .648-1.013 2.907 2.907 0 0 1 1.017-.657 3.665 3.665 0 0 1 1.34-.233 3.953 3.953 0 0 1 .7.059 3.515 3.515 0 0 1 .6.163 2.79 2.79 0 0 1 .944.583l-.292.465a.288.288 0 0 1-.178.135.3.3 0 0 1-.235-.052l-.267-.156a2.241 2.241 0 0 0-.325-.155 2.278 2.278 0 0 0-.422-.117 2.988 2.988 0 0 0-.564-.046 2.34 2.34 0 0 0-.895.163 1.925 1.925 0 0 0-.68.465 2.07 2.07 0 0 0-.435.733 2.879 2.879 0 0 0-.152.961 2.927 2.927 0 0 0 .161 1 2.113 2.113 0 0 0 .456.748 1.956 1.956 0 0 0 .716.467 2.584 2.584 0 0 0 .937.161 2.633 2.633 0 0 0 .69-.082 3.143 3.143 0 0 0 .594-.231v-1.239h-.874a.219.219 0 0 1-.158-.054.191.191 0 0 1-.056-.142v-.578z" class="prefix__cls-1" data-name="Path 445"/>
                <path id="prefix__Path_446" d="M78.192 63.137h-1.954v5.415h-1.012v-5.415h-1.957v-.848h4.923z" class="prefix__cls-1" data-name="Path 446"/>
                <path id="prefix__Path_447" d="M84.245 62.289v6.263h-1.017v-2.788h-3.145v2.788h-1.021v-6.263h1.021v2.74h3.145v-2.74z" class="prefix__cls-1" data-name="Path 447"/>
                <path id="prefix__Path_448" d="M89.647 67.73v.822h-3.91v-6.263h3.906v.822h-2.884V65h2.306v.795h-2.306v1.935z" class="prefix__cls-1" data-name="Path 448"/>
                <path id="prefix__Path_449" d="M98.04 65.468v2.479a3.623 3.623 0 0 1-2.174.675 3.807 3.807 0 0 1-1.377-.238 3.054 3.054 0 0 1-1.05-.661 2.9 2.9 0 0 1-.669-1.011 3.419 3.419 0 0 1-.236-1.292 3.571 3.571 0 0 1 .227-1.3 2.871 2.871 0 0 1 .647-1.013 2.911 2.911 0 0 1 1.018-.657 3.661 3.661 0 0 1 1.34-.233 3.953 3.953 0 0 1 .7.059 3.479 3.479 0 0 1 .6.163 2.888 2.888 0 0 1 .514.252 2.947 2.947 0 0 1 .431.331l-.292.465a.29.29 0 0 1-.178.135.3.3 0 0 1-.235-.052l-.268-.156a2.227 2.227 0 0 0-.324-.155 2.3 2.3 0 0 0-.422-.117 3 3 0 0 0-.564-.046 2.336 2.336 0 0 0-.9.163 1.929 1.929 0 0 0-.681.465 2.068 2.068 0 0 0-.434.733 2.854 2.854 0 0 0-.153.961 2.9 2.9 0 0 0 .162 1 2.1 2.1 0 0 0 .456.748 1.952 1.952 0 0 0 .715.467 2.59 2.59 0 0 0 .938.161 2.625 2.625 0 0 0 .689-.082 3.092 3.092 0 0 0 .594-.231v-1.239h-.874a.219.219 0 0 1-.157-.054.191.191 0 0 1-.057-.142v-.578z" class="prefix__cls-1" data-name="Path 449"/>
                <path id="prefix__Path_450" d="M102.863 67.7v.853h-3.618v-6.264h1.018V67.7z" class="prefix__cls-1" data-name="Path 450"/>
                <path id="prefix__Path_451" d="M109.37 65.42a3.555 3.555 0 0 1-.225 1.283 2.972 2.972 0 0 1-.638 1.011 2.916 2.916 0 0 1-.987.664 3.539 3.539 0 0 1-2.557 0 2.889 2.889 0 0 1-1.629-1.675 3.755 3.755 0 0 1 0-2.566 2.952 2.952 0 0 1 .639-1.013 2.919 2.919 0 0 1 .99-.666 3.539 3.539 0 0 1 2.557 0 2.906 2.906 0 0 1 .987.666 3.01 3.01 0 0 1 .638 1.013 3.562 3.562 0 0 1 .225 1.283zm-1.039 0a3.051 3.051 0 0 0-.145-.97 2.075 2.075 0 0 0-.418-.73 1.809 1.809 0 0 0-.66-.461 2.418 2.418 0 0 0-1.735 0 1.847 1.847 0 0 0-.661.461 2.067 2.067 0 0 0-.422.73 3.29 3.29 0 0 0 0 1.945 2.041 2.041 0 0 0 .422.728 1.838 1.838 0 0 0 .661.457 2.461 2.461 0 0 0 1.735 0 1.8 1.8 0 0 0 .66-.457 2.048 2.048 0 0 0 .418-.728 3.069 3.069 0 0 0 .145-.975z" class="prefix__cls-1" data-name="Path 451"/>
                <path id="prefix__Path_452" d="M112.567 62.289a3.968 3.968 0 0 1 1.027.115 1.97 1.97 0 0 1 .7.328 1.284 1.284 0 0 1 .4.52 1.785 1.785 0 0 1 .128.689 1.375 1.375 0 0 1-.067.429 1.237 1.237 0 0 1-.209.387 1.54 1.54 0 0 1-.354.324 2.031 2.031 0 0 1-.5.239q1.329.284 1.331 1.414a1.767 1.767 0 0 1-.151.733 1.619 1.619 0 0 1-.434.574 2.06 2.06 0 0 1-.7.376 3.1 3.1 0 0 1-.953.135h-2.3v-6.263zm-1.065.8v1.957h1.018a1.563 1.563 0 0 0 .973-.252.869.869 0 0 0 .323-.727.883.883 0 0 0-.3-.748 1.573 1.573 0 0 0-.947-.23zm1.261 4.662a1.843 1.843 0 0 0 .581-.08 1.065 1.065 0 0 0 .387-.22.817.817 0 0 0 .217-.328 1.2 1.2 0 0 0 .068-.407.864.864 0 0 0-.3-.7 1.465 1.465 0 0 0-.954-.254H111.5v1.987z" class="prefix__cls-1" data-name="Path 452"/>
                <path id="prefix__Path_453" d="M121.309 68.552h-.787a.334.334 0 0 1-.218-.068.435.435 0 0 1-.126-.167l-.522-1.383h-2.7l-.522 1.383a.423.423 0 0 1-.122.161.324.324 0 0 1-.217.074h-.787l2.483-6.263h1.03zm-1.927-2.352l-.861-2.287a6.134 6.134 0 0 1-.213-.675c-.033.136-.067.262-.1.377s-.072.215-.1.3l-.861 2.283z" class="prefix__cls-1" data-name="Path 453"/>
                <path id="prefix__Path_454" d="M125.658 67.7v.853h-3.618v-6.264h1.018V67.7z" class="prefix__cls-1" data-name="Path 454"/>
                <path id="prefix__Path_455" d="M135.1 62.289v6.263h-.9v-4.293c0-.07 0-.146.007-.228s.011-.166.02-.25l-2.009 3.719a.383.383 0 0 1-.361.231h-.144a.376.376 0 0 1-.36-.231l-2.045-3.727c.009.084.015.168.019.252s.007.163.007.235v4.293h-.9v-6.264h.76a.712.712 0 0 1 .209.024.264.264 0 0 1 .135.145l2.009 3.641c.044.084.085.17.124.258s.075.18.106.272c.035-.092.073-.185.112-.276s.08-.179.124-.263L134 62.458a.264.264 0 0 1 .135-.145.712.712 0 0 1 .209-.024z" class="prefix__cls-1" data-name="Path 455"/>
                <path id="prefix__Path_456" d="M141.829 68.552h-.787a.336.336 0 0 1-.218-.068.456.456 0 0 1-.126-.167l-.521-1.383h-2.7l-.523 1.383a.4.4 0 0 1-.122.161.324.324 0 0 1-.217.074h-.787l2.484-6.263h1.03zM139.9 66.2l-.861-2.287a6.358 6.358 0 0 1-.213-.675c-.032.136-.066.262-.1.377s-.073.215-.1.3l-.86 2.283z" class="prefix__cls-1" data-name="Path 456"/>
                <path id="prefix__Path_457" d="M147.327 68.552h-.909a.421.421 0 0 1-.392-.209l-1.46-2.11a.494.494 0 0 0-.162-.156.554.554 0 0 0-.26-.048h-.566v2.523h-1.017v-6.263h1.839a3.95 3.95 0 0 1 1.064.126 2.02 2.02 0 0 1 .732.359 1.406 1.406 0 0 1 .424.559 1.962 1.962 0 0 1 .04 1.335 1.715 1.715 0 0 1-.283.513 1.8 1.8 0 0 1-.454.4 2.334 2.334 0 0 1-.613.266 1.02 1.02 0 0 1 .321.317zm-2.949-3.262a1.956 1.956 0 0 0 .609-.085 1.242 1.242 0 0 0 .435-.237.959.959 0 0 0 .261-.363 1.216 1.216 0 0 0 .087-.468.942.942 0 0 0-.339-.783 1.641 1.641 0 0 0-1.027-.269h-.826v2.205z" class="prefix__cls-1" data-name="Path 457"/>
                <path id="prefix__Path_458" d="M149.1 64.968h.291a.663.663 0 0 0 .269-.046.513.513 0 0 0 .188-.145l1.9-2.262a.6.6 0 0 1 .206-.176.638.638 0 0 1 .268-.05h.87l-2.24 2.644a1.587 1.587 0 0 1-.176.19.79.79 0 0 1-.186.123.818.818 0 0 1 .236.133 1.19 1.19 0 0 1 .2.224l2.322 2.949h-.887a.944.944 0 0 1-.163-.013.446.446 0 0 1-.117-.039.38.38 0 0 1-.087-.065.524.524 0 0 1-.067-.088l-1.958-2.392a.757.757 0 0 0-.087-.1.387.387 0 0 0-.1-.065.566.566 0 0 0-.132-.037 1.275 1.275 0 0 0-.174-.01h-.376v2.805h-1.018v-6.259h1.018z" class="prefix__cls-1" data-name="Path 458"/>
                <path id="prefix__Path_459" d="M157.86 67.73v.822h-3.906v-6.263h3.906v.822h-2.884V65h2.3v.795h-2.3v1.935z" class="prefix__cls-1" data-name="Path 459"/>
                <path id="prefix__Path_460" d="M163.271 63.137h-1.954v5.415H160.3v-5.415h-1.957v-.848h4.923z" class="prefix__cls-1" data-name="Path 460"/>
                <path id="prefix__Path_461" d="M167.4 63.359a.419.419 0 0 1-.1.115.218.218 0 0 1-.131.037.332.332 0 0 1-.184-.07c-.069-.046-.153-.1-.252-.154a2.241 2.241 0 0 0-.355-.157 1.5 1.5 0 0 0-.487-.071 1.482 1.482 0 0 0-.459.065.954.954 0 0 0-.333.183.748.748 0 0 0-.2.276.872.872 0 0 0-.068.346.622.622 0 0 0 .126.4 1.092 1.092 0 0 0 .333.271 2.606 2.606 0 0 0 .472.2c.177.057.357.117.542.181s.364.136.541.217a1.834 1.834 0 0 1 .472.309 1.426 1.426 0 0 1 .333.456 1.549 1.549 0 0 1 .126.657 2.112 2.112 0 0 1-.144.783 1.844 1.844 0 0 1-.415.637 1.935 1.935 0 0 1-.67.429 2.471 2.471 0 0 1-.907.157 2.91 2.91 0 0 1-.585-.059 3.085 3.085 0 0 1-.543-.166 2.706 2.706 0 0 1-.485-.258 2.447 2.447 0 0 1-.4-.34l.3-.487a.3.3 0 0 1 .1-.1.271.271 0 0 1 .135-.034.375.375 0 0 1 .221.093c.082.062.18.131.294.2a2.168 2.168 0 0 0 .415.205 1.62 1.62 0 0 0 .583.094 1.24 1.24 0 0 0 .855-.27.945.945 0 0 0 .3-.744.7.7 0 0 0-.126-.432 1.014 1.014 0 0 0-.333-.281 2.433 2.433 0 0 0-.471-.192c-.177-.051-.357-.108-.54-.167a5.041 5.041 0 0 1-.539-.209 1.7 1.7 0 0 1-.472-.313 1.443 1.443 0 0 1-.333-.478 1.763 1.763 0 0 1-.126-.712 1.693 1.693 0 0 1 .52-1.219 1.894 1.894 0 0 1 .628-.394 2.318 2.318 0 0 1 .853-.148 2.786 2.786 0 0 1 .989.17 2.258 2.258 0 0 1 .777.483z" class="prefix__cls-1" data-name="Path 461"/>
            </g>
        </g>
        <g id="prefix__Group_673" data-name="Group 673">
            <path id="prefix__Path_462" d="M47.093 42.9h-7.326v8.413h-6.718V28.838H49.3v5.351h-9.533v3.655h7.326V42.9z" class="prefix__cls-1" data-name="Path 462"/>
            <path id="prefix__Path_463" d="M57.419 34.222v17.089H50.85V34.222z" class="prefix__cls-1" data-name="Path 463"/>
            <path id="prefix__Path_464" d="M75.389 51.311H68.82V40.774a2.343 2.343 0 0 0-.4-1.663 1.462 1.462 0 0 0-1.013-.362q-1.794 0-1.794 2.5v10.062h-6.572V34.567h6.091v2.371a4.913 4.913 0 0 1 4.824-2.716 6.284 6.284 0 0 1 3.087.7 4.189 4.189 0 0 1 1.8 1.811 9.638 9.638 0 0 1 .543 3.861v10.717z" class="prefix__cls-1" data-name="Path 464"/>
            <path id="prefix__Path_465" d="M87.754 40.708a3.008 3.008 0 0 0-.56-1.951 1.648 1.648 0 0 0-1.3-.683 1.755 1.755 0 0 0-1.614 1.037 9.1 9.1 0 0 0-.56 3.869 8.4 8.4 0 0 0 .552 3.77 1.663 1.663 0 0 0 1.473.922 2.051 2.051 0 0 0 1.367-.559 2.428 2.428 0 0 0 .642-1.91v-4.495zm6.47 15.892h-6.47v-7.08a4.009 4.009 0 0 1-3.951 2.14 5.867 5.867 0 0 1-5.022-2.419A10.279 10.279 0 0 1 77 43a10.29 10.29 0 0 1 1.861-6.207 6.424 6.424 0 0 1 5.564-2.568q3.623 0 5.071 2.617a14.228 14.228 0 0 0 1.087-2.272h3.8a11.545 11.545 0 0 0-.165 2.272V56.6z" class="prefix__cls-1" data-name="Path 465"/>
            <path id="prefix__Path_466" d="M115 44.561l5.6.477a7.526 7.526 0 0 1-2.462 4.775 7.939 7.939 0 0 1-5.49 1.843 8.235 8.235 0 0 1-8.627-8.593 8.819 8.819 0 0 1 2.379-6.347 8.155 8.155 0 0 1 6.182-2.494 7.974 7.974 0 0 1 5.5 1.885 7.193 7.193 0 0 1 2.436 4.766l-5.746.477q-.362-2.65-2.008-2.65a1.615 1.615 0 0 0-1.54.963 8.146 8.146 0 0 0-.485 3.35 7.252 7.252 0 0 0 .485 3.046 1.726 1.726 0 0 0 1.688.988q1.761 0 2.091-2.486z" class="prefix__cls-1" data-name="Path 466"/>
            <path id="prefix__Path_467" d="M131.111 47.672a1.763 1.763 0 0 0 1.869-1.588 15.928 15.928 0 0 0 .337-3.318 8.736 8.736 0 0 0-.477-3.391 1.878 1.878 0 0 0-3.375.033 8.541 8.541 0 0 0-.527 3.523 8.7 8.7 0 0 0 .543 3.811 1.77 1.77 0 0 0 1.63.93zm-.1 3.984a8.677 8.677 0 0 1-6.618-2.592 8.565 8.565 0 0 1-2.453-6.084 8.39 8.39 0 0 1 2.56-6.256 10.142 10.142 0 0 1 13.3-.033 8.326 8.326 0 0 1 2.511 6.191 8.446 8.446 0 0 1-2.543 6.264 9.2 9.2 0 0 1-6.759 2.51z" class="prefix__cls-1" data-name="Path 467"/>
            <path id="prefix__Path_468" d="M167.338 51.311h-6.371V40.84a2.616 2.616 0 0 0-.3-1.473 1.245 1.245 0 0 0-1.078-.42q-1.845 0-1.844 2.683v9.681h-6.306V40.84q0-2.009-1.548-2.009-1.6 0-1.6 2.009v10.471h-6.322V34.567h5.9v2.256a5.063 5.063 0 0 1 4.593-2.6 5 5 0 0 1 4.709 2.6 5.493 5.493 0 0 1 5-2.6 5.8 5.8 0 0 1 2.84.675 4.216 4.216 0 0 1 1.779 1.737 7.433 7.433 0 0 1 .551 3.284v11.392z" class="prefix__cls-1" data-name="Path 468"/>
            <path id="prefix__Path_469" d="M102.236 48.306a3 3 0 1 1-3-3 3 3 0 0 1 3 3z" class="prefix__cls-1" data-name="Path 469"/>
            <path id="prefix__Path_470" d="M57.052 29.68a3 3 0 1 1-3-3 3 3 0 0 1 3 3z" class="prefix__cls-1" data-name="Path 470"/>
            <path id="prefix__Path_471" d="M54.422 24.533a34.828 34.828 0 0 1 5.167-3.05 57.221 57.221 0 0 1 5.533-2.358c1.883-.694 3.8-1.29 5.74-1.815.969-.263 1.943-.51 2.924-.727s1.963-.426 2.95-.609 1.978-.354 2.971-.5 1.989-.281 2.987-.4q3-.336 6.006-.49l1.506-.066c.5-.013 1-.035 1.506-.041 1-.016 2.009-.022 3.013-.008q3.012.033 6.02.228c.5.029 1 .067 1.5.106l.751.058.751.071c1 .094 2 .213 3 .34q2.991.4 5.951 1c.984.206 1.966.429 2.941.676.488.118.973.253 1.46.379s.971.265 1.452.409c1.932.562 3.843 1.194 5.72 1.918s3.726 1.512 5.537 2.383 3.578 1.83 5.3 2.859 3.393 2.147 5 3.348a39.214 39.214 0 0 1 4.549 3.915c-.738-.675-1.522-1.294-2.317-1.895s-1.607-1.181-2.434-1.736q-2.478-1.671-5.1-3.1t-5.341-2.649q-2.718-1.221-5.528-2.218c-1.872-.66-3.763-1.265-5.677-1.789s-3.848-.971-5.791-1.366-3.905-.707-5.873-.96-3.944-.42-5.928-.56a103.847 103.847 0 0 0-23.771.985A78.631 78.631 0 0 0 65.31 19.66q-1.419.46-2.817.986t-2.767 1.124q-1.371.6-2.7 1.278a27.241 27.241 0 0 0-2.6 1.483z" class="prefix__cls-1" data-name="Path 471"/>
        </g>
    </g>
</svg>
