<svg xmlns="http://www.w3.org/2000/svg" width="93.71" height="29.404" viewBox="0 0 93.71 29.404">
    <defs>
        <style>
            .cls-1{fill:#fff}
        </style>
    </defs>
    <g id="Group_546" data-name="Group 546" transform="translate(-140.645 -4690.224)">
        <path id="Path_309" d="M150.445 4710.069h-5.112v5.871h-4.688v-15.682h11.34v3.734h-6.652v2.55h5.112v3.527z" class="cls-1" data-name="Path 309"/>
        <path id="Path_310" d="M157.651 4704.015v11.925h-4.584v-11.925z" class="cls-1" data-name="Path 310"/>
        <path id="Path_311" d="M170.191 4715.94h-4.584v-7.353a1.628 1.628 0 0 0-.282-1.16 1.016 1.016 0 0 0-.706-.253q-1.253 0-1.253 1.746v7.02h-4.584v-11.684h4.251v1.654a3.429 3.429 0 0 1 3.366-1.9 4.371 4.371 0 0 1 2.154.488 2.914 2.914 0 0 1 1.258 1.264 6.713 6.713 0 0 1 .38 2.694v7.479z" class="cls-1" data-name="Path 311"/>
        <path id="Path_312" d="M178.819 4708.541a2.1 2.1 0 0 0-.39-1.361 1.15 1.15 0 0 0-.908-.477 1.225 1.225 0 0 0-1.126.724 6.352 6.352 0 0 0-.39 2.7 5.874 5.874 0 0 0 .384 2.63 1.161 1.161 0 0 0 1.029.644 1.426 1.426 0 0 0 .953-.391 1.689 1.689 0 0 0 .448-1.332v-3.137zm4.515 11.087h-4.515v-4.94a2.8 2.8 0 0 1-2.757 1.493 4.092 4.092 0 0 1-3.5-1.689 8.062 8.062 0 0 1 .057-8.685 4.483 4.483 0 0 1 3.884-1.792 3.7 3.7 0 0 1 3.538 1.826 9.844 9.844 0 0 0 .758-1.585h2.654a8.113 8.113 0 0 0-.115 1.585v13.787z" class="cls-1" data-name="Path 312"/>
        <path id="Path_313" d="M197.834 4711.23l3.906.333a5.246 5.246 0 0 1-1.717 3.332 5.547 5.547 0 0 1-3.832 1.286 5.749 5.749 0 0 1-6.02-6 6.159 6.159 0 0 1 1.66-4.429 5.7 5.7 0 0 1 4.314-1.74 5.567 5.567 0 0 1 3.838 1.315 5.022 5.022 0 0 1 1.7 3.326l-4.01.333q-.252-1.849-1.4-1.849a1.124 1.124 0 0 0-1.074.672 5.671 5.671 0 0 0-.339 2.338 5.047 5.047 0 0 0 .339 2.125 1.2 1.2 0 0 0 1.177.689q1.23 0 1.459-1.734z" class="cls-1" data-name="Path 313"/>
        <path id="Path_314" d="M209.075 4713.4a1.23 1.23 0 0 0 1.3-1.109 11.116 11.116 0 0 0 .235-2.315 6.091 6.091 0 0 0-.333-2.366 1.2 1.2 0 0 0-1.2-.724 1.217 1.217 0 0 0-1.16.747 5.97 5.97 0 0 0-.368 2.458 6.083 6.083 0 0 0 .379 2.66 1.235 1.235 0 0 0 1.138.649zm-.069 2.78a6.058 6.058 0 0 1-4.619-1.809 5.98 5.98 0 0 1-1.711-4.245 5.852 5.852 0 0 1 1.786-4.366 7.078 7.078 0 0 1 9.283-.023 5.812 5.812 0 0 1 1.752 4.32 5.893 5.893 0 0 1-1.775 4.371 6.42 6.42 0 0 1-4.716 1.752z" class="cls-1" data-name="Path 314"/>
        <path id="Path_315" d="M234.355 4715.94h-4.446v-7.307a1.823 1.823 0 0 0-.213-1.028.869.869 0 0 0-.752-.293q-1.287 0-1.287 1.872v6.756h-4.4v-7.307q0-1.4-1.08-1.4-1.114 0-1.115 1.4v7.307h-4.411v-11.684h4.113v1.574a3.533 3.533 0 0 1 3.2-1.815 3.491 3.491 0 0 1 3.286 1.815 3.834 3.834 0 0 1 3.492-1.815 4.043 4.043 0 0 1 1.982.471 2.935 2.935 0 0 1 1.241 1.212 5.185 5.185 0 0 1 .385 2.292v7.95z" class="cls-1" data-name="Path 315"/>
        <path id="Path_316" d="M188.925 4713.843a2.1 2.1 0 1 1-2.1-2.1 2.1 2.1 0 0 1 2.1 2.1z" class="cls-1" data-name="Path 316"/>
        <path id="Path_317" d="M157.4 4700.846a2.1 2.1 0 1 1-2.1-2.1 2.1 2.1 0 0 1 2.1 2.1z" class="cls-1" data-name="Path 317"/>
        <path id="Path_318" d="M155.559 4697.254a24.333 24.333 0 0 1 3.606-2.129 40.061 40.061 0 0 1 3.861-1.645c1.314-.484 2.653-.9 4.006-1.267.676-.183 1.356-.356 2.04-.507s1.37-.3 2.059-.425 1.38-.247 2.073-.351 1.388-.2 2.084-.278q2.091-.235 4.192-.342l1.05-.046c.35-.01.7-.025 1.051-.029.7-.011 1.4-.015 2.1-.006q2.1.024 4.2.159c.35.021.7.047 1.049.074l.524.041.524.049c.7.066 1.4.149 2.092.238q2.088.278 4.152.7 1.032.215 2.053.472c.341.082.679.176 1.019.264s.677.185 1.013.286c1.348.392 2.682.833 3.991 1.338s2.6 1.055 3.865 1.663 2.5 1.277 3.7 2 2.368 1.5 3.488 2.335a27.29 27.29 0 0 1 3.174 2.733c-.514-.471-1.061-.9-1.616-1.323s-1.122-.824-1.7-1.211c-1.152-.778-2.342-1.5-3.56-2.164s-2.46-1.285-3.727-1.848a54.155 54.155 0 0 0-7.819-2.796c-1.335-.365-2.685-.678-4.042-.953s-2.724-.494-4.1-.67-2.753-.293-4.138-.391a72.455 72.455 0 0 0-16.588.688 54.737 54.737 0 0 0-8.085 1.945q-.99.321-1.966.689t-1.931.784q-.956.417-1.886.892a18.823 18.823 0 0 0-1.814 1.035z" class="cls-1" data-name="Path 318"/>
    </g>
</svg>
