<svg xmlns="http://www.w3.org/2000/svg" xmlns:xlink="http://www.w3.org/1999/xlink" width="125" height="44" viewBox="0 0 125 44"><symbol id="a" viewBox="-13.5 -10 27 20"><path fill="#3FA9F5" d="M8.903 4h-19.407v6h24.004l-4.597-6zm-17.808-8h19.405v-6h-24l4.595 6z"/><path fill="#7AC943" d="M-10.503 4l10.5-8h10.5l-10.5 8h-10.5z"/><path opacity=".4" enable-background="new" d="M-10.503 4l4.31-3.284 8.676 1.392-2.486 1.892h-10.5z"/></symbol><use xlink:href="#a" width="27" height="20" x="-13.5" y="-10" transform="matrix(1 0 0 -1 13.5 21.5)" overflow="visible"/><path fill="#2ECC71" d="M38.958 29.496v-1.814l6.356-11.083h-6.07v-2.235h9.598v1.836l-6.337 11.145h6.46v2.153l-10.007-.002zm12.796 0v-15.136h9.916v2.298h-6.88v4.02h6.101v2.194h-6.101v4.328h6.992v2.296h-10.028zm13.267 0v-15.136h2.287l7.862 10.378v-10.378h2.707v15.136h-2.285l-7.836-10.213v10.213h-2.735zm23.114.268c-2.967 0-4.922-.738-5.865-2.216-.533-.819-.799-1.883-.799-3.188v-4.735c0-2.125.659-3.612 1.979-4.46 1.085-.697 2.659-1.05 4.726-1.056 2.881 0 4.778.786 5.7 2.357.521.883.78 1.986.78 3.312v4.418c0 2.063-.65 3.557-1.948 4.472-1.04.728-2.563 1.096-4.573 1.096zm-2.697-2.984c.607.395 1.517.593 2.724.593s2.082-.196 2.625-.59c.544-.393.813-1.088.813-2.086v-5.487c0-.983-.273-1.682-.83-2.096-.554-.413-1.424-.62-2.607-.62s-2.088.205-2.707.615c-.62.41-.93 1.11-.93 2.1v5.484c0 .99.307 1.688.912 2.082v.005zm12.807 2.716v-15.136h2.286l7.865 10.378v-10.378h2.707v15.136h-2.287l-7.834-10.213v10.213h-2.737z"/></svg>