<svg xmlns="http://www.w3.org/2000/svg" xmlns:xlink="http://www.w3.org/1999/xlink" width="125" height="44" viewBox="0 0 125 44"><symbol id="a" viewBox="-13.502 -10 27.004 20"><path fill="#3FA9F5" d="M8.904 4h-19.407v6h24.005zm-17.808-8h19.404v-6h-24z"/><path fill="#7AC943" d="M-10.502 4l10.5-8h10.5l-10.5 8z"/><path opacity=".4" enable-background="new" d="M-10.502 4l4.31-3.284 8.676 1.39-2.486 1.894z"/></symbol><use xlink:href="#a" width="27.004" height="20" x="-13.502" y="-10" transform="matrix(1 0 0 -1 25.002 21.5)" overflow="visible"/><path d="M50.46 29.496v-1.814l6.356-11.085h-6.07v-2.235h9.598v1.836l-6.337 11.146h6.46v2.153h-10.007zm12.796 0v-15.136h9.916v2.298h-6.88v4.02h6.1v2.194h-6.1v4.328h6.992v2.296h-10.028zm13.268 0v-15.136h2.286l7.865 10.378v-10.378h2.707v15.136h-2.287l-7.835-10.213v10.213h-2.736zm23.113.267c-2.967 0-4.922-.738-5.865-2.215-.533-.82-.8-1.883-.8-3.188v-4.738c0-2.125.66-3.612 1.98-4.46 1.085-.697 2.66-1.05 4.726-1.056 2.878 0 4.778.786 5.7 2.357.52.883.78 1.986.78 3.312v4.42c0 2.064-.65 3.555-1.948 4.47-1.04.732-2.564 1.098-4.573 1.098zm-2.697-2.983c.608.395 1.515.593 2.722.593s2.082-.196 2.625-.59c.544-.393.815-1.088.815-2.086v-5.487c0-.983-.276-1.682-.83-2.096-.554-.413-1.425-.62-2.61-.62s-2.088.205-2.707.615-.928 1.11-.928 2.1v5.487c0 .99.305 1.686.912 2.082zm12.807 2.716v-15.136h2.286l7.865 10.378v-10.378h2.707v15.136h-2.287l-7.834-10.213v10.213h-2.737z" enable-background="new"/></svg>