<svg xmlns="http://www.w3.org/2000/svg" width="228.99" height="131.501" viewBox="0 0 228.99 131.501">
    <defs>
        <style>
            .cls-1{fill:#3eb2e1}
        </style>
    </defs>
    <g id="Group_3564" transform="translate(-1190.48 -190.319)">
        <path id="Path_1555" d="M1225.753 321.82c-.925-1.014-2.267-.862-3.427-1.155a42.362 42.362 0 0 1-17.944-9.445c-1.281-1.132-1.222-1.729.154-2.813q31.395-24.708 62.695-49.536a3.219 3.219 0 0 1 3.653-.629 15.815 15.815 0 0 0 12.1.2 2.649 2.649 0 0 1 3.066.7q14.438 12.633 28.952 25.176c1.065.921 1.009 1.914.785 3.109a17.087 17.087 0 0 0 7.96 18.045 17.493 17.493 0 0 0 18.578-.419c6.269-4.472 8.956-11.144 7.184-18.342a3.849 3.849 0 0 1 1.113-4.267q19.706-19.48 39.229-39.145c1.732-1.745 2.445-1.613 3.633.483a41.392 41.392 0 0 1 5.049 15.785 2.488 2.488 0 0 0 1.659 2.345c10.308 4.583 16.7 12.332 18.788 23.488.045.24.321.437.49.654v9.809c-.679 3.454-1.308 6.89-3.124 10.027-5.271 9.1-12.837 14.75-23.476 15.937z" class="cls-1"/>
        <path id="Path_1556" d="M1190.48 282.066c.077-23.96 17.549-42.339 39.658-43.211 2.314-.091 2.663-1.177 2.951-2.877a52.492 52.492 0 0 1 16.36-30.389c12.517-11.654 27.359-16.98 44.433-14.787 22.961 2.949 38.244 15.748 46.324 37.26.586 1.561.908 2.035 2.724 1.141q18.7-9.206 37 .984c1.812 1.007 2.106 1.656.493 3.252q-19.908 19.693-39.663 39.539c-1.022 1.023-1.873 1.587-3.481 1.053a15.223 15.223 0 0 0-10.192.324 2.463 2.463 0 0 1-2.87-.348q-14.641-12.841-29.387-25.564a2.653 2.653 0 0 1-.7-2.872c1.441-7.645-1.286-13.695-7.623-17.885a16.028 16.028 0 0 0-18.27-.214c-6.357 3.962-9.185 9.933-8.084 17.443a2.661 2.661 0 0 1-1.169 2.891q-31.044 24.461-62.023 49c-2.113 1.681-2.633 1.1-3.449-1.005a44.484 44.484 0 0 1-3.032-13.735z" class="cls-1"/>
    </g>
</svg>
