<?xml version="1.0" encoding="utf-8"?>
<!-- Generator: Adobe Illustrator 24.2.0, SVG Export Plug-In . SVG Version: 6.00 Build 0)  -->
<svg version="1.1" id="Layer_1" xmlns="http://www.w3.org/2000/svg" xmlns:xlink="http://www.w3.org/1999/xlink" x="0px" y="0px"
	 viewBox="0 0 220.1 96.6" style="enable-background:new 0 0 220.1 96.6;" xml:space="preserve">
<style type="text/css">
	.st0{fill:#FFFFFF;}
	.st1{fill:#DBAD60;}
</style>
<g>
	<g>
		<path class="st0" d="M23.8,49.3H11.9V63H1V26.5h26.4v8.7H11.9v5.9h11.9V49.3L23.8,49.3z"/>
		<path class="st0" d="M40.6,35.2v27.7H29.9V35.2H40.6z"/>
		<path class="st0" d="M69.8,62.9H59.1V45.8c0-1.4-0.2-2.3-0.6-2.7c-0.4-0.4-1-0.6-1.6-0.6c-1.9,0-2.9,1.4-2.9,4.1v16.3H43.2V35.8
			h9.9v3.9c1.5-2.9,4.1-4.4,7.8-4.4c2,0,3.6,0.4,5,1.1c1.4,0.8,2.3,1.7,2.9,2.9s0.9,3.3,0.9,6.3L69.8,62.9L69.8,62.9z"/>
		<path class="st0" d="M100.3,71.5H89.8V60c-1.2,2.3-3.3,3.5-6.4,3.5c-3.5,0-6.2-1.3-8.1-3.9c-1.9-2.6-2.9-6-2.9-10.1
			c0-3.9,1-7.3,3-10.1s5-4.2,9-4.2c3.9,0,6.7,1.4,8.2,4.2c0.7-1.3,1.3-2.5,1.8-3.7h6.2c-0.2,0.8-0.3,2.1-0.3,3.7L100.3,71.5
			L100.3,71.5z M89.8,45.7c0-1.4-0.3-2.4-0.9-3.2c-0.6-0.7-1.3-1.1-2.1-1.1c-1.1,0-2,0.6-2.6,1.7c-0.6,1.1-0.9,3.2-0.9,6.3
			s0.3,5.1,0.9,6.1s1.4,1.5,2.4,1.5c0.8,0,1.5-0.3,2.2-0.9c0.7-0.6,1-1.6,1-3.1V45.7z"/>
		<path class="st0" d="M134.1,52l9.1,0.8c-0.4,3.2-1.8,5.8-4,7.8s-5.2,3-8.9,3c-4.2,0-7.5-1.3-10.1-3.9c-2.6-2.6-3.9-6-3.9-10
			c0-4.2,1.3-7.6,3.9-10.3s5.9-4.1,10-4.1c3.7,0,6.6,1,8.9,3.1c2.3,2,3.6,4.6,4,7.7l-9.3,0.8c-0.4-2.9-1.5-4.3-3.3-4.3
			c-1.1,0-2,0.5-2.5,1.6c-0.5,1-0.8,2.9-0.8,5.4c0,2.2,0.3,3.9,0.8,5s1.4,1.6,2.7,1.6C132.6,56,133.7,54.7,134.1,52z"/>
		<path class="st0" d="M160.1,63.5c-4.5,0-8.1-1.4-10.7-4.2c-2.6-2.8-4-6.1-4-9.9c0-4.1,1.4-7.4,4.2-10.2c2.8-2.7,6.4-4.1,10.8-4.1
			c4.5,0,8.1,1.3,10.8,4s4.1,6,4.1,10c0,4.1-1.4,7.5-4.1,10.2C168.3,62.2,164.6,63.5,160.1,63.5z M160.2,57c1.7,0,2.7-0.9,3-2.6
			c0.4-1.7,0.5-3.5,0.5-5.4c0-2.5-0.3-4.4-0.8-5.5s-1.4-1.7-2.8-1.7c-1.2,0-2.1,0.6-2.7,1.7c-0.6,1.2-0.9,3.1-0.9,5.7
			c0,3.1,0.3,5.2,0.9,6.2C158.2,56.5,159,57,160.2,57z"/>
		<path class="st0" d="M219,62.9h-10.3v-17c0-1.1-0.2-1.9-0.5-2.4s-0.9-0.7-1.7-0.7c-2,0-3,1.4-3,4.4v15.7h-10.2v-17
			c0-2.2-0.8-3.3-2.5-3.3s-2.6,1.1-2.6,3.3v17h-10.3V35.8h9.6v3.7c1.7-2.8,4.2-4.2,7.5-4.2c3.5,0,6,1.4,7.6,4.2
			c1.8-2.8,4.5-4.2,8.1-4.2c1.7,0,3.3,0.4,4.6,1.1c1.3,0.7,2.3,1.7,2.9,2.8c0.6,1.2,0.9,2.9,0.9,5.3L219,62.9L219,62.9z"/>
		<circle class="st1" cx="108.5" cy="58.1" r="4.9"/>
		<circle class="st1" cx="35.1" cy="27.8" r="4.9"/>
		<g>
			<path class="st1" d="M35.7,19.5c2.6-1.9,5.5-3.5,8.4-5c2.9-1.4,5.9-2.7,9-3.8s6.2-2.1,9.3-3c1.6-0.4,3.2-0.8,4.7-1.1
				c1.6-0.4,3.2-0.7,4.8-1c1.6-0.3,3.2-0.6,4.8-0.8c1.6-0.3,3.2-0.5,4.9-0.6c3.2-0.4,6.5-0.6,9.7-0.8l2.4-0.1c0.8,0,1.6-0.1,2.4-0.1
				c1.6,0,3.3,0,4.9,0c3.3,0,6.5,0.2,9.8,0.4c0.8,0,1.6,0.1,2.4,0.2l1.2,0.1l1.2,0.1c1.6,0.2,3.2,0.4,4.9,0.5c3.2,0.4,6.5,1,9.7,1.6
				c1.6,0.3,3.2,0.7,4.8,1.1c0.8,0.2,1.6,0.4,2.4,0.6c0.8,0.2,1.6,0.4,2.3,0.7c3.1,0.9,6.2,1.9,9.3,3.1s6,2.4,9,3.9s5.8,3,8.6,4.6
				c2.8,1.7,5.5,3.5,8.1,5.4c2.6,2,5.1,4,7.4,6.4c-1.2-1.1-2.5-2.1-3.8-3.1s-2.6-1.9-4-2.8c-2.7-1.8-5.4-3.5-8.3-5
				c-2.8-1.6-5.7-3-8.7-4.3c-2.9-1.3-5.9-2.5-9-3.6c-3-1.1-6.1-2.1-9.2-2.9c-3.1-0.9-6.2-1.6-9.4-2.2s-6.3-1.2-9.5-1.6
				s-6.4-0.7-9.6-0.9C97.9,4.6,84.9,5,72.2,7.1c-6.4,1.1-12.7,2.5-18.8,4.5c-1.5,0.5-3.1,1-4.6,1.6s-3,1.2-4.5,1.8s-2.9,1.3-4.4,2.1
				C38.5,17.8,37.1,18.6,35.7,19.5z"/>
		</g>
	</g>
	<g>
		<path class="st0" d="M12.8,86.8V92c-0.7,0.5-1.4,0.9-2.2,1.1c-0.8,0.2-1.6,0.4-2.5,0.4c-1.1,0-2.1-0.2-2.9-0.5
			c-0.9-0.3-1.6-0.8-2.2-1.4c-0.6-0.6-1.1-1.3-1.4-2.2C1.2,88.5,1,87.5,1,86.5c0-1,0.2-2,0.5-2.8c0.3-0.8,0.8-1.6,1.4-2.2
			c0.6-0.6,1.3-1.1,2.2-1.4c0.9-0.3,1.8-0.5,2.9-0.5c0.5,0,1,0,1.5,0.1c0.5,0.1,0.9,0.2,1.3,0.3c0.4,0.1,0.8,0.3,1.1,0.5
			c0.3,0.2,0.6,0.4,0.9,0.7l-0.5,0.8c-0.1,0.1-0.2,0.2-0.3,0.2c-0.1,0-0.3,0-0.4-0.1c-0.2-0.1-0.3-0.2-0.5-0.3
			c-0.2-0.1-0.4-0.2-0.7-0.4c-0.3-0.1-0.6-0.2-1-0.3c-0.4-0.1-0.8-0.1-1.4-0.1c-0.8,0-1.5,0.1-2.1,0.4c-0.6,0.2-1.1,0.6-1.6,1.1
			c-0.4,0.5-0.8,1-1,1.7c-0.2,0.7-0.3,1.4-0.3,2.2c0,0.8,0.1,1.6,0.4,2.3s0.6,1.2,1,1.7c0.4,0.5,1,0.8,1.6,1.1
			c0.6,0.2,1.4,0.4,2.2,0.4c0.6,0,1.2-0.1,1.7-0.2c0.5-0.1,1-0.3,1.4-0.6v-3H9.1c-0.1,0-0.2,0-0.3-0.1c-0.1-0.1-0.1-0.2-0.1-0.3v-1
			H12.8z"/>
		<path class="st0" d="M24.3,83.7v9.6h-1c-0.2,0-0.4-0.1-0.5-0.3l-0.1-1c-0.4,0.5-0.9,0.8-1.4,1.1c-0.5,0.3-1.1,0.4-1.8,0.4
			c-0.5,0-1-0.1-1.4-0.3c-0.4-0.2-0.7-0.4-1-0.7c-0.3-0.3-0.5-0.7-0.6-1.1c-0.1-0.4-0.2-0.9-0.2-1.5v-6.1H18v6.1
			c0,0.7,0.2,1.3,0.5,1.7c0.3,0.4,0.8,0.6,1.5,0.6c0.5,0,1-0.1,1.4-0.4c0.4-0.2,0.8-0.6,1.2-1v-7H24.3z"/>
		<path class="st0" d="M30.1,79.4v13.9h-1.7V79.4H30.1z"/>
		<path class="st0" d="M34.8,93.3v-8.1L33.7,85c-0.1,0-0.2-0.1-0.3-0.1c-0.1-0.1-0.1-0.2-0.1-0.3v-0.7h1.5V83c0-0.5,0.1-1,0.2-1.5
			c0.2-0.4,0.4-0.8,0.7-1.1c0.3-0.3,0.6-0.5,1-0.7c0.4-0.2,0.9-0.2,1.4-0.2c0.4,0,0.8,0.1,1.2,0.2l0,0.8c0,0.2-0.1,0.2-0.2,0.2
			c-0.2,0-0.4,0-0.6,0c-0.3,0-0.6,0-0.8,0.1c-0.2,0.1-0.4,0.2-0.6,0.4c-0.2,0.2-0.3,0.4-0.4,0.7c-0.1,0.3-0.1,0.6-0.1,1v0.9h2.8v1.2
			h-2.7v8.2H34.8z"/>
		<path class="st0" d="M43.5,79.7v2.7l-0.2,1.5c0,0.2-0.1,0.4-0.2,0.5c-0.1,0.1-0.2,0.2-0.4,0.2c-0.2,0-0.3-0.1-0.4-0.2
			c-0.1-0.1-0.2-0.3-0.2-0.5L42,82.5v-2.7H43.5z"/>
		<path class="st0" d="M52.7,85.3c-0.1,0.1-0.2,0.2-0.3,0.2c-0.1,0-0.2,0-0.3-0.1c-0.1-0.1-0.3-0.1-0.4-0.2S51.3,85,51,84.9
			c-0.2-0.1-0.5-0.1-0.8-0.1c-0.3,0-0.5,0-0.8,0.1s-0.4,0.2-0.6,0.3c-0.2,0.1-0.3,0.3-0.4,0.4c-0.1,0.2-0.1,0.3-0.1,0.5
			c0,0.2,0.1,0.5,0.2,0.6c0.1,0.2,0.3,0.3,0.6,0.4c0.2,0.1,0.5,0.2,0.8,0.3s0.6,0.2,0.9,0.3c0.3,0.1,0.6,0.2,0.9,0.3
			c0.3,0.1,0.6,0.3,0.8,0.5c0.2,0.2,0.4,0.4,0.6,0.7c0.1,0.3,0.2,0.6,0.2,1c0,0.4-0.1,0.8-0.2,1.2c-0.2,0.4-0.4,0.7-0.7,1
			c-0.3,0.3-0.7,0.5-1.1,0.6c-0.4,0.2-1,0.2-1.5,0.2c-0.7,0-1.3-0.1-1.8-0.3c-0.5-0.2-1-0.5-1.4-0.8l0.4-0.6c0-0.1,0.1-0.1,0.2-0.2
			c0.1,0,0.2-0.1,0.3-0.1c0.1,0,0.2,0,0.4,0.1c0.1,0.1,0.3,0.2,0.5,0.3c0.2,0.1,0.4,0.2,0.7,0.3c0.3,0.1,0.6,0.1,1,0.1
			c0.3,0,0.6,0,0.9-0.1c0.2-0.1,0.4-0.2,0.6-0.3c0.2-0.1,0.3-0.3,0.4-0.5c0.1-0.2,0.1-0.4,0.1-0.6c0-0.3-0.1-0.5-0.2-0.7
			c-0.1-0.2-0.3-0.3-0.6-0.4c-0.2-0.1-0.5-0.2-0.8-0.3c-0.3-0.1-0.6-0.2-0.9-0.3c-0.3-0.1-0.6-0.2-0.9-0.3c-0.3-0.1-0.6-0.3-0.8-0.5
			c-0.2-0.2-0.4-0.4-0.6-0.7c-0.1-0.3-0.2-0.6-0.2-1c0-0.4,0.1-0.7,0.2-1.1c0.2-0.3,0.4-0.6,0.7-0.9c0.3-0.3,0.6-0.5,1.1-0.6
			c0.4-0.2,0.9-0.2,1.4-0.2c0.6,0,1.2,0.1,1.7,0.3c0.5,0.2,0.9,0.5,1.3,0.8L52.7,85.3z"/>
		<path class="st0" d="M65.1,81.2V86h5.6v1.5h-5.6v5.8h-1.8V79.7h8.3v1.5H65.1z"/>
		<path class="st0" d="M73.4,85.1c0.5-0.5,1.1-0.9,1.7-1.1c0.6-0.3,1.3-0.4,2-0.4c0.5,0,1,0.1,1.4,0.3c0.4,0.2,0.8,0.4,1,0.7
			c0.3,0.3,0.5,0.7,0.6,1.1c0.1,0.4,0.2,0.9,0.2,1.5v6.1h-0.7c-0.2,0-0.3,0-0.4-0.1c-0.1-0.1-0.2-0.2-0.2-0.3L78.9,92
			c-0.3,0.2-0.5,0.4-0.7,0.6c-0.2,0.2-0.5,0.3-0.8,0.5c-0.3,0.1-0.5,0.2-0.8,0.3c-0.3,0.1-0.6,0.1-1,0.1c-0.4,0-0.7-0.1-1-0.2
			c-0.3-0.1-0.6-0.3-0.9-0.5c-0.2-0.2-0.4-0.5-0.6-0.8c-0.1-0.3-0.2-0.7-0.2-1.1c0-0.4,0.1-0.7,0.3-1.1s0.5-0.7,1-0.9
			s1.1-0.5,1.8-0.7c0.7-0.2,1.7-0.3,2.8-0.3v-0.7c0-0.7-0.2-1.3-0.5-1.7c-0.3-0.4-0.8-0.6-1.4-0.6c-0.4,0-0.8,0.1-1,0.2
			s-0.5,0.2-0.7,0.3c-0.2,0.1-0.4,0.2-0.5,0.3c-0.1,0.1-0.3,0.2-0.4,0.2c-0.1,0-0.2,0-0.3-0.1c-0.1-0.1-0.2-0.1-0.2-0.2L73.4,85.1z
			 M78.8,89c-0.8,0-1.4,0.1-2,0.2c-0.5,0.1-1,0.2-1.3,0.4c-0.3,0.2-0.6,0.3-0.7,0.6c-0.2,0.2-0.2,0.5-0.2,0.7c0,0.3,0,0.5,0.1,0.7
			c0.1,0.2,0.2,0.3,0.3,0.4c0.1,0.1,0.3,0.2,0.5,0.3c0.2,0.1,0.4,0.1,0.6,0.1c0.3,0,0.6,0,0.8-0.1c0.2-0.1,0.5-0.1,0.7-0.3
			c0.2-0.1,0.4-0.2,0.6-0.4c0.2-0.2,0.4-0.3,0.6-0.5V89z"/>
		<path class="st0" d="M92.3,83.7l-3.9,9.6h-1.5L83,83.7h1.4c0.1,0,0.3,0,0.3,0.1c0.1,0.1,0.1,0.2,0.2,0.2l2.4,6.2
			c0.1,0.2,0.1,0.5,0.2,0.7c0.1,0.2,0.1,0.4,0.2,0.7c0.1-0.2,0.1-0.4,0.2-0.7c0.1-0.2,0.1-0.4,0.2-0.7l2.5-6.2
			c0-0.1,0.1-0.2,0.2-0.3c0.1-0.1,0.2-0.1,0.3-0.1H92.3z"/>
		<path class="st0" d="M99,83.5c0.7,0,1.3,0.1,1.9,0.3c0.6,0.2,1,0.6,1.4,1c0.4,0.4,0.7,0.9,0.9,1.6c0.2,0.6,0.3,1.3,0.3,2
			c0,0.8-0.1,1.4-0.3,2c-0.2,0.6-0.5,1.1-0.9,1.5c-0.4,0.4-0.9,0.8-1.4,1c-0.6,0.2-1.2,0.3-1.9,0.3c-0.7,0-1.3-0.1-1.9-0.3
			c-0.6-0.2-1-0.6-1.4-1c-0.4-0.4-0.7-0.9-0.9-1.5c-0.2-0.6-0.3-1.3-0.3-2c0-0.7,0.1-1.4,0.3-2c0.2-0.6,0.5-1.1,0.9-1.6
			c0.4-0.4,0.9-0.8,1.4-1C97.7,83.7,98.3,83.5,99,83.5z M99,92.1c0.9,0,1.6-0.3,2.1-0.9c0.5-0.6,0.7-1.5,0.7-2.6
			c0-1.1-0.2-2-0.7-2.7c-0.5-0.6-1.2-1-2.1-1c-0.5,0-0.9,0.1-1.3,0.2c-0.4,0.2-0.7,0.4-0.9,0.7c-0.2,0.3-0.4,0.7-0.5,1.1
			c-0.1,0.4-0.2,1-0.2,1.5c0,1.1,0.2,2,0.7,2.6C97.4,91.8,98.1,92.1,99,92.1z"/>
		<path class="st0" d="M114.9,83.7v9.6h-1c-0.2,0-0.4-0.1-0.5-0.3l-0.1-1c-0.4,0.5-0.9,0.8-1.4,1.1c-0.5,0.3-1.1,0.4-1.8,0.4
			c-0.5,0-1-0.1-1.4-0.3c-0.4-0.2-0.7-0.4-1-0.7c-0.3-0.3-0.5-0.7-0.6-1.1c-0.1-0.4-0.2-0.9-0.2-1.5v-6.1h1.7v6.1
			c0,0.7,0.2,1.3,0.5,1.7c0.3,0.4,0.8,0.6,1.5,0.6c0.5,0,1-0.1,1.4-0.4c0.4-0.2,0.8-0.6,1.2-1v-7H114.9z"/>
		<path class="st0" d="M120.5,85.6c0.3-0.7,0.7-1.2,1.1-1.5c0.4-0.4,1-0.6,1.6-0.6c0.2,0,0.4,0,0.6,0.1c0.2,0,0.4,0.1,0.5,0.2
			l-0.1,1.3c0,0.2-0.1,0.2-0.3,0.2c-0.1,0-0.2,0-0.4-0.1c-0.2,0-0.4-0.1-0.6-0.1c-0.3,0-0.6,0-0.8,0.1c-0.2,0.1-0.4,0.2-0.6,0.4
			c-0.2,0.2-0.4,0.4-0.5,0.6c-0.1,0.3-0.3,0.5-0.4,0.9v6h-1.7v-9.6h1c0.2,0,0.3,0,0.4,0.1c0.1,0.1,0.1,0.2,0.1,0.4L120.5,85.6z"/>
		<path class="st0" d="M129.3,80.7c0,0.2,0,0.3-0.1,0.5c-0.1,0.1-0.2,0.3-0.3,0.4c-0.1,0.1-0.2,0.2-0.4,0.3
			c-0.1,0.1-0.3,0.1-0.5,0.1c-0.2,0-0.3,0-0.5-0.1c-0.1-0.1-0.3-0.1-0.4-0.3c-0.1-0.1-0.2-0.2-0.3-0.4c-0.1-0.1-0.1-0.3-0.1-0.5
			s0-0.3,0.1-0.5s0.1-0.3,0.3-0.4c0.1-0.1,0.2-0.2,0.4-0.3c0.1-0.1,0.3-0.1,0.5-0.1c0.2,0,0.3,0,0.5,0.1c0.1,0.1,0.3,0.1,0.4,0.3
			c0.1,0.1,0.2,0.2,0.3,0.4C129.3,80.4,129.3,80.5,129.3,80.7z M129,83.7v9.6h-1.7v-9.6H129z"/>
		<path class="st0" d="M136,93.4c-0.8,0-1.3-0.2-1.7-0.6c-0.4-0.4-0.6-1-0.6-1.8v-5.9h-1.2c-0.1,0-0.2,0-0.3-0.1s-0.1-0.2-0.1-0.3
			v-0.7l1.6-0.2l0.4-3c0-0.1,0.1-0.2,0.1-0.2c0.1-0.1,0.2-0.1,0.3-0.1h0.8v3.3h2.8v1.2h-2.8v5.7c0,0.4,0.1,0.7,0.3,0.9
			s0.4,0.3,0.8,0.3c0.2,0,0.3,0,0.5-0.1c0.1,0,0.2-0.1,0.3-0.2c0.1-0.1,0.2-0.1,0.2-0.2c0.1,0,0.1-0.1,0.2-0.1
			c0.1,0,0.2,0.1,0.2,0.2l0.5,0.8c-0.3,0.3-0.6,0.5-1,0.6C136.9,93.3,136.4,93.4,136,93.4z"/>
		<path class="st0" d="M148.9,91.9c-0.2,0.3-0.5,0.5-0.7,0.7c-0.3,0.2-0.6,0.3-0.9,0.5c-0.3,0.1-0.7,0.2-1,0.3
			c-0.4,0.1-0.7,0.1-1,0.1c-0.7,0-1.3-0.1-1.8-0.3c-0.6-0.2-1-0.6-1.4-1c-0.4-0.4-0.7-1-0.9-1.6c-0.2-0.6-0.3-1.4-0.3-2.2
			c0-0.7,0.1-1.3,0.3-1.9c0.2-0.6,0.5-1.1,0.9-1.5c0.4-0.4,0.9-0.8,1.4-1s1.2-0.4,1.9-0.4c0.6,0,1.1,0.1,1.6,0.3
			c0.5,0.2,0.9,0.5,1.3,0.8c0.4,0.4,0.6,0.8,0.8,1.3c0.2,0.5,0.3,1.1,0.3,1.8c0,0.3,0,0.4-0.1,0.5c-0.1,0.1-0.2,0.1-0.3,0.1h-6.4
			c0,0.6,0.1,1.1,0.2,1.6c0.1,0.4,0.4,0.8,0.6,1.1c0.3,0.3,0.6,0.5,0.9,0.7c0.4,0.1,0.8,0.2,1.2,0.2c0.4,0,0.8,0,1.1-0.1
			c0.3-0.1,0.6-0.2,0.8-0.3c0.2-0.1,0.4-0.2,0.6-0.3c0.1-0.1,0.3-0.1,0.4-0.1c0.1,0,0.2,0.1,0.3,0.2L148.9,91.9z M147.6,87.4
			c0-0.4-0.1-0.7-0.2-1.1c-0.1-0.3-0.3-0.6-0.5-0.8c-0.2-0.2-0.5-0.4-0.8-0.5c-0.3-0.1-0.6-0.2-1-0.2c-0.8,0-1.4,0.2-1.9,0.7
			c-0.5,0.5-0.8,1.1-0.9,1.9H147.6z"/>
		<path class="st0" d="M163.4,79.7c0.8,0,1.5,0.1,2.1,0.2c0.6,0.2,1.1,0.4,1.5,0.7c0.4,0.3,0.7,0.7,0.9,1.1c0.2,0.4,0.3,0.9,0.3,1.5
			c0,0.3-0.1,0.7-0.2,1c-0.1,0.3-0.3,0.6-0.5,0.9c-0.2,0.3-0.5,0.5-0.8,0.7c-0.3,0.2-0.7,0.4-1.1,0.5c1,0.2,1.7,0.5,2.2,1.1
			c0.5,0.5,0.8,1.2,0.8,2c0,0.6-0.1,1.1-0.3,1.6c-0.2,0.5-0.5,0.9-0.9,1.2c-0.4,0.3-0.9,0.6-1.5,0.8c-0.6,0.2-1.3,0.3-2,0.3h-4.8
			V79.7H163.4z M160.9,81.2v4.6h2.4c0.5,0,1-0.1,1.3-0.2c0.4-0.1,0.7-0.3,0.9-0.5c0.2-0.2,0.4-0.4,0.6-0.7c0.1-0.3,0.2-0.6,0.2-0.9
			c0-0.8-0.2-1.4-0.7-1.8c-0.5-0.4-1.2-0.6-2.2-0.6H160.9z M163.8,91.8c0.5,0,1-0.1,1.3-0.2c0.4-0.1,0.7-0.3,0.9-0.5
			c0.2-0.2,0.4-0.5,0.5-0.8c0.1-0.3,0.2-0.6,0.2-1c0-0.7-0.2-1.3-0.7-1.7c-0.5-0.4-1.2-0.6-2.2-0.6h-2.9v4.7H163.8z"/>
		<path class="st0" d="M173.6,85.6c0.3-0.7,0.7-1.2,1.1-1.5c0.4-0.4,1-0.6,1.6-0.6c0.2,0,0.4,0,0.6,0.1c0.2,0,0.4,0.1,0.5,0.2
			l-0.1,1.3c0,0.2-0.1,0.2-0.3,0.2c-0.1,0-0.2,0-0.4-0.1c-0.2,0-0.4-0.1-0.6-0.1c-0.3,0-0.6,0-0.8,0.1c-0.2,0.1-0.4,0.2-0.6,0.4
			c-0.2,0.2-0.4,0.4-0.5,0.6c-0.1,0.3-0.3,0.5-0.4,0.9v6H172v-9.6h1c0.2,0,0.3,0,0.4,0.1c0.1,0.1,0.1,0.2,0.1,0.4L173.6,85.6z"/>
		<path class="st0" d="M183.9,83.5c0.7,0,1.3,0.1,1.9,0.3c0.6,0.2,1,0.6,1.4,1c0.4,0.4,0.7,0.9,0.9,1.6c0.2,0.6,0.3,1.3,0.3,2
			c0,0.8-0.1,1.4-0.3,2c-0.2,0.6-0.5,1.1-0.9,1.5c-0.4,0.4-0.9,0.8-1.4,1c-0.6,0.2-1.2,0.3-1.9,0.3c-0.7,0-1.3-0.1-1.9-0.3
			c-0.6-0.2-1-0.6-1.4-1c-0.4-0.4-0.7-0.9-0.9-1.5c-0.2-0.6-0.3-1.3-0.3-2c0-0.7,0.1-1.4,0.3-2c0.2-0.6,0.5-1.1,0.9-1.6
			c0.4-0.4,0.9-0.8,1.4-1C182.6,83.7,183.2,83.5,183.9,83.5z M183.9,92.1c0.9,0,1.6-0.3,2.1-0.9c0.5-0.6,0.7-1.5,0.7-2.6
			c0-1.1-0.2-2-0.7-2.7c-0.5-0.6-1.2-1-2.1-1c-0.5,0-0.9,0.1-1.3,0.2c-0.4,0.2-0.7,0.4-0.9,0.7c-0.2,0.3-0.4,0.7-0.5,1.1
			c-0.1,0.4-0.2,1-0.2,1.5c0,1.1,0.2,2,0.7,2.6C182.2,91.8,183,92.1,183.9,92.1z"/>
		<path class="st0" d="M193.6,79.4v8.2h0.4c0.1,0,0.2,0,0.3-0.1c0.1,0,0.2-0.1,0.3-0.2l3-3.2c0.1-0.1,0.2-0.2,0.3-0.2
			c0.1-0.1,0.2-0.1,0.4-0.1h1.5l-3.5,3.7c-0.2,0.2-0.4,0.4-0.5,0.5c0.1,0.1,0.2,0.2,0.3,0.3c0.1,0.1,0.2,0.2,0.3,0.3l3.7,4.7h-1.5
			c-0.1,0-0.3,0-0.4-0.1c-0.1,0-0.2-0.1-0.3-0.3l-3.1-3.9c-0.1-0.1-0.2-0.2-0.3-0.3c-0.1,0-0.2-0.1-0.4-0.1h-0.5v4.6H192V79.4H193.6
			z"/>
		<path class="st0" d="M210.1,91.9c-0.2,0.3-0.5,0.5-0.7,0.7c-0.3,0.2-0.6,0.3-0.9,0.5c-0.3,0.1-0.7,0.2-1,0.3
			c-0.4,0.1-0.7,0.1-1,0.1c-0.7,0-1.3-0.1-1.8-0.3c-0.6-0.2-1-0.6-1.4-1c-0.4-0.4-0.7-1-0.9-1.6c-0.2-0.6-0.3-1.4-0.3-2.2
			c0-0.7,0.1-1.3,0.3-1.9c0.2-0.6,0.5-1.1,0.9-1.5c0.4-0.4,0.9-0.8,1.4-1c0.6-0.2,1.2-0.4,1.9-0.4c0.6,0,1.1,0.1,1.6,0.3
			c0.5,0.2,0.9,0.5,1.3,0.8c0.4,0.4,0.6,0.8,0.8,1.3c0.2,0.5,0.3,1.1,0.3,1.8c0,0.3,0,0.4-0.1,0.5c-0.1,0.1-0.2,0.1-0.3,0.1h-6.4
			c0,0.6,0.1,1.1,0.2,1.6c0.1,0.4,0.4,0.8,0.6,1.1c0.3,0.3,0.6,0.5,0.9,0.7c0.4,0.1,0.8,0.2,1.2,0.2c0.4,0,0.8,0,1.1-0.1
			c0.3-0.1,0.6-0.2,0.8-0.3c0.2-0.1,0.4-0.2,0.6-0.3c0.1-0.1,0.3-0.1,0.4-0.1c0.1,0,0.2,0.1,0.3,0.2L210.1,91.9z M208.8,87.4
			c0-0.4-0.1-0.7-0.2-1.1c-0.1-0.3-0.3-0.6-0.5-0.8c-0.2-0.2-0.5-0.4-0.8-0.5c-0.3-0.1-0.6-0.2-1-0.2c-0.8,0-1.4,0.2-1.9,0.7
			c-0.5,0.5-0.8,1.1-0.9,1.9H208.8z"/>
		<path class="st0" d="M215.3,85.6c0.3-0.7,0.7-1.2,1.1-1.5c0.4-0.4,1-0.6,1.6-0.6c0.2,0,0.4,0,0.6,0.1c0.2,0,0.4,0.1,0.5,0.2
			l-0.1,1.3c0,0.2-0.1,0.2-0.3,0.2c-0.1,0-0.2,0-0.4-0.1c-0.2,0-0.4-0.1-0.6-0.1c-0.3,0-0.6,0-0.8,0.1c-0.2,0.1-0.4,0.2-0.6,0.4
			c-0.2,0.2-0.4,0.4-0.5,0.6c-0.1,0.3-0.3,0.5-0.4,0.9v6h-1.7v-9.6h1c0.2,0,0.3,0,0.4,0.1c0.1,0.1,0.1,0.2,0.1,0.4L215.3,85.6z"/>
	</g>
</g>
</svg>
