<?xml version="1.0" encoding="utf-8"?>
<!-- Generator: Adobe Illustrator 22.0.1, SVG Export Plug-In . SVG Version: 6.00 Build 0)  -->
<svg version="1.1" id="Layer_1" xmlns="http://www.w3.org/2000/svg" xmlns:xlink="http://www.w3.org/1999/xlink" x="0px" y="0px"
	 viewBox="0 0 160 50" style="enable-background:new 0 0 160 50;" xml:space="preserve">
<style type="text/css">
	.st0{clip-path:url(#SVGID_2_);fill:#FFFFFF;}
	.st1{fill:#FFFFFF;}
	.st2{fill:#DBAD60;}
</style>
<g>
	<g>
		<defs>
			<rect id="SVGID_1_" x="0.3" y="0" width="159.3" height="50"/>
		</defs>
		<clipPath id="SVGID_2_">
			<use xlink:href="#SVGID_1_"  style="overflow:visible;"/>
		</clipPath>
		<polygon class="st0" points="17,33.7 8.3,33.7 8.3,43.7 0.3,43.7 0.3,17.1 19.6,17.1 19.6,23.4 8.3,23.4 8.3,27.7 17,27.7 
			17,33.7 		"/>
	</g>
	<polygon class="st1" points="29.2,23.5 29.2,43.7 21.4,43.7 21.4,23.5 29.2,23.5 	"/>
	<path class="st1" d="M50.6,43.7h-7.8V31.2c0-1-0.2-1.7-0.5-2c-0.3-0.3-0.7-0.4-1.2-0.4c-1.4,0-2.1,1-2.1,3v11.9h-7.8V23.9h7.2v2.8
		c1.1-2.1,3-3.2,5.7-3.2c1.4,0,2.7,0.3,3.7,0.8c1,0.6,1.7,1.3,2.1,2.1c0.4,0.9,0.6,2.4,0.6,4.6V43.7L50.6,43.7z"/>
	<path class="st1" d="M65.2,31.1c0-1-0.2-1.8-0.7-2.3c-0.4-0.5-1-0.8-1.5-0.8c-0.8,0-1.5,0.4-1.9,1.2c-0.4,0.8-0.7,2.4-0.7,4.6
		c0,2.3,0.2,3.7,0.7,4.5c0.4,0.7,1,1.1,1.7,1.1c0.6,0,1.1-0.2,1.6-0.7c0.5-0.4,0.8-1.2,0.8-2.3V31.1L65.2,31.1z M72.9,50h-7.7v-8.4
		c-0.8,1.7-2.4,2.5-4.7,2.5c-2.6,0-4.6-1-6-2.9c-1.4-1.9-2.1-4.4-2.1-7.4c0-2.9,0.7-5.3,2.2-7.4c1.5-2,3.7-3,6.6-3
		c2.9,0,4.9,1,6,3.1c0.5-0.9,1-1.8,1.3-2.7h4.5c-0.1,0.6-0.2,1.5-0.2,2.7V50L72.9,50z"/>
	<path class="st1" d="M97.6,35.7l6.6,0.6c-0.3,2.3-1.3,4.2-2.9,5.7c-1.6,1.5-3.8,2.2-6.5,2.2c-3,0-5.5-1-7.4-2.9
		c-1.9-1.9-2.8-4.4-2.8-7.3c0-3,0.9-5.6,2.8-7.5c1.9-2,4.3-3,7.3-3c2.7,0,4.8,0.7,6.5,2.2c1.7,1.5,2.6,3.4,2.9,5.7l-6.8,0.6
		c-0.3-2.1-1.1-3.1-2.4-3.1c-0.8,0-1.4,0.4-1.8,1.1c-0.4,0.8-0.6,2.1-0.6,4c0,1.6,0.2,2.8,0.6,3.6c0.4,0.8,1.1,1.2,2,1.2
		C96.5,38.7,97.3,37.7,97.6,35.7L97.6,35.7z"/>
	<path class="st1" d="M116.7,39.4c1.2,0,2-0.6,2.2-1.9c0.3-1.3,0.4-2.6,0.4-3.9c0-1.9-0.2-3.2-0.6-4c-0.4-0.8-1.1-1.2-2-1.2
		c-0.9,0-1.6,0.4-2,1.3c-0.4,0.8-0.6,2.2-0.6,4.2c0,2.3,0.2,3.8,0.6,4.5C115.2,39,115.8,39.4,116.7,39.4L116.7,39.4z M116.6,44.1
		c-3.3,0-5.9-1-7.9-3.1c-1.9-2.1-2.9-4.5-2.9-7.2c0-3,1-5.4,3-7.4c2-2,4.7-3,7.9-3c3.3,0,5.9,1,7.9,2.9c2,2,3,4.4,3,7.3
		c0,3-1,5.4-3,7.4C122.6,43.1,119.9,44.1,116.6,44.1L116.6,44.1z"/>
	<path class="st1" d="M159.7,43.7h-7.6V31.3c0-0.8-0.1-1.4-0.4-1.7c-0.2-0.3-0.7-0.5-1.3-0.5c-1.5,0-2.2,1.1-2.2,3.2v11.5h-7.5V31.3
		c0-1.6-0.6-2.4-1.8-2.4c-1.3,0-1.9,0.8-1.9,2.4v12.4h-7.5V23.9h7v2.7c1.3-2.1,3.1-3.1,5.5-3.1c2.6,0,4.4,1,5.6,3.1
		c1.3-2.1,3.3-3.1,5.9-3.1c1.3,0,2.4,0.3,3.4,0.8c1,0.5,1.7,1.2,2.1,2.1c0.4,0.8,0.7,2.1,0.7,3.9V43.7L159.7,43.7z"/>
	<path class="st2" d="M82.4,40.2c0,2-1.6,3.6-3.6,3.6s-3.6-1.6-3.6-3.6c0-2,1.6-3.6,3.6-3.6S82.4,38.2,82.4,40.2L82.4,40.2z"/>
	<g>
		<path class="st2" d="M28.8,18.1c0,2-1.6,3.6-3.6,3.6c-2,0-3.6-1.6-3.6-3.6s1.6-3.6,3.6-3.6C27.2,14.5,28.8,16.1,28.8,18.1
			L28.8,18.1z"/>
		<path class="st2" d="M25.7,12c1.9-1.4,4-2.6,6.1-3.6c2.1-1.1,4.3-2,6.6-2.8c2.2-0.8,4.5-1.5,6.8-2.2c1.1-0.3,2.3-0.6,3.5-0.9
			C49.8,2.3,51,2,52.2,1.8c1.2-0.2,2.3-0.4,3.5-0.6c1.2-0.2,2.4-0.3,3.5-0.5c2.4-0.3,4.7-0.5,7.1-0.6l1.8-0.1c0.6,0,1.2,0,1.8,0
			c1.2,0,2.4,0,3.6,0c2.4,0,4.8,0.1,7.1,0.3c0.6,0,1.2,0.1,1.8,0.1l0.9,0.1l0.9,0.1c1.2,0.1,2.4,0.3,3.6,0.4
			c2.4,0.3,4.7,0.7,7.1,1.2C96,2.4,97.2,2.7,98.3,3c0.6,0.1,1.2,0.3,1.7,0.4c0.6,0.2,1.2,0.3,1.7,0.5c2.3,0.7,4.6,1.4,6.8,2.3
			C110.8,7,113,8,115.1,9c2.1,1,4.2,2.2,6.3,3.4c2,1.2,4,2.5,5.9,4c1.9,1.4,3.7,2.9,5.4,4.6c-0.9-0.8-1.8-1.5-2.7-2.2
			c-0.9-0.7-1.9-1.4-2.9-2.1c-2-1.3-4-2.5-6.1-3.7c-2.1-1.1-4.2-2.2-6.3-3.1c-2.2-1-4.3-1.8-6.6-2.6c-2.2-0.8-4.5-1.5-6.7-2.1
			c-2.3-0.6-4.6-1.2-6.9-1.6c-2.3-0.5-4.6-0.8-7-1.1c-2.3-0.3-4.7-0.5-7-0.7c-9.4-0.6-18.9-0.4-28.2,1.2c-4.7,0.8-9.3,1.8-13.7,3.3
			c-1.1,0.4-2.2,0.8-3.3,1.2c-1.1,0.4-2.2,0.9-3.3,1.3c-1.1,0.5-2.2,1-3.2,1.5C27.7,10.7,26.7,11.3,25.7,12L25.7,12z"/>
	</g>
</g>
</svg>
