<svg xmlns="http://www.w3.org/2000/svg" width="99.636" height="33.376" viewBox="0 0 99.636 33.376">
    <defs>
        <style>
            .cls-1,.cls-2{fill:#211c1d}.cls-2{fill-rule:evenodd}
        </style>
    </defs>
    <g id="Group_480" data-name="Group 480" transform="translate(-32.103 -3056.914)">
        <path id="Path_249" d="M125.593 3056.914H38.188c-5.217 0-6.085 1.806-6.085 6.1v21.21c0 4.292 1.786 6.064 6.079 6.064h87.412c4.3 0 6.145-1.774 6.145-6.07v-21.2c0-4.3-1.85-6.1-6.146-6.1zm0 .785c1.955 0 3.306.4 4.132 1.213s1.229 2.161 1.229 4.1v21.2c0 1.939-.4 3.276-1.226 4.085s-2.175 1.2-4.134 1.2H38.182c-3.859 0-5.294-1.43-5.294-5.278v-21.21c0-2.223.258-3.424.891-4.143.713-.812 2.073-1.174 4.409-1.174h87.405" class="cls-1" data-name="Path 249"/>
        <path id="Path_250" d="M58.08 3077.689a15.373 15.373 0 0 1-1.389 2.592c-.9 1.373-2.172 3.082-3.746 3.1-1.4.013-1.758-.911-3.657-.9s-2.295.916-3.695.9c-1.574-.014-2.778-1.558-3.68-2.93-2.521-3.838-2.784-8.341-1.229-10.736a5.578 5.578 0 0 1 4.487-2.7c1.668 0 2.717.915 4.1.915 1.338 0 2.154-.917 4.083-.917a5.446 5.446 0 0 1 4.1 2.167 4.7 4.7 0 0 0 .624 8.507" class="cls-2" data-name="Path 250"/>
        <path id="Path_251" d="M51.888 3065.482a4.685 4.685 0 0 0 1.04-3.469 5.06 5.06 0 0 0-3.267 1.757 4.348 4.348 0 0 0-1.067 3.384 4.27 4.27 0 0 0 3.294-1.672" class="cls-2" data-name="Path 251"/>
        <path id="Path_252" d="M75.9 3076.405a1.75 1.75 0 0 0-1.133.413 1.945 1.945 0 0 0-.666 1.091 2.234 2.234 0 0 0-.078.517v1.265a2.026 2.026 0 0 0 .508 1.4 1.7 1.7 0 0 0 1.322.568 1.729 1.729 0 0 0 1.487-.735 3.233 3.233 0 0 0 .531-1.941 3.123 3.123 0 0 0-.5-1.828 1.741 1.741 0 0 0-1.472-.753zm30.912-.1a1.689 1.689 0 0 0-1.546.9 3.417 3.417 0 0 0-.455 1.821 3.368 3.368 0 0 0 .455 1.8 1.7 1.7 0 0 0 1.533.9 1.68 1.68 0 0 0 1.513-.922 3.349 3.349 0 0 0 .472-1.8 3.412 3.412 0 0 0-.451-1.793 1.68 1.68 0 0 0-1.521-.9zm-22.558.1a1.746 1.746 0 0 0-1.133.413 1.954 1.954 0 0 0-.672 1.091 2.274 2.274 0 0 0-.082.517v1.265a2.03 2.03 0 0 0 .513 1.4 1.7 1.7 0 0 0 1.322.568 1.729 1.729 0 0 0 1.49-.735 3.227 3.227 0 0 0 .534-1.941 3.131 3.131 0 0 0-.5-1.828 1.745 1.745 0 0 0-1.472-.753zm-17.46-2.705h-.03c-.106.491-.27 1.144-.5 2.021l-.876 2.789h2.83l-.888-2.789c-.1-.283-.275-1.039-.534-2.021zm52.826 2.517a1.667 1.667 0 0 0-1.346.738 2.426 2.426 0 0 0-.5 1.359h3.519a2.285 2.285 0 0 0-.327-1.344 1.521 1.521 0 0 0-1.346-.753zm-50.12 6.514l-.984-3.043h-3.427l-.939 3.043H62.4l3.391-10.5h2.1l3.412 10.5zm9.034-.738a3.1 3.1 0 0 1-2.344 1 2.392 2.392 0 0 1-2.171-1.081v4.06H72.35v-8.255c0-.812-.039-1.561-.082-2.543h1.486l.094 1.276h.029a2.878 2.878 0 0 1 2.569-1.37 2.818 2.818 0 0 1 2.246 1.055 4.192 4.192 0 0 1 .9 2.8 4.29 4.29 0 0 1-1.056 3.064zm8.352 0a3.106 3.106 0 0 1-2.349 1 2.4 2.4 0 0 1-2.174-1.081v4.06h-1.669v-8.255c0-.812-.031-1.561-.072-2.543H82.1l.1 1.276h.029a2.877 2.877 0 0 1 2.566-1.37 2.809 2.809 0 0 1 2.245 1.055 4.172 4.172 0 0 1 .9 2.8 4.29 4.29 0 0 1-1.056 3.064zm9.76.059a4.155 4.155 0 0 1-2.872.922 5.034 5.034 0 0 1-2.732-.656l.392-1.407a4.718 4.718 0 0 0 2.437.657 2.314 2.314 0 0 0 1.488-.43 1.409 1.409 0 0 0 .53-1.154 1.477 1.477 0 0 0-.436-1.076 4.156 4.156 0 0 0-1.455-.813q-2.766-1.029-2.767-3.017a2.658 2.658 0 0 1 .975-2.128 3.872 3.872 0 0 1 2.59-.829 5.149 5.149 0 0 1 2.394.5l-.426 1.379a4.174 4.174 0 0 0-2.023-.486 2.1 2.1 0 0 0-1.4.437 1.264 1.264 0 0 0-.422.956 1.3 1.3 0 0 0 .485 1.035 5.546 5.546 0 0 0 1.531.811 5.133 5.133 0 0 1 2 1.284 2.68 2.68 0 0 1 .641 1.827 2.813 2.813 0 0 1-.935 2.19zm5.938-5.5h-1.767v3.631c0 .938.291 1.4.949 1.4a2.877 2.877 0 0 0 .73-.074l.038 1.28a3.851 3.851 0 0 1-1.319.188 2.052 2.052 0 0 1-1.581-.61 2.962 2.962 0 0 1-.584-2.048v-3.77h-1.079v-1.375h1.079v-1.346l1.767-.5v1.847h1.767v1.375zm6.948 5.289a3.58 3.58 0 0 1-2.783 1.155 3.4 3.4 0 0 1-2.671-1.11 4.046 4.046 0 0 1-.991-2.8 4.133 4.133 0 0 1 1.023-2.893 3.535 3.535 0 0 1 2.759-1.124 3.462 3.462 0 0 1 2.694 1.11 4 4 0 0 1 .968 2.782 4.168 4.168 0 0 1-1 2.88zm6.108-5.133a2.622 2.622 0 0 0-.545-.043 1.61 1.61 0 0 0-1.382.671 2.507 2.507 0 0 0-.429 1.5v3.9h-1.669v-5.123c0-.871-.036-1.65-.066-2.436h1.47l.063 1.571h.046a2.7 2.7 0 0 1 .845-1.237 2.083 2.083 0 0 1 1.235-.424 2.877 2.877 0 0 1 .432.011v1.61zm7.2 2.789h-5.068a2.224 2.224 0 0 0 .736 1.685 2.494 2.494 0 0 0 1.657.517 5.514 5.514 0 0 0 2.049-.371l.266 1.171a6.313 6.313 0 0 1-2.551.466 3.682 3.682 0 0 1-2.774-1.039 3.841 3.841 0 0 1-1.011-2.791 4.381 4.381 0 0 1 .938-2.866 3.25 3.25 0 0 1 2.66-1.218 2.828 2.828 0 0 1 2.488 1.218 4.225 4.225 0 0 1 .672 2.428 4.366 4.366 0 0 1-.062.8z" class="cls-2" data-name="Path 252"/>
        <path id="Path_253" d="M66.183 3067.338l-.428-1.34c-.1-.331-.194-.7-.275-1.017h-.016c-.08.315-.161.694-.258 1.017l-.42 1.34zm-1.558.751l-.469 1.542h-1.025l1.744-5.442h1.268l1.768 5.442h-1.066l-.493-1.542z" class="cls-1" data-name="Path 253"/>
        <path id="Path_254" d="M69.041 3065.7l.638 1.994c.113.348.194.662.266.985h.025c.072-.323.161-.629.266-.985l.622-1.994h1.049l-1.5 3.932h-.977l-1.462-3.932z" class="cls-1" data-name="Path 254"/>
        <path id="Path_255" d="M74.548 3067.71c-.7-.017-1.373.137-1.373.734a.521.521 0 0 0 .565.565.8.8 0 0 0 .775-.541.689.689 0 0 0 .033-.218v-.54zm.129 1.921l-.065-.436h-.024a1.46 1.46 0 0 1-1.162.525 1.167 1.167 0 0 1-1.236-1.171c0-.993.88-1.493 2.333-1.485V3067c0-.258-.1-.686-.8-.686a2.086 2.086 0 0 0-1.057.29l-.194-.645a2.824 2.824 0 0 1 1.421-.348 1.471 1.471 0 0 1 1.622 1.656v1.42a6.347 6.347 0 0 0 .057.945z" class="cls-1" data-name="Path 255"/>
        <path id="Path_256" d="M78.53 3063.9h1v5.732h-1v-5.732z" class="cls-1" data-name="Path 256"/>
        <path id="Path_257" d="M76.482 3069.631v-3.931h1v3.932zm1.057-5.03a.557.557 0 1 1-.557-.541.526.526 0 0 1 .557.541z" class="cls-1" data-name="Path 257"/>
        <path id="Path_258" d="M85.628 3068.008a1.1 1.1 0 0 0 .024.234.916.916 0 0 0 .88.7c.622 0 1-.5 1-1.292 0-.694-.331-1.26-.993-1.26a.93.93 0 0 0-.88.727 1.2 1.2 0 0 0-.032.258v.638zm-1.026 1.623c.017-.266.033-.7.033-1.106v-4.625h.993v2.341h.016a1.423 1.423 0 0 1 1.259-.63c.961 0 1.647.8 1.639 1.995a1.883 1.883 0 0 1-1.784 2.115 1.352 1.352 0 0 1-1.243-.678H85.5l-.049.589z" class="cls-1" data-name="Path 258"/>
        <path id="Path_259" d="M89.358 3063.9h1v5.732h-1v-5.732z" class="cls-1" data-name="Path 259"/>
        <path id="Path_260" d="M93.863 3067.249a.845.845 0 0 0-.815-.96.972.972 0 0 0-.913.96zm-1.728.7a1.069 1.069 0 0 0 1.211 1.017 2.949 2.949 0 0 0 1.09-.178l.146.686a3.69 3.69 0 0 1-1.373.243 1.86 1.86 0 0 1-2.026-1.986 1.947 1.947 0 0 1 1.921-2.116 1.71 1.71 0 0 1 1.7 1.914 2.349 2.349 0 0 1-.033.42z" class="cls-1" data-name="Path 260"/>
        <path id="Path_261" d="M98.045 3067.669c0 .759.372 1.332.977 1.332.566 0 .961-.557.961-1.348 0-.614-.274-1.316-.953-1.316-.7 0-.985.678-.985 1.332zm2.963-.04a1.948 1.948 0 0 1-2.018 2.091 1.9 1.9 0 0 1-1.97-2.027 1.942 1.942 0 0 1 2.035-2.083 1.887 1.887 0 0 1 1.953 2.019z" class="cls-1" data-name="Path 261"/>
        <path id="Path_262" d="M101.824 3066.87c0-.452-.008-.832-.032-1.171h.872l.048.59h.025a1.416 1.416 0 0 1 1.251-.679c.686 0 1.4.444 1.4 1.688v2.333h-.993v-2.22c0-.565-.21-.993-.751-.993a.832.832 0 0 0-.775.581.992.992 0 0 0-.041.323v2.309h-1v-2.761z" class="cls-1" data-name="Path 262"/>
        <path id="Path_263" d="M109.252 3064.577v1.122h.945v.743h-.945v1.736c0 .476.129.726.509.726a1.482 1.482 0 0 0 .387-.048l.016.759a2.192 2.192 0 0 1-.718.1 1.15 1.15 0 0 1-.856-.323 1.567 1.567 0 0 1-.307-1.1v-1.849h-.565v-.743h.565v-.888l.969-.234z" class="cls-1" data-name="Path 263"/>
        <path id="Path_264" d="M110.948 3063.9h1v2.341h.016a1.327 1.327 0 0 1 .493-.452 1.342 1.342 0 0 1 .678-.178c.67 0 1.372.444 1.372 1.7v2.317h-.993v-2.2c0-.573-.21-1-.759-1a.81.81 0 0 0-.767.557.847.847 0 0 0-.04.3v2.349h-1v-5.734z" class="cls-1" data-name="Path 264"/>
        <path id="Path_265" d="M118 3067.249a.845.845 0 0 0-.815-.96.97.97 0 0 0-.912.96zm-1.727.7a1.068 1.068 0 0 0 1.211 1.017 2.956 2.956 0 0 0 1.09-.178l.145.686a3.686 3.686 0 0 1-1.373.243 1.86 1.86 0 0 1-2.026-1.986 1.947 1.947 0 0 1 1.921-2.116 1.71 1.71 0 0 1 1.7 1.914 2.47 2.47 0 0 1-.032.42z" class="cls-1" data-name="Path 265"/>
        <path id="Path_266" d="M82.639 3067.712c-.7-.016-1.372.137-1.372.735a.521.521 0 0 0 .565.565.806.806 0 0 0 .775-.541.725.725 0 0 0 .032-.218v-.541zm.129 1.921l-.064-.436h-.024a1.462 1.462 0 0 1-1.163.525 1.167 1.167 0 0 1-1.235-1.17c0-.993.88-1.494 2.333-1.486V3067c0-.258-.1-.686-.8-.686a2.078 2.078 0 0 0-1.058.291l-.194-.646a2.831 2.831 0 0 1 1.421-.347 1.47 1.47 0 0 1 1.623 1.655v1.421a6.355 6.355 0 0 0 .056.944z" class="cls-1" data-name="Path 266"/>
    </g>
</svg>
