<svg xmlns="http://www.w3.org/2000/svg" width="99.636" height="33.376" viewBox="0 0 99.636 33.376">
    <defs>
        <style>
            .cls-1,.cls-2{fill:#211c1d}.cls-2{fill-rule:evenodd}
        </style>
    </defs>
    <g id="Group_481" data-name="Group 481" transform="translate(-137.682 -3056.914)">
        <path id="Path_267" d="M231.173 3056.914h-87.406c-5.217 0-6.085 1.806-6.085 6.1v21.21c0 4.292 1.787 6.064 6.079 6.064h87.412c4.3 0 6.145-1.774 6.145-6.07v-21.2c0-4.3-1.85-6.1-6.145-6.1zm0 .785c1.954 0 3.306.4 4.131 1.213s1.229 2.161 1.229 4.1v21.2c0 1.939-.4 3.276-1.226 4.085s-2.175 1.2-4.134 1.2h-87.412c-3.859 0-5.294-1.43-5.294-5.278v-21.21c0-2.223.258-3.424.891-4.143.713-.812 2.073-1.174 4.409-1.174h87.406" class="cls-1" data-name="Path 267"/>
        <path id="Path_268" d="M216.482 3082.292h1.447v-9.519h-1.447v9.519zm12.793-6.092l-1.6 4.112h-.075l-1.675-4.112H224.4l2.512 5.787-1.446 3.2h1.446l3.884-8.985zm-8 5.026c-.456 0-1.142-.229-1.142-.838 0-.762.838-.99 1.523-.99a2.941 2.941 0 0 1 1.295.3 1.775 1.775 0 0 1-1.676 1.523zm.153-5.255a2.56 2.56 0 0 0-2.513 1.447l1.294.533a1.346 1.346 0 0 1 1.295-.685 1.431 1.431 0 0 1 1.523 1.218v.076a3.027 3.027 0 0 0-1.447-.38c-1.371 0-2.741.761-2.741 2.132a2.231 2.231 0 0 0 2.36 2.132 2.144 2.144 0 0 0 1.828-.914h.076v.762h1.371v-3.655a2.883 2.883 0 0 0-3.046-2.666zm-8.757 1.371h-2.056v-3.274h2.056a1.672 1.672 0 0 1 1.675 1.6 1.743 1.743 0 0 1-1.675 1.675zm-.076-4.569h-3.427v9.519h1.447v-3.579h1.98a2.974 2.974 0 1 0 0-5.94zm-18.581 8.453a1.986 1.986 0 0 1 0-3.96 1.995 1.995 0 0 1 0 3.96zm1.676-4.493a2.508 2.508 0 0 0-1.752-.762 3.272 3.272 0 0 0-3.122 3.275 3.153 3.153 0 0 0 3.122 3.2 2.183 2.183 0 0 0 1.675-.762h.077v.457a1.731 1.731 0 0 1-3.351.762l-1.218.533a3.141 3.141 0 0 0 2.893 1.9c1.676 0 3.046-.99 3.046-3.351v-5.785h-1.37v.533zm2.284 5.559h1.447v-9.519h-1.447v9.519zm3.579-3.122a1.85 1.85 0 0 1 1.675-1.9 1.348 1.348 0 0 1 1.219.685l-2.894 1.219zm4.417-1.067a2.96 2.96 0 0 0-2.742-2.056 3.067 3.067 0 0 0-3.046 3.275 3.187 3.187 0 0 0 3.2 3.274 3.124 3.124 0 0 0 2.665-1.447l-1.066-.761a1.857 1.857 0 0 1-1.6.914 1.651 1.651 0 0 1-1.6-.99l4.34-1.828-.152-.381zm-34.572-1.066v1.371h3.275a2.878 2.878 0 0 1-.762 1.752 3.373 3.373 0 0 1-2.513.989 3.545 3.545 0 0 1-3.579-3.655 3.592 3.592 0 0 1 3.579-3.655 3.775 3.775 0 0 1 2.513.99l.99-.99a4.88 4.88 0 0 0-3.426-1.371 5.027 5.027 0 1 0 0 10.052 4.381 4.381 0 0 0 3.5-1.447 4.582 4.582 0 0 0 1.219-3.2 2.863 2.863 0 0 0-.076-.838zm8.453 4.189a1.986 1.986 0 0 1 0-3.96 1.844 1.844 0 0 1 1.827 1.98 1.89 1.89 0 0 1-1.827 1.98zm0-5.179a3.2 3.2 0 0 0-3.275 3.275 3.25 3.25 0 0 0 3.275 3.274 3.2 3.2 0 0 0 3.274-3.274 3.16 3.16 0 0 0-3.274-3.275zm7.082 5.179a1.986 1.986 0 0 1 0-3.96 1.844 1.844 0 0 1 1.827 1.98 1.89 1.89 0 0 1-1.827 1.98zm0-5.179a3.2 3.2 0 0 0-3.275 3.275 3.25 3.25 0 0 0 3.275 3.274 3.2 3.2 0 0 0 3.274-3.274 3.16 3.16 0 0 0-3.274-3.275z" class="cls-1" data-name="Path 268"/>
        <path id="Path_269" d="M169.282 3067.854l-.429-1.2-.175-.584h-.054l-.174.584-.43 1.2zm-1.148-2.827h1.034l1.807 4.808h-1l-.4-1.149h-1.853l-.4 1.149h-1l1.806-4.808z" class="cls-1" data-name="Path 269"/>
        <path id="Path_270" d="M171.538 3065.027h1.054l1.934 3.223h.054l-.054-.927v-2.3h.9v4.808h-.953l-2.041-3.4h-.054l.054.927v2.478h-.893v-4.808z" class="cls-1" data-name="Path 270"/>
        <path id="Path_271" d="M177.978 3068.975a2.017 2.017 0 0 0 .7-.111 1.38 1.38 0 0 0 .5-.312 1.274 1.274 0 0 0 .3-.487 2.063 2.063 0 0 0 0-1.269 1.289 1.289 0 0 0-.3-.487 1.38 1.38 0 0 0-.5-.312 2.017 2.017 0 0 0-.7-.111h-.678v3.089zm-1.585-3.948h1.625a2.845 2.845 0 0 1 1.027.175 2.216 2.216 0 0 1 .779.493 2.149 2.149 0 0 1 .494.762 2.876 2.876 0 0 1 0 1.954 2.1 2.1 0 0 1-.494.759 2.237 2.237 0 0 1-.779.49 2.84 2.84 0 0 1-1.027.175h-1.625v-4.808z" class="cls-1" data-name="Path 271"/>
        <path id="Path_272" d="M182.967 3067.2a.708.708 0 0 0 .507-.188.628.628 0 0 0 .2-.477.725.725 0 0 0-.044-.248.624.624 0 0 0-.131-.215.637.637 0 0 0-.218-.151.74.74 0 0 0-.3-.057h-.853v1.336zm-1.746-2.169h1.752a1.81 1.81 0 0 1 .658.114 1.506 1.506 0 0 1 .507.316 1.368 1.368 0 0 1 .326.48 1.588 1.588 0 0 1 .114.607 1.279 1.279 0 0 1-.08.454 1.358 1.358 0 0 1-.222.382 1.637 1.637 0 0 1-.329.3 1.658 1.658 0 0 1-.4.2l-.007.048 1.289 1.846v.054h-1.04l-1.243-1.807h-.423v1.807h-.906v-4.808z" class="cls-1" data-name="Path 272"/>
        <path id="Path_273" d="M187.66 3069.083a1.636 1.636 0 0 0 .628-.121 1.579 1.579 0 0 0 .51-.336 1.526 1.526 0 0 0 .343-.52 1.9 1.9 0 0 0 0-1.35 1.514 1.514 0 0 0-.343-.52 1.552 1.552 0 0 0-.51-.336 1.692 1.692 0 0 0-1.256 0 1.562 1.562 0 0 0-.51.336 1.512 1.512 0 0 0-.342.52 1.885 1.885 0 0 0 0 1.35 1.523 1.523 0 0 0 .342.52 1.589 1.589 0 0 0 .51.336 1.636 1.636 0 0 0 .628.121zm0 .859a2.531 2.531 0 0 1-1-.195 2.441 2.441 0 0 1-.8-.533 2.484 2.484 0 0 1-.527-.8 2.63 2.63 0 0 1 0-1.968 2.484 2.484 0 0 1 .527-.8 2.455 2.455 0 0 1 .8-.534 2.658 2.658 0 0 1 1.994 0 2.455 2.455 0 0 1 .8.534 2.484 2.484 0 0 1 .527.8 2.63 2.63 0 0 1 0 1.968 2.484 2.484 0 0 1-.527.8 2.441 2.441 0 0 1-.8.533 2.528 2.528 0 0 1-1 .195z" class="cls-1" data-name="Path 273"/>
        <path id="Path_274" d="M190.9 3065.027h.907v4.808h-.907v-4.808z" class="cls-1" data-name="Path 274"/>
        <path id="Path_275" d="M194.361 3068.975a2.027 2.027 0 0 0 .7-.111 1.367 1.367 0 0 0 .5-.312 1.274 1.274 0 0 0 .3-.487 2.044 2.044 0 0 0 0-1.269 1.289 1.289 0 0 0-.3-.487 1.367 1.367 0 0 0-.5-.312 2.027 2.027 0 0 0-.7-.111h-.678v3.089zm-1.584-3.948h1.623a2.851 2.851 0 0 1 1.028.175 2.225 2.225 0 0 1 .779.493 2.146 2.146 0 0 1 .493.762 2.876 2.876 0 0 1 0 1.954 2.1 2.1 0 0 1-.493.759 2.247 2.247 0 0 1-.779.49 2.845 2.845 0 0 1-1.028.175h-1.624v-4.808z" class="cls-1" data-name="Path 275"/>
        <path id="Path_276" d="M201.431 3067.854l-.429-1.2-.175-.584h-.054l-.174.584-.43 1.2zm-1.148-2.827h1.034l1.807 4.808h-1l-.4-1.149h-1.853l-.4 1.149h-1l1.806-4.808z" class="cls-1" data-name="Path 276"/>
        <path id="Path_277" d="M205.393 3067.209a.687.687 0 0 0 .537-.2.672.672 0 0 0 .181-.464.728.728 0 0 0-.043-.248.565.565 0 0 0-.134-.211.668.668 0 0 0-.225-.145.849.849 0 0 0-.316-.054h-.8v1.323zm-1.706 2.626v-4.808h1.693a1.826 1.826 0 0 1 .641.111 1.581 1.581 0 0 1 .52.312 1.453 1.453 0 0 1 .477 1.094 1.454 1.454 0 0 1-.477 1.1 1.581 1.581 0 0 1-.52.312 1.826 1.826 0 0 1-.641.111h-.786v1.766z" class="cls-1" data-name="Path 277"/>
        <path id="Path_278" d="M209.368 3067.209a.687.687 0 0 0 .537-.2.673.673 0 0 0 .182-.464.729.729 0 0 0-.044-.248.565.565 0 0 0-.134-.211.668.668 0 0 0-.225-.145.849.849 0 0 0-.316-.054h-.8v1.323zm-1.706 2.626v-4.808h1.693a1.826 1.826 0 0 1 .641.111 1.581 1.581 0 0 1 .52.312 1.453 1.453 0 0 1 .477 1.094 1.454 1.454 0 0 1-.477 1.1 1.581 1.581 0 0 1-.52.312 1.826 1.826 0 0 1-.641.111h-.786v1.766z" class="cls-1" data-name="Path 278"/>
        <path id="Path_279" d="M215.257 3069.083a1.631 1.631 0 0 0 .627-.121 1.594 1.594 0 0 0 .511-.336 1.538 1.538 0 0 0 .342-.52 1.9 1.9 0 0 0 0-1.35 1.526 1.526 0 0 0-.342-.52 1.567 1.567 0 0 0-.511-.336 1.69 1.69 0 0 0-1.255 0 1.567 1.567 0 0 0-.511.336 1.526 1.526 0 0 0-.342.52 1.9 1.9 0 0 0 0 1.35 1.538 1.538 0 0 0 .342.52 1.594 1.594 0 0 0 .511.336 1.636 1.636 0 0 0 .628.121zm0 .859a2.532 2.532 0 0 1-1-.195 2.426 2.426 0 0 1-1.322-1.332 2.618 2.618 0 0 1 0-1.968 2.432 2.432 0 0 1 1.322-1.333 2.66 2.66 0 0 1 1.995 0 2.462 2.462 0 0 1 .795.534 2.487 2.487 0 0 1 .528.8 2.63 2.63 0 0 1 0 1.968 2.487 2.487 0 0 1-.528.8 2.447 2.447 0 0 1-.795.533 2.531 2.531 0 0 1-1 .195z" class="cls-1" data-name="Path 279"/>
        <path id="Path_280" d="M218.5 3065.027h1.054l1.934 3.223h.054l-.054-.927v-2.3h.9v4.808h-.953l-2.041-3.4h-.054l.054.927v2.478h-.894v-4.808z" class="cls-1" data-name="Path 280"/>
        <path id="Path_281" d="M158.958 3070.663l-11.927-6.862 9.421 9.372 2.506-2.51z" class="cls-2" data-name="Path 281"/>
        <path id="Path_282" d="M145.924 3063.871a.607.607 0 0 0-.1.283v19.418a.616.616 0 0 0 .048.172l9.977-9.995-9.93-9.878z" class="cls-2" data-name="Path 282"/>
        <path id="Path_283" d="M156.454 3074.324l-9.781 9.8a.771.771 0 0 0 .084-.04l12.359-7.111-2.662-2.648z" class="cls-2" data-name="Path 283"/>
        <path id="Path_284" d="M163.632 3073.352l-3.944-2.269-2.659 2.664 2.819 2.8 3.784-2.177a.59.59 0 0 0 0-1.022z" class="cls-2" data-name="Path 284"/>
    </g>
</svg>
