<svg xmlns="http://www.w3.org/2000/svg" width="99.636" height="33.376" viewBox="0 0 99.636 33.376">
    <defs>
        <style>
            .cls-1,.cls-2,.cls-3,.cls-4,.cls-5,.cls-6{fill:#211c1d}.cls-2,.cls-3,.cls-4{font-size:12.789px}.cls-2,.cls-3,.cls-4,.cls-5,.cls-6{font-family:Roboto-Medium,Roboto;font-weight:500}.cls-2{letter-spacing:-.015em}.cls-4,.cls-5{letter-spacing:-.032em}.cls-5,.cls-6{font-size:7.341px}
        </style>
    </defs>
    <g id="Group_482" data-name="Group 482" transform="translate(-243.261 -3056.914)">
        <path id="Path_285" d="M336.752 3056.914h-87.406c-5.217 0-6.085 1.806-6.085 6.1v21.21c0 4.292 1.787 6.064 6.079 6.064h87.412c4.3 0 6.145-1.774 6.145-6.07v-21.2c0-4.3-1.85-6.1-6.145-6.1zm0 .785c1.954 0 3.306.4 4.131 1.213s1.229 2.161 1.229 4.1v21.2c0 1.939-.4 3.276-1.226 4.085s-2.175 1.2-4.134 1.2H249.34c-3.859 0-5.294-1.43-5.294-5.278v-21.21c0-2.223.258-3.424.891-4.143.714-.812 2.073-1.174 4.409-1.174h87.406" class="cls-1" data-name="Path 285"/>
        <text id="We" class="cls-2" transform="translate(273.584 3082.296)">
            <tspan x="0" y="0">We</tspan>
        </text>
        <text id="b_" class="cls-3" data-name="b" transform="translate(291.506 3082.296)">
            <tspan x="0" y="0">b</tspan>
        </text>
        <text id="Tr" class="cls-4" transform="translate(301.516 3082.296)">
            <tspan x="0" y="0">Tr</tspan>
        </text>
        <text id="ader" class="cls-3" transform="translate(313.18 3082.296)">
            <tspan x="0" y="0">ader</tspan>
        </text>
        <text id="Tr-2" class="cls-5" data-name="Tr" transform="translate(273.573 3069.06)">
            <tspan x="0" y="0">Tr</tspan>
        </text>
        <text id="ade_on" class="cls-6" data-name="ade on" transform="translate(280.269 3069.06)">
            <tspan x="0" y="0">ade on</tspan>
        </text>
        <path id="Path_286" d="M267.606 3077.208h-16.983v-11.459h16.983v11.459zm-.524-13.165h-15.97a2.123 2.123 0 0 0-2.116 2.116v10.6a2.123 2.123 0 0 0 2.116 2.117h5.665a1.873 1.873 0 0 1-1.622 1.566c-.757.138-.7 1.5 0 1.5h7.884c.7 0 .757-1.364 0-1.5a1.874 1.874 0 0 1-1.622-1.566h5.665a2.123 2.123 0 0 0 2.116-2.117v-10.6a2.123 2.123 0 0 0-2.116-2.116z" class="cls-1" data-name="Path 286"/>
    </g>
</svg>
